<svg width="414" height="173" viewBox="0 0 414 173" fill="none" xmlns="http://www.w3.org/2000/svg">
<g id="beamAndBall">
<g id="static">
<path id="XMLID 111" d="M113.9 166.7H90.9V172.1H113.9V166.7Z" fill="#153351"/>
<path id="XMLID 123" d="M320.9 166.7H297.9V172.1H320.9V166.7Z" fill="#153351"/>
<path id="XMLID 126" d="M206.2 68.3C214.484 68.3 221.2 61.5843 221.2 53.3C221.2 45.0157 214.484 38.3 206.2 38.3C197.916 38.3 191.2 45.0157 191.2 53.3C191.2 61.5843 197.916 68.3 206.2 68.3Z" fill="#153351"/>
<path id="XMLID 121" d="M229.7 146.2H182.7C180.5 146.2 178.7 144.4 178.7 142.2V48.3C178.7 46.1 180.5 44.3 182.7 44.3H229.7C231.9 44.3 233.7 46.1 233.7 48.3V142.1C233.7 144.4 231.9 146.2 229.7 146.2Z" fill="#768CA5"/>
<path id="XMLID 107" d="M325.5 139.7H87V166.7H325.5V139.7Z" fill="#1A3F69"/>
</g>
<g id="platform" style="transform-origin: center;">
    <path id="beam" d="M397.9 26L397.6 11L388.6 11.3L388.9 26.3L25 35.1L24.7 20.1L14.7 20.3L15 35.3L0 35.7L0.2 43.7L413.1 33.7L412.9 25.7L397.9 26Z" fill="#768CA5"/>
    <g id="ball">
        <path d="M121.6 32C130.437 32 137.6 24.8366 137.6 16C137.6 7.16344 130.437 0 121.6 0C112.763 0 105.6 7.16344 105.6 16C105.6 24.8366 112.763 32 121.6 32Z" fill="#FF5752"/>
    </g>
</g>
</g>
</svg>
