<svg width="458" height="270" viewBox="0 0 458 270" fill="none" xmlns="http://www.w3.org/2000/svg">
<g id="beamAndBall">
<g id="base">
<path id="XMLID 111" d="M136.5 257.7H113.5V263.1H136.5V257.7Z" fill="#153351"/>
<path id="XMLID 123" d="M343.5 257.7H320.5V263.1H343.5V257.7Z" fill="#153351"/>
<path id="XMLID 126" d="M228.8 159.3C237.084 159.3 243.8 152.584 243.8 144.3C243.8 136.016 237.084 129.3 228.8 129.3C220.516 129.3 213.8 136.016 213.8 144.3C213.8 152.584 220.516 159.3 228.8 159.3Z" fill="#153351"/>
<path id="XMLID 121" d="M241.9 237.2H215.7C213.5 237.2 211.7 235.4 211.7 233.2V139.4C211.7 137.2 213.5 135.4 215.7 135.4H241.9C244.1 135.4 245.9 137.2 245.9 139.4V233.2C245.9 235.4 244.2 237.2 241.9 237.2Z" fill="#768CA5"/>
<path id="XMLID 107" d="M348.1 230.7H109.6V257.7H348.1V230.7Z" fill="#1A3F69"/>
</g>
<g id="platform" style="transform-origin: center;">
  <path id="beam" d="M420.5 121.4V106.4H411.5V121.4L47.5 122V107H37.5V122H22.5V130L435.5 129.3V121.3L420.5 121.4Z" fill="#768CA5"/>
<g id="ball">
  <path d="M229.2 123C238.037 123 245.2 115.837 245.2 107C245.2 98.1634 238.037 91 229.2 91C220.363 91 213.2 98.1634 213.2 107C213.2 115.837 220.363 123 229.2 123Z" fill="#FF5752"/>
</g>
</g>
</g>
</svg>
