<svg xmlns="http://www.w3.org/2000/svg" width="465" height="280" viewBox="0 0 465 280">
  <g id="Group_31" data-name="Group 31">
    <g id="Group_30" data-name="Group 30" opacity="0">
      <rect id="Rectangle_21" data-name="Rectangle 21" width="465" height="280" fill="#fff"/>
    </g>
    <g id="beamAndBall">
      <g id="base">
        <path id="XMLID_111" data-name="XMLID 111" d="M136.5,257.7h-23v5.4h23Z" fill="#153351"/>
        <path id="XMLID_123" data-name="XMLID 123" d="M343.5,257.7h-23v5.4h23Z" fill="#153351"/>
        <path id="XMLID_126" data-name="XMLID 126" d="M228.8,159.3a15,15,0,1,0-15-15A15,15,0,0,0,228.8,159.3Z" fill="#153351"/>
        <path id="XMLID_121" data-name="XMLID 121" d="M241.9,237.2H215.7a4.012,4.012,0,0,1-4-4V139.4a4.012,4.012,0,0,1,4-4h26.2a4.012,4.012,0,0,1,4,4v93.8A3.949,3.949,0,0,1,241.9,237.2Z" fill="#768ca5"/>
        <path id="XMLID_107" data-name="XMLID 107" d="M348.1,230.7H109.6v27H348.1Z" fill="#1a3f69"/>
      </g>
      <g id="ball-platform">
        <path id="beam" d="M420.5,121.5H22.5V130l413-.7v-8Z" fill="#768ca5"/>
        <g id="ball">
          <path id="Path_34" data-name="Path 34" d="M229.2,122a15.508,15.508,0,1,0-16-15.5A15.755,15.755,0,0,0,229.2,122Z" fill="#ff5752"/>
        </g>
      </g>
    </g>
  </g>
</svg>
