<svg width="455" height="329" viewBox="0 0 455 329" fill="none" xmlns="http://www.w3.org/2000/svg">
<g id="car 1">
<path id="wheelBg" d="M370.1 218.6L391.7 178.6L349.7 148.5L239.3 134.4L195.6 165.1L202.1 213.5L195.6 227.5L198.2 233.1L211.1 252.4L348.6 254.3L367 236.4L371.4 236L370.1 218.6Z" fill="#232323"/>
<g id="wheel">
<path id="XMLID 70" d="M282.1 319.6C322.417 319.6 355.1 286.917 355.1 246.6C355.1 206.283 322.417 173.6 282.1 173.6C241.783 173.6 209.1 206.283 209.1 246.6C209.1 286.917 241.783 319.6 282.1 319.6Z" fill="black"/>
<path id="XMLID 108" d="M295.2 208.2C295.476 208.2 295.7 207.976 295.7 207.7C295.7 207.424 295.476 207.2 295.2 207.2C294.924 207.2 294.7 207.424 294.7 207.7C294.7 207.976 294.924 208.2 295.2 208.2Z" stroke="#FF0000" stroke-miterlimit="10"/>
<path id="XMLID 109" d="M294.6 212.6C294.876 212.6 295.1 212.376 295.1 212.1C295.1 211.824 294.876 211.6 294.6 211.6C294.324 211.6 294.1 211.824 294.1 212.1C294.1 212.376 294.324 212.6 294.6 212.6Z" stroke="#FF0000" stroke-miterlimit="10"/>
<path id="XMLID 78" d="M281.8 187.8C249.4 187.8 223.1 214.1 223.1 246.5C223.1 278.9 249.4 305.2 281.8 305.2C314.2 305.2 340.5 278.9 340.5 246.5C340.5 214.1 314.3 187.8 281.8 187.8ZM281.8 300.2C252.2 300.2 228.2 276.1 228.2 246.6C228.2 217.1 252.3 193 281.8 193C311.3 193 335.4 217.1 335.4 246.6C335.4 276.1 311.4 300.2 281.8 300.2Z" fill="#2D2D2D"/>
<path id="XMLID 96" d="M281 200.8C256.3 200.8 236.4 220.8 236.4 245.4C236.4 270.1 256.4 290 281 290C305.7 290 325.6 270 325.6 245.4C325.7 220.7 305.7 200.8 281 200.8ZM250.6 227.5C250.9 227.5 251.1 227.7 251.1 228C251.1 228.3 250.9 228.5 250.6 228.5C250.3 228.5 250.1 228.3 250.1 228C250 227.8 250.3 227.5 250.6 227.5ZM240.7 255.2C240.5 255.4 240.1 255.4 239.9 255.2C239.7 255 239.7 254.6 239.9 254.4C240.1 254.2 240.5 254.2 240.7 254.4C240.9 254.7 240.9 255 240.7 255.2ZM242 261.6C241.8 261.8 241.4 261.8 241.2 261.6C241 261.4 241 261 241.2 260.8C241.4 260.6 241.8 260.6 242 260.8C242.2 261 242.2 261.4 242 261.6ZM242 250.1C241.8 250.3 241.4 250.3 241.2 250.1C241 249.9 241 249.5 241.2 249.3C241.4 249.1 241.8 249.1 242 249.3C242.2 249.5 242.2 249.9 242 250.1ZM242.9 229.2C242.6 229.2 242.4 229 242.4 228.7C242.4 228.4 242.6 228.2 242.9 228.2C243.2 228.2 243.4 228.4 243.4 228.7C243.4 229 243.2 229.2 242.9 229.2ZM245.2 255.9C245 256.1 244.6 256.1 244.4 255.9C244.2 255.7 244.2 255.3 244.4 255.1C244.6 254.9 245 254.9 245.2 255.1C245.4 255.3 245.4 255.7 245.2 255.9ZM246.5 250.1C246.3 250.3 245.9 250.3 245.7 250.1C245.5 249.9 245.5 249.5 245.7 249.3C245.9 249.1 246.3 249.1 246.5 249.3C246.7 249.6 246.7 249.9 246.5 250.1ZM246.1 233.1C245.8 233.1 245.6 232.9 245.6 232.6C245.6 232.3 245.8 232.1 246.1 232.1C246.4 232.1 246.6 232.3 246.6 232.6C246.6 232.8 246.4 233.1 246.1 233.1ZM246.7 226.1C246.4 226.1 246.2 225.9 246.2 225.6C246.2 225.3 246.4 225.1 246.7 225.1C247 225.1 247.2 225.3 247.2 225.6C247.3 225.8 247 226.1 246.7 226.1ZM249 253.3C248.8 253.5 248.4 253.5 248.2 253.3C248 253.1 248 252.7 248.2 252.5C248.4 252.3 248.8 252.3 249 252.5C249.2 252.8 249.2 253.1 249 253.3ZM248.8 220.4C248.8 220.1 249 219.9 249.3 219.9C249.6 219.9 249.8 220.1 249.8 220.4C249.8 220.7 249.6 220.9 249.3 220.9C249 221 248.8 220.7 248.8 220.4ZM250.3 248.9C250.1 249.1 249.7 249.1 249.5 248.9C249.3 248.7 249.3 248.3 249.5 248.1C249.7 247.9 250.1 247.9 250.3 248.1C250.5 248.3 250.5 248.7 250.3 248.9ZM250.2 232.9C250 232.7 250 232.3 250.2 232.1C250.4 231.9 250.8 231.9 251 232.1C251.2 232.3 251.2 232.7 251 232.9C250.7 233.1 250.4 233.1 250.2 232.9ZM251.6 272.5C251.4 272.7 251 272.7 250.8 272.5C250.6 272.3 250.6 271.9 250.8 271.7C251 271.5 251.4 271.5 251.6 271.7C251.8 271.9 251.8 272.3 251.6 272.5ZM253.5 277.6C253.3 277.8 252.9 277.8 252.7 277.6C252.5 277.4 252.5 277 252.7 276.8C252.9 276.6 253.3 276.6 253.5 276.8C253.7 277 253.7 277.4 253.5 277.6ZM253.1 222.9C252.8 222.9 252.6 222.7 252.6 222.4C252.6 222.1 252.8 221.9 253.1 221.9C253.4 221.9 253.6 222.1 253.6 222.4C253.6 222.6 253.4 222.9 253.1 222.9ZM253.9 230C253.9 229.7 254.1 229.5 254.4 229.5C254.7 229.5 254.9 229.7 254.9 230C254.9 230.3 254.7 230.5 254.4 230.5C254.1 230.5 253.9 230.3 253.9 230ZM255.4 269.9C255.2 270.1 254.8 270.1 254.6 269.9C254.4 269.7 254.4 269.3 254.6 269.1C254.8 268.9 255.2 268.9 255.4 269.1C255.6 269.4 255.6 269.7 255.4 269.9ZM256.3 226.1C256 226.1 255.8 225.9 255.8 225.6C255.8 225.3 256 225.1 256.3 225.1C256.6 225.1 256.8 225.3 256.8 225.6C256.8 225.8 256.6 226.1 256.3 226.1ZM257.2 275.6C257 275.4 257 275 257.2 274.8C257.4 274.6 257.8 274.6 258 274.8C258.2 275 258.2 275.4 258 275.6C257.7 275.9 257.4 275.8 257.2 275.6ZM258.6 282.7C258.4 282.9 258 282.9 257.8 282.7C257.6 282.5 257.6 282.1 257.8 281.9C258 281.7 258.4 281.7 258.6 281.9C258.8 282.1 258.8 282.5 258.6 282.7ZM259.8 271.2C259.6 271.4 259.2 271.4 259 271.2C258.8 271 258.8 270.6 259 270.4C259.2 270.2 259.6 270.2 259.8 270.4C260 270.6 260.1 271 259.8 271.2ZM260.1 210.1C259.8 210.1 259.6 209.9 259.6 209.6C259.6 209.3 259.8 209.1 260.1 209.1C260.4 209.1 260.6 209.3 260.6 209.6C260.7 209.9 260.4 210.1 260.1 210.1ZM263 280.1C262.8 280.3 262.4 280.3 262.2 280.1C262 279.9 262 279.5 262.2 279.3C262.4 279.1 262.8 279.1 263 279.3C263.2 279.5 263.3 279.9 263 280.1ZM263.9 217.8C263.6 217.8 263.4 217.6 263.4 217.3C263.4 217 263.6 216.8 263.9 216.8C264.2 216.8 264.4 217 264.4 217.3C264.5 217.5 264.2 217.8 263.9 217.8ZM265.2 210.1C264.9 210.1 264.7 209.9 264.7 209.6C264.7 209.3 264.9 209.1 265.2 209.1C265.5 209.1 265.7 209.3 265.7 209.6C265.8 209.9 265.5 210.1 265.2 210.1ZM266.5 213.9C266.2 213.9 266 213.7 266 213.4C266 213.1 266.2 212.9 266.5 212.9C266.8 212.9 267 213.1 267 213.4C267 213.7 266.8 213.9 266.5 213.9ZM269 217.8C268.7 217.8 268.5 217.6 268.5 217.3C268.5 217 268.7 216.8 269 216.8C269.3 216.8 269.5 217 269.5 217.3C269.6 217.5 269.3 217.8 269 217.8ZM270.3 206.9C270 206.9 269.8 206.7 269.8 206.4C269.8 206.1 270 205.9 270.3 205.9C270.6 205.9 270.8 206.1 270.8 206.4C270.9 206.7 270.6 206.9 270.3 206.9ZM272.2 215.2C271.9 215.2 271.7 215 271.7 214.7C271.7 214.4 271.9 214.2 272.2 214.2C272.5 214.2 272.7 214.4 272.7 214.7C272.8 215 272.5 215.2 272.2 215.2ZM272.2 210.8C271.9 210.8 271.7 210.6 271.7 210.3C271.7 210 271.9 209.8 272.2 209.8C272.5 209.8 272.7 210 272.7 210.3C272.8 210.5 272.5 210.8 272.2 210.8ZM277.1 287.8C276.9 288 276.5 288 276.3 287.8C276.1 287.6 276.1 287.2 276.3 287C276.5 286.8 276.9 286.8 277.1 287C277.3 287.2 277.3 287.6 277.1 287.8ZM278.3 279.5C278.1 279.7 277.7 279.7 277.5 279.5C277.3 279.3 277.3 278.9 277.5 278.7C277.7 278.5 278.1 278.5 278.3 278.7C278.5 278.9 278.6 279.3 278.3 279.5ZM279.6 283.9C279.4 284.1 279 284.1 278.8 283.9C278.6 283.7 278.6 283.3 278.8 283.1C279 282.9 279.4 282.9 279.6 283.1C279.8 283.4 279.8 283.7 279.6 283.9ZM284.1 289C283.9 289.2 283.5 289.2 283.3 289C283.1 288.8 283.1 288.4 283.3 288.2C283.5 288 283.9 288 284.1 288.2C284.3 288.5 284.3 288.8 284.1 289ZM284.7 280.1C284.5 280.3 284.1 280.3 283.9 280.1C283.7 279.9 283.7 279.5 283.9 279.3C284.1 279.1 284.5 279.1 284.7 279.3C284.9 279.6 284.9 279.9 284.7 280.1ZM286 284.6C285.8 284.8 285.4 284.8 285.2 284.6C285 284.4 285 284 285.2 283.8C285.4 283.6 285.8 283.6 286 283.8C286.2 284 286.2 284.4 286 284.6ZM286 275.7C285.8 275.9 285.4 275.9 285.2 275.7C285 275.5 285 275.1 285.2 274.9C285.4 274.7 285.8 274.7 286 274.9C286.2 275.1 286.2 275.4 286 275.7ZM288.2 215.9C287.9 215.9 287.7 215.7 287.7 215.4C287.7 215.1 287.9 214.9 288.2 214.9C288.5 214.9 288.7 215.1 288.7 215.4C288.7 215.6 288.5 215.9 288.2 215.9ZM288.8 212C288.5 212 288.3 211.8 288.3 211.5C288.3 211.2 288.5 211 288.8 211C289.1 211 289.3 211.2 289.3 211.5C289.3 211.8 289.1 212 288.8 212ZM289.5 207.6C289.2 207.6 289 207.4 289 207.1C289 206.8 289.2 206.6 289.5 206.6C289.8 206.6 290 206.8 290 207.1C290 207.3 289.7 207.6 289.5 207.6ZM292.6 216.5C292.3 216.5 292.1 216.3 292.1 216C292.1 215.7 292.3 215.5 292.6 215.5C292.9 215.5 293.1 215.7 293.1 216C293.2 216.3 292.9 216.5 292.6 216.5ZM295.7 219.4C295.6 219.7 295.3 219.8 295 219.7C294.7 219.6 294.6 219.3 294.7 219C294.8 218.7 295.1 218.6 295.4 218.7C295.7 218.8 295.8 219.1 295.7 219.4ZM298.9 216.2C298.8 216.5 298.5 216.6 298.2 216.5C297.9 216.4 297.8 216.1 297.9 215.8C298 215.5 298.3 215.4 298.6 215.5C298.9 215.6 299 215.9 298.9 216.2ZM300.1 212.3C300 212.6 299.7 212.7 299.4 212.6C299.1 212.5 299 212.2 299.1 211.9C299.2 211.6 299.5 211.5 299.8 211.6C300.1 211.8 300.3 212.1 300.1 212.3ZM301.2 277.5C301 277.3 301 276.9 301.2 276.7C301.4 276.5 301.8 276.5 302 276.7C302.2 276.9 302.2 277.3 302 277.5C301.7 277.8 301.4 277.8 301.2 277.5ZM302.6 282C302.4 282.2 302 282.2 301.8 282C301.6 281.8 301.6 281.4 301.8 281.2C302 281 302.4 281 302.6 281.2C302.8 281.4 302.8 281.8 302.6 282ZM302.6 268C302.4 268.2 302 268.2 301.8 268C301.6 267.8 301.6 267.4 301.8 267.2C302 267 302.4 267 302.6 267.2C302.8 267.4 302.8 267.8 302.6 268ZM304.6 209.8C304.5 210.1 304.2 210.2 303.9 210.1C303.6 210 303.5 209.7 303.6 209.4C303.7 209.1 304 209 304.3 209.1C304.6 209.2 304.7 209.5 304.6 209.8ZM307.7 274.4C307.5 274.6 307.1 274.6 306.9 274.4C306.7 274.2 306.7 273.8 306.9 273.6C307.1 273.4 307.5 273.4 307.7 273.6C307.9 273.8 307.9 274.2 307.7 274.4ZM308.9 278.8C308.7 279 308.3 279 308.1 278.8C307.9 278.6 307.9 278.2 308.1 278C308.3 277.8 308.7 277.8 308.9 278C309.1 278.2 309.2 278.6 308.9 278.8ZM309.6 269.9C309.4 270.1 309 270.1 308.8 269.9C308.6 269.7 308.6 269.3 308.8 269.1C309 268.9 309.4 268.9 309.6 269.1C309.8 269.4 309.8 269.7 309.6 269.9ZM312.7 271.2C312.5 271 312.5 270.6 312.7 270.4C312.9 270.2 313.3 270.2 313.5 270.4C313.7 270.6 313.7 271 313.5 271.2C313.2 271.4 312.9 271.4 312.7 271.2Z" fill="#474747"/>
<path id="XMLID 82" d="M308.1 203.4C310.3 203.4 319.7 210.9 321.5 213C323.3 215.1 322.2 215.5 322.5 217.4C322.7 219.3 324.3 220.3 324.5 220.7C324.7 221.1 324.7 227.5 324.7 227.5L326.5 230.3V230.8L331.3 233.6L333 238.2C333 238.2 328.9 244.8 328.4 246.1C327.9 247.4 331.6 253.4 331.6 254.3C331.7 255.2 330.9 257.4 331.2 258.6C331.6 259.8 333 261.5 333 261.5L332.3 265.4L326.4 273.9C326.4 273.9 323.7 277.6 323.2 278C322.7 278.4 321.8 278.5 321.8 278.5C320.6 280.5 319.2 278.9 319.2 277.9C319.2 276.9 319.9 277.2 319.9 277.2L317.8 271.9C317.8 271.9 318.2 269.7 318.4 269.6C318.6 269.4 320.3 263.6 317 259.5C313.7 255.4 316.4 251.5 316.4 248.3C316.2 239.1 312.9 234 310.8 230.6C308.7 227.2 309.2 226.7 309.7 224.1C310.2 221.5 308.2 218.5 308.2 218.5L304.7 210.2L304.4 206.8L305 204.6C305.8 204.3 306 203.4 306 203.4H308.1V203.4Z" fill="#9B3B3B"/>
<path id="XMLID 86" d="M308.7 210.4L319.7 221.1C319.7 221.1 325.3 234.5 326.1 239.4C327 244.3 327.5 257 327.5 257L325.2 264.2L323.4 266L318.3 262.2C318.3 262.2 314.8 258 315.2 254.9C315.7 251.8 317.4 248.5 315.1 241.9C312.8 235.3 308.7 228.3 308.7 228.3C308.7 228.3 309.4 224.7 309 222.5C308.6 220.3 306.7 213.1 306.7 213.1L308.3 210.5H308.7V210.4Z" fill="#FF5752"/>
<path id="XMLID 79" d="M282.1 182.4C246.7 182.4 217.9 211.1 217.9 246.6C217.9 282.1 246.6 310.8 282.1 310.8C317.6 310.8 346.3 282.1 346.3 246.6C346.3 211.1 317.6 182.4 282.1 182.4ZM338.6 231C338.6 231 317.9 233.8 313.2 234.3C308.5 234.9 307.7 233.9 305.6 231.4C303.5 229 305.8 225.3 305.8 225.3L321.9 203.2C336 216.4 338.6 231 338.6 231ZM277.4 188C277.4 188 276.3 208.9 276 213.6C275.7 218.3 274.6 218.9 271.8 220.5C269 222.1 265.8 219.1 265.8 219.1L247 199.3C262.5 187.9 277.4 188 277.4 188ZM241.9 204.5C241.9 204.5 254.2 221.4 256.9 225.3C259.6 229.2 259.1 230.4 258 233.3C256.8 236.3 252.5 236 252.5 236L225.4 232.3C230.3 213.7 241.9 204.5 241.9 204.5ZM224.1 240C224.1 240 244.4 245.1 248.9 246.3C253.5 247.5 253.9 248.7 254.9 251.8C255.9 254.8 252.4 257.4 252.4 257.4L229.3 271.9C221.1 254.6 224.1 240 224.1 240ZM233.3 279.5C233.3 279.5 251.9 269.9 256.1 267.8C260.3 265.7 261.4 266.3 264.2 267.9C267 269.5 266.1 273.7 266.1 273.7L258.4 299.9C240.7 292.3 233.3 279.5 233.3 279.5ZM265.9 302.8C265.9 302.8 274.1 283.5 276 279.2C277.9 274.9 279.2 274.7 282.3 274.1C285.5 273.6 287.5 277.4 287.5 277.4L298.3 302.5C279.8 308 265.9 302.8 265.9 302.8ZM290.6 220.4C287.4 219.9 286.8 215.6 286.8 215.6L285 188.3C304.2 189.3 315.6 198.8 315.6 198.8C315.6 198.8 301.5 214.2 298.3 217.7C295.1 221.1 293.8 220.9 290.6 220.4ZM306.7 299.9C306.7 299.9 300.4 280 299 275.5C297.6 271 298.5 270 300.5 267.5C302.5 265 306.6 266.7 306.6 266.7L331.1 278.7C320.7 294.8 306.7 299.9 306.7 299.9ZM313.3 257.5C309.3 255 309.3 253.7 309.2 250.5C309.1 247.3 313.3 245.9 313.3 245.9L339.7 239C342.3 258 335 271 335 271C335 271 317.3 260 313.3 257.5Z" fill="#B7B7B7"/>
<path id="XMLID 71" d="M281.8 268.2C294.337 268.2 304.5 258.037 304.5 245.5C304.5 232.963 294.337 222.8 281.8 222.8C269.263 222.8 259.1 232.963 259.1 245.5C259.1 258.037 269.263 268.2 281.8 268.2Z" fill="black"/>
<path id="XMLID 72" d="M281.8 253.7C286.329 253.7 290 250.029 290 245.5C290 240.971 286.329 237.3 281.8 237.3C277.271 237.3 273.6 240.971 273.6 245.5C273.6 250.029 277.271 253.7 281.8 253.7Z" fill="#B7B7B7"/>
</g>
<g id="car-body">
<path id="XMLID 120" d="M441.6 247.3C441.6 247.3 438.1 244.7 439.9 240.6C441.7 236.4 448.8 201.6 443.8 186.3C439.5 179.5 433.9 176.3 433.9 176.3L433.2 167.1C433.2 167.1 428.2 150.9 401.9 136.9C375.6 122.9 338.2 106.7 266.6 99.7C195 92.7 198.8 95.4 198.8 95.4C198.8 95.4 151.5 66.2 115.1 49.1C78.8 31.9 52.8 17.6 32.9 13.1C24.8 11.2 18.7 9.9 14.4 9V272.3L194.6 272C194.6 272 194.6 271.4 194.6 272.4H205.2C201.8 262.4 199.9 253.2 199.9 243C199.9 197.7 236.6 160.8 281.9 160.8C327.2 160.8 363.9 197.4 363.9 242.7C363.9 249.3 363.1 255.7 361.6 261.8L362.4 261.7C369.1 261.5 418.3 260 433.6 255.5C450.2 250.7 441.6 247.3 441.6 247.3Z" fill="#768CA5"/>
<path id="XMLID 95" d="M205.3 272.4C201.9 262.4 200 253.2 200 243C200 197.7 236.7 160.8 282 160.8C327.3 160.8 364 197.4 364 242.7C364 249.3 363.2 255.7 361.7 261.8L372.1 261.3C373.3 255.3 374 249 374 242.6C374 191.9 332.7 150.6 282 150.6C231.3 150.6 190 192.3 190 243C190 253.1 191.6 262.4 194.7 272.4H205.3Z" fill="#1A3F69"/>
<path id="XMLID 91" d="M198.2 95.6C198.2 95.6 220.2 117.8 239 119.3C257.8 120.8 284.3 122.5 308.7 127.3C333.1 132.1 365.4 140.8 365.4 140.8C365.4 140.8 369.4 138.8 372.9 139.1C376.4 139.4 315.7 118.6 271.7 118.2C227.7 117.7 221.6 110.7 198.2 95.6Z" fill="#1A3F69"/>
<path id="XMLID 102" d="M433.4 167.1V176.1L393 177.5C393 177.5 391 178.8 381.4 171.5C371.8 164.2 359.7 154.2 357.1 150.5C354.5 146.8 362.6 141.7 364.8 140.7C367 139.7 369.7 139.4 369.7 139.4L433.4 167.1Z" fill="#232323"/>
<path id="XMLID 100" d="M433.4 167.1C433.4 167.1 431.5 154.4 411.8 148.8C392.1 143.1 370.8 137.1 367.9 140.3C365.1 143.5 361 145.1 365.1 149.8C369.3 154.5 383.7 167.6 383.7 167.6L433.4 167.1Z" fill="#D1D9E1"/>
<path id="XMLID 104" d="M395.4 218.4H426.4C426.4 218.4 424.2 230.9 430.1 236.6C435.9 242.3 439.1 242.2 439.1 242.2L441.6 247.5H412.4C412.4 247.5 398.9 249 397.1 241C395.2 232.9 393.9 225.4 395.4 218.4Z" fill="black"/>
<path id="XMLID 118" d="M14.4 98.5L191.7 112.3C191.7 112.3 101.4 55.8 68.7 44.5C46.5 36.9 25.6 30.5 14.5 27.2V98.5H14.4Z" fill="#D1D9E1"/>
<path id="XMLID 115" d="M171.9 251.4C171.9 251.4 180.3 213.5 182.3 186C184.3 158.5 173.2 113 173.2 113L199.8 115.6C199.8 115.6 112.9 54.5 44.7 32.8C34.8 29.6 24.6 26.9 14.3 24.6V29.7C83.3 45.4 183.9 109.7 183.9 109.7L14.4 95.9V100.9C44.2 102 167.8 112.8 167.8 112.8C167.8 112.8 173.8 130.6 177.1 168.8C180.4 207 166.4 250.3 166.4 250.3L14.4 248.2V252.7L191.6 255.2L190.7 251.4H171.9Z" fill="#1A3F69"/>
<path id="XMLID 101" d="M164.9 95.6L191.7 112.4L142.7 108.6C142.7 108.6 140.4 106.1 139.4 102.6C138.4 99.1 140.2 97.6 132.4 97.6C124.6 97.6 116.4 96.6 116.4 85.6C116.4 81.6 132.7 70.8 132.7 70.8C132.7 70.8 152.2 78.3 157.7 83.3C163.2 88.3 165.9 89.8 164.9 95.6Z" fill="#232323"/>
</g>
</g>
</svg>
