<svg width="477" height="433" viewBox="0 0 477 433" fill="none" xmlns="http://www.w3.org/2000/svg">
<g id="car_new 1">
<g id="static">
<path id="XMLID 235" d="M378.4 255.2L400.1 215.2L358.1 185.1L247.6 171L204 201.7L210.5 250.1L204 264.1L206.6 269.7L219.5 289L357 290.9L375.3 273L379.7 272.6L378.4 255.2Z" fill="#232323"/>
</g>
<g id="wheel">
<path id="XMLID 134" d="M290.5 356.2C330.817 356.2 363.5 323.517 363.5 283.2C363.5 242.883 330.817 210.2 290.5 210.2C250.183 210.2 217.5 242.883 217.5 283.2C217.5 323.517 250.183 356.2 290.5 356.2Z" fill="black"/>
<path id="XMLID 131" d="M303.5 244.8C303.776 244.8 304 244.576 304 244.3C304 244.024 303.776 243.8 303.5 243.8C303.224 243.8 303 244.024 303 244.3C303 244.576 303.224 244.8 303.5 244.8Z" stroke="#FF0000" stroke-miterlimit="10"/>
<path id="XMLID 129" d="M302.9 249.2C303.176 249.2 303.4 248.976 303.4 248.7C303.4 248.424 303.176 248.2 302.9 248.2C302.624 248.2 302.4 248.424 302.4 248.7C302.4 248.976 302.624 249.2 302.9 249.2Z" stroke="#FF0000" stroke-miterlimit="10"/>
<path id="XMLID 123" d="M290.2 224.4C257.8 224.4 231.5 250.7 231.5 283.1C231.5 315.5 257.8 341.8 290.2 341.8C322.6 341.8 348.9 315.5 348.9 283.1C348.9 250.7 322.6 224.4 290.2 224.4ZM290.2 336.8C260.6 336.8 236.6 312.7 236.6 283.2C236.6 253.7 260.7 229.6 290.2 229.6C319.7 229.6 343.8 253.7 343.8 283.2C343.8 312.7 319.7 336.8 290.2 336.8Z" fill="#2D2D2D"/>
<path id="XMLID 103" d="M289.4 237.4C264.7 237.4 244.8 257.4 244.8 282C244.8 306.7 264.8 326.6 289.4 326.6C314.1 326.6 334 306.6 334 282C334 257.3 314 237.4 289.4 237.4ZM258.9 264.1C259.2 264.1 259.4 264.3 259.4 264.6C259.4 264.9 259.2 265.1 258.9 265.1C258.6 265.1 258.4 264.9 258.4 264.6C258.3 264.4 258.6 264.1 258.9 264.1ZM249 291.8C248.8 292 248.4 292 248.2 291.8C248 291.6 248 291.2 248.2 291C248.4 290.8 248.8 290.8 249 291C249.3 291.3 249.3 291.6 249 291.8ZM250.3 298.2C250.1 298.4 249.7 298.4 249.5 298.2C249.3 298 249.3 297.6 249.5 297.4C249.7 297.2 250.1 297.2 250.3 297.4C250.5 297.7 250.5 298 250.3 298.2ZM250.3 286.7C250.1 286.9 249.7 286.9 249.5 286.7C249.3 286.5 249.3 286.1 249.5 285.9C249.7 285.7 250.1 285.7 250.3 285.9C250.5 286.2 250.5 286.5 250.3 286.7ZM251.2 265.8C250.9 265.8 250.7 265.6 250.7 265.3C250.7 265 250.9 264.8 251.2 264.8C251.5 264.8 251.7 265 251.7 265.3C251.8 265.6 251.5 265.8 251.2 265.8ZM253.5 292.5C253.3 292.7 252.9 292.7 252.7 292.5C252.5 292.3 252.5 291.9 252.7 291.7C252.9 291.5 253.3 291.5 253.5 291.7C253.7 291.9 253.7 292.3 253.5 292.5ZM254.8 286.7C254.6 286.9 254.2 286.9 254 286.7C253.8 286.5 253.8 286.1 254 285.9C254.2 285.7 254.6 285.7 254.8 285.9C255 286.2 255 286.5 254.8 286.7ZM254.4 269.7C254.1 269.7 253.9 269.5 253.9 269.2C253.9 268.9 254.1 268.7 254.4 268.7C254.7 268.7 254.9 268.9 254.9 269.2C254.9 269.4 254.7 269.7 254.4 269.7ZM255.1 262.7C254.8 262.7 254.6 262.5 254.6 262.2C254.6 261.9 254.8 261.7 255.1 261.7C255.4 261.7 255.6 261.9 255.6 262.2C255.6 262.4 255.3 262.7 255.1 262.7ZM257.3 289.9C257.1 290.1 256.7 290.1 256.5 289.9C256.3 289.7 256.3 289.3 256.5 289.1C256.7 288.9 257.1 288.9 257.3 289.1C257.5 289.3 257.5 289.7 257.3 289.9ZM257.1 257C257.1 256.7 257.3 256.5 257.6 256.5C257.9 256.5 258.1 256.7 258.1 257C258.1 257.3 257.9 257.5 257.6 257.5C257.3 257.6 257.1 257.3 257.1 257ZM258.6 285.5C258.4 285.7 258 285.7 257.8 285.5C257.6 285.3 257.6 284.9 257.8 284.7C258 284.5 258.4 284.5 258.6 284.7C258.8 284.9 258.8 285.3 258.6 285.5ZM258.5 269.5C258.3 269.3 258.3 268.9 258.5 268.7C258.7 268.5 259.1 268.5 259.3 268.7C259.5 268.9 259.5 269.3 259.3 269.5C259 269.7 258.7 269.7 258.5 269.5ZM259.9 309.1C259.7 309.3 259.3 309.3 259.1 309.1C258.9 308.9 258.9 308.5 259.1 308.3C259.3 308.1 259.7 308.1 259.9 308.3C260.1 308.5 260.1 308.9 259.9 309.1ZM261.8 314.2C261.6 314.4 261.2 314.4 261 314.2C260.8 314 260.8 313.6 261 313.4C261.2 313.2 261.6 313.2 261.8 313.4C262 313.6 262 314 261.8 314.2ZM261.4 259.5C261.1 259.5 260.9 259.3 260.9 259C260.9 258.7 261.1 258.5 261.4 258.5C261.7 258.5 261.9 258.7 261.9 259C262 259.2 261.7 259.5 261.4 259.5ZM262.2 266.6C262.2 266.3 262.4 266.1 262.7 266.1C263 266.1 263.2 266.3 263.2 266.6C263.2 266.9 263 267.1 262.7 267.1C262.4 267.1 262.2 266.9 262.2 266.6ZM263.7 306.5C263.5 306.7 263.1 306.7 262.9 306.5C262.7 306.3 262.7 305.9 262.9 305.7C263.1 305.5 263.5 305.5 263.7 305.7C263.9 306 263.9 306.3 263.7 306.5ZM264.6 262.7C264.3 262.7 264.1 262.5 264.1 262.2C264.1 261.9 264.3 261.7 264.6 261.7C264.9 261.7 265.1 261.9 265.1 262.2C265.2 262.4 264.9 262.7 264.6 262.7ZM265.5 312.2C265.3 312 265.3 311.6 265.5 311.4C265.7 311.2 266.1 311.2 266.3 311.4C266.5 311.6 266.5 312 266.3 312.2C266 312.4 265.7 312.4 265.5 312.2ZM266.9 319.3C266.7 319.5 266.3 319.5 266.1 319.3C265.9 319.1 265.9 318.7 266.1 318.5C266.3 318.3 266.7 318.3 266.9 318.5C267.1 318.7 267.1 319.1 266.9 319.3ZM268.2 307.8C268 308 267.6 308 267.4 307.8C267.2 307.6 267.2 307.2 267.4 307C267.6 306.8 268 306.8 268.2 307C268.4 307.2 268.4 307.6 268.2 307.8ZM268.4 246.7C268.1 246.7 267.9 246.5 267.9 246.2C267.9 245.9 268.1 245.7 268.4 245.7C268.7 245.7 268.9 245.9 268.9 246.2C269 246.5 268.7 246.7 268.4 246.7ZM271.4 316.7C271.2 316.9 270.8 316.9 270.6 316.7C270.4 316.5 270.4 316.1 270.6 315.9C270.8 315.7 271.2 315.7 271.4 315.9C271.6 316.2 271.6 316.5 271.4 316.7ZM272.3 254.4C272 254.4 271.8 254.2 271.8 253.9C271.8 253.6 272 253.4 272.3 253.4C272.6 253.4 272.8 253.6 272.8 253.9C272.8 254.1 272.6 254.4 272.3 254.4ZM273.5 246.7C273.2 246.7 273 246.5 273 246.2C273 245.9 273.2 245.7 273.5 245.7C273.8 245.7 274 245.9 274 246.2C274.1 246.5 273.8 246.7 273.5 246.7ZM274.8 250.5C274.5 250.5 274.3 250.3 274.3 250C274.3 249.7 274.5 249.5 274.8 249.5C275.1 249.5 275.3 249.7 275.3 250C275.4 250.3 275.1 250.5 274.8 250.5ZM277.4 254.4C277.1 254.4 276.9 254.2 276.9 253.9C276.9 253.6 277.1 253.4 277.4 253.4C277.7 253.4 277.9 253.6 277.9 253.9C277.9 254.1 277.7 254.4 277.4 254.4ZM278.6 243.5C278.3 243.5 278.1 243.3 278.1 243C278.1 242.7 278.3 242.5 278.6 242.5C278.9 242.5 279.1 242.7 279.1 243C279.2 243.3 278.9 243.5 278.6 243.5ZM280.6 251.8C280.3 251.8 280.1 251.6 280.1 251.3C280.1 251 280.3 250.8 280.6 250.8C280.9 250.8 281.1 251 281.1 251.3C281.1 251.6 280.9 251.8 280.6 251.8ZM280.6 247.4C280.3 247.4 280.1 247.2 280.1 246.9C280.1 246.6 280.3 246.4 280.6 246.4C280.9 246.4 281.1 246.6 281.1 246.9C281.1 247.1 280.9 247.4 280.6 247.4ZM285.4 324.4C285.2 324.6 284.8 324.6 284.6 324.4C284.4 324.2 284.4 323.8 284.6 323.6C284.8 323.4 285.2 323.4 285.4 323.6C285.6 323.8 285.6 324.2 285.4 324.4ZM286.7 316.1C286.5 316.3 286.1 316.3 285.9 316.1C285.7 315.9 285.7 315.5 285.9 315.3C286.1 315.1 286.5 315.1 286.7 315.3C286.9 315.5 286.9 315.9 286.7 316.1ZM287.9 320.5C287.7 320.7 287.3 320.7 287.1 320.5C286.9 320.3 286.9 319.9 287.1 319.7C287.3 319.5 287.7 319.5 287.9 319.7C288.1 319.9 288.2 320.3 287.9 320.5ZM292.4 325.6C292.2 325.8 291.8 325.8 291.6 325.6C291.4 325.4 291.4 325 291.6 324.8C291.8 324.6 292.2 324.6 292.4 324.8C292.6 325.1 292.6 325.4 292.4 325.6ZM293 316.7C292.8 316.9 292.4 316.9 292.2 316.7C292 316.5 292 316.1 292.2 315.9C292.4 315.7 292.8 315.7 293 315.9C293.2 316.1 293.3 316.5 293 316.7ZM294.3 321.2C294.1 321.4 293.7 321.4 293.5 321.2C293.3 321 293.3 320.6 293.5 320.4C293.7 320.2 294.1 320.2 294.3 320.4C294.5 320.6 294.5 321 294.3 321.2ZM294.3 312.2C294.1 312.4 293.7 312.4 293.5 312.2C293.3 312 293.3 311.6 293.5 311.4C293.7 311.2 294.1 311.2 294.3 311.4C294.5 311.7 294.5 312 294.3 312.2ZM296.5 252.5C296.2 252.5 296 252.3 296 252C296 251.7 296.2 251.5 296.5 251.5C296.8 251.5 297 251.7 297 252C297 252.2 296.8 252.5 296.5 252.5ZM297.1 248.6C296.8 248.6 296.6 248.4 296.6 248.1C296.6 247.8 296.8 247.6 297.1 247.6C297.4 247.6 297.6 247.8 297.6 248.1C297.7 248.4 297.4 248.6 297.1 248.6ZM297.8 244.2C297.5 244.2 297.3 244 297.3 243.7C297.3 243.4 297.5 243.2 297.8 243.2C298.1 243.2 298.3 243.4 298.3 243.7C298.3 243.9 298.1 244.2 297.8 244.2ZM301 253.1C300.7 253.1 300.5 252.9 300.5 252.6C300.5 252.3 300.7 252.1 301 252.1C301.3 252.1 301.5 252.3 301.5 252.6C301.5 252.9 301.3 253.1 301 253.1ZM304 255.9C303.9 256.2 303.6 256.3 303.3 256.2C303 256.1 302.9 255.8 303 255.5C303.1 255.2 303.4 255.1 303.7 255.2C304 255.4 304.1 255.7 304 255.9ZM307.2 252.8C307.1 253.1 306.8 253.2 306.5 253.1C306.2 253 306.1 252.7 306.2 252.4C306.3 252.1 306.6 252 306.9 252.1C307.2 252.2 307.3 252.5 307.2 252.8ZM308.5 248.9C308.4 249.2 308.1 249.3 307.8 249.2C307.5 249.1 307.4 248.8 307.5 248.5C307.6 248.2 307.9 248.1 308.2 248.2C308.5 248.4 308.6 248.7 308.5 248.9ZM309.5 314.1C309.3 313.9 309.3 313.5 309.5 313.3C309.7 313.1 310.1 313.1 310.3 313.3C310.5 313.5 310.5 313.9 310.3 314.1C310 314.4 309.7 314.4 309.5 314.1ZM310.9 318.6C310.7 318.8 310.3 318.8 310.1 318.6C309.9 318.4 309.9 318 310.1 317.8C310.3 317.6 310.7 317.6 310.9 317.8C311.1 318.1 311.1 318.4 310.9 318.6ZM310.9 304.6C310.7 304.8 310.3 304.8 310.1 304.6C309.9 304.4 309.9 304 310.1 303.8C310.3 303.6 310.7 303.6 310.9 303.8C311.1 304.1 311.1 304.4 310.9 304.6ZM312.9 246.4C312.8 246.7 312.5 246.8 312.2 246.7C311.9 246.6 311.8 246.3 311.9 246C312 245.7 312.3 245.6 312.6 245.7C312.9 245.8 313 246.1 312.9 246.4ZM316 311C315.8 311.2 315.4 311.2 315.2 311C315 310.8 315 310.4 315.2 310.2C315.4 310 315.8 310 316 310.2C316.2 310.4 316.2 310.8 316 311ZM317.3 315.4C317.1 315.6 316.7 315.6 316.5 315.4C316.3 315.2 316.3 314.8 316.5 314.6C316.7 314.4 317.1 314.4 317.3 314.6C317.5 314.9 317.5 315.2 317.3 315.4ZM317.9 306.5C317.7 306.7 317.3 306.7 317.1 306.5C316.9 306.3 316.9 305.9 317.1 305.7C317.3 305.5 317.7 305.5 317.9 305.7C318.1 306 318.1 306.3 317.9 306.5ZM321 307.8C320.8 307.6 320.8 307.2 321 307C321.2 306.8 321.6 306.8 321.8 307C322 307.2 322 307.6 321.8 307.8C321.5 308 321.2 308 321 307.8Z" fill="#474747"/>
<path id="XMLID 99" d="M316.4 240C318.6 240 328 247.5 329.8 249.6C331.6 251.7 330.5 252.1 330.8 254C331 255.9 332.6 256.9 332.8 257.3C333 257.7 333.2 264.1 333.2 264.1L335.1 266.9V267.4L339.8 270.2L341.5 274.8C341.5 274.8 337.4 281.4 336.8 282.7C336.2 284 340 290 340 290.9C340 291.8 339.2 294 339.6 295.2C340 296.4 341.3 298.1 341.3 298.1L340.6 302L334.7 310.5C334.7 310.5 332 314.2 331.5 314.6C331 315 330.1 315.1 330.1 315.1C328.9 317.1 327.5 315.5 327.5 314.5C327.5 313.5 328.2 313.8 328.2 313.8L326.1 308.5C326.1 308.5 326.5 306.3 326.7 306.2C326.9 306.1 328.6 300.2 325.3 296.1C322 292 324.7 288.1 324.7 284.9C324.5 275.7 321.2 270.6 319.1 267.2C317 263.9 317.5 263.3 318 260.7C318.5 258.1 316.5 255.1 316.5 255.1L313 246.8L312.7 243.4L313.3 241.2C314.1 240.9 314.3 240 314.3 240H316.4Z" fill="#9B3B3B"/>
<path id="XMLID 98" d="M317.1 247L328.1 257.7C328.1 257.7 333.7 271.1 334.5 276C335.4 280.9 335.9 293.6 335.9 293.6L333.6 300.8L331.8 302.6L326.7 298.8C326.7 298.8 323.2 294.6 323.6 291.5C324.1 288.4 325.8 285.1 323.5 278.5C321.2 271.9 317.1 264.9 317.1 264.9C317.1 264.9 317.8 261.3 317.4 259.1C317 256.9 315.1 249.7 315.1 249.7L316.7 247.1H317.1V247Z" fill="#FF5752"/>
<path id="XMLID 16" d="M290.5 219C255.1 219 226.3 247.7 226.3 283.2C226.3 318.7 255 347.4 290.5 347.4C326 347.4 354.7 318.7 354.7 283.2C354.7 247.7 325.9 219 290.5 219ZM346.9 267.6C346.9 267.6 326.2 270.4 321.5 270.9C316.8 271.5 316 270.5 313.9 268C311.8 265.6 314.1 261.9 314.1 261.9L330.2 239.8C344.3 253 346.9 267.6 346.9 267.6ZM285.7 224.6C285.7 224.6 284.6 245.5 284.3 250.2C284 254.9 282.9 255.5 280.1 257.1C277.3 258.7 274.1 255.7 274.1 255.7L255.4 235.8C270.8 224.5 285.7 224.6 285.7 224.6ZM250.2 241.1C250.2 241.1 262.5 258 265.2 261.9C267.9 265.8 267.4 267 266.3 269.9C265.1 272.9 260.8 272.6 260.8 272.6L233.7 268.9C238.6 250.3 250.2 241.1 250.2 241.1ZM232.4 276.6C232.4 276.6 252.7 281.7 257.2 282.9C261.8 284.1 262.2 285.3 263.2 288.4C264.2 291.4 260.7 294 260.7 294L237.6 308.5C229.4 291.2 232.4 276.6 232.4 276.6ZM241.6 316.1C241.6 316.1 260.2 306.5 264.4 304.4C268.6 302.3 269.7 302.9 272.5 304.5C275.3 306.1 274.4 310.3 274.4 310.3L266.7 336.5C249 328.9 241.6 316.1 241.6 316.1ZM274.2 339.4C274.2 339.4 282.4 320.1 284.3 315.8C286.2 311.5 287.5 311.3 290.6 310.7C293.8 310.2 295.8 314 295.8 314L306.6 339.1C288.1 344.6 274.2 339.4 274.2 339.4ZM299 257C295.8 256.5 295.2 252.2 295.2 252.2L293.4 224.9C312.6 225.9 324 235.4 324 235.4C324 235.4 309.9 250.8 306.7 254.3C303.4 257.7 302.1 257.5 299 257ZM315.1 336.5C315.1 336.5 308.8 316.6 307.4 312.1C306 307.6 306.9 306.6 308.9 304.1C310.9 301.6 315 303.3 315 303.3L339.5 315.3C329 331.4 315.1 336.5 315.1 336.5ZM321.6 294.1C317.6 291.6 317.6 290.3 317.5 287.1C317.4 283.9 321.6 282.5 321.6 282.5L348 275.6C350.6 294.6 343.3 307.6 343.3 307.6C343.3 307.6 325.6 296.6 321.6 294.1Z" fill="#B7B7B7"/>
<path id="XMLID 71" d="M290.1 304.8C302.637 304.8 312.8 294.637 312.8 282.1C312.8 269.563 302.637 259.4 290.1 259.4C277.563 259.4 267.4 269.563 267.4 282.1C267.4 294.637 277.563 304.8 290.1 304.8Z" fill="black"/>
<path id="XMLID 15" d="M290.1 290.3C294.629 290.3 298.3 286.629 298.3 282.1C298.3 277.571 294.629 273.9 290.1 273.9C285.571 273.9 281.9 277.571 281.9 282.1C281.9 286.629 285.571 290.3 290.1 290.3Z" fill="#B7B7B7"/>
</g>
<g id="car-body">
<path id="XMLID 120" d="M449.9 283.9C449.9 283.9 446.4 281.3 448.2 277.2C450 273 457.1 238.2 452.1 222.9C447.8 216.1 442.2 212.9 442.2 212.9L441.5 203.7C441.5 203.7 436.5 187.5 410.2 173.5C383.9 159.5 346.5 143.3 274.9 136.3C203.2 129.3 207.1 132 207.1 132C207.1 132 159.8 102.8 123.4 85.7C87.1 68.5 61.2 54.2 41.4 49.7C33.3 47.8 27 46.5 23 45.6V308.9L203.1 308.6C203.1 308.6 203 308 203 309H213.6C210.2 299 208.3 289.8 208.3 279.6C208.3 234.3 245 197.4 290.3 197.4C335.6 197.4 372.3 234 372.3 279.3C372.3 285.9 371.5 292.3 370 298.4L370.8 298.3C377.5 298.1 426.7 296.6 442 292.1C458.6 287.3 449.9 283.9 449.9 283.9Z" fill="#768CA5"/>
<path id="XMLID 95" d="M213.6 309C210.2 299 208.3 289.8 208.3 279.6C208.3 234.3 245 197.4 290.3 197.4C335.6 197.4 372.3 234 372.3 279.3C372.3 285.9 371.5 292.3 370 298.4L380.4 297.9C381.6 291.9 382.3 285.6 382.3 279.2C382.3 228.5 341 187.2 290.3 187.2C239.6 187.2 198.3 228.9 198.3 279.6C198.3 289.7 199.9 299 203 309H213.6V309Z" fill="#1A3F69"/>
<path id="XMLID 91" d="M206.6 132.2C206.6 132.2 228.6 154.4 247.4 155.9C266.2 157.4 292.7 159.1 317.1 163.9C341.4 168.7 373.8 177.4 373.8 177.4C373.8 177.4 377.8 175.4 381.3 175.7C384.8 176 324.1 155.2 280.1 154.8C236.1 154.3 229.9 147.3 206.6 132.2Z" fill="#1A3F69"/>
<path id="XMLID 102" d="M442 203.7V212.7L401.5 214.1C401.5 214.1 399.4 215.4 389.8 208.1C380.2 200.8 368.1 190.8 365.5 187.1C362.9 183.4 371 178.3 373.1 177.3C375.2 176.3 378.1 176 378.1 176L442 203.7Z" fill="#232323"/>
<path id="XMLID 100" d="M441.7 203.7C441.7 203.7 439.8 191 420.1 185.4C400.4 179.7 379.1 173.7 376.2 176.9C373.4 180.1 369.3 181.7 373.4 186.4C377.6 191.1 392 204.2 392 204.2L441.7 203.7Z" fill="#D1D9E1"/>
<path id="XMLID 104" d="M403.7 255H434.7C434.7 255 432.5 267.5 438.4 273.2C444.2 278.9 447.4 278.8 447.4 278.8L449.9 284.1H420.7C420.7 284.1 407.2 285.6 405.4 277.6C403.6 269.6 402.2 262 403.7 255Z" fill="black"/>
<path id="XMLID 118" d="M23 135.1L200.1 148.9C200.1 148.9 109.9 92.4 77.2 81.1C55 73.6 34 67.2 23 63.9V135.1Z" fill="#D1D9E1"/>
<path id="XMLID 115" d="M180.2 288C180.2 288 188.6 250.1 190.6 222.6C192.6 195.1 181.5 149.6 181.5 149.6L208.1 152.2C208.1 152.2 121.4 91.1 53.1 69.4C43.3 66.3 33 63.6 23 61.3V66.4C92 82.1 192.6 146.4 192.6 146.4L23 132.5V137.5C52 138.6 176.3 149.4 176.3 149.4C176.3 149.4 182.3 167.2 185.5 205.4C188.7 243.6 174.9 286.9 174.9 286.9L23 284.8V289.3L200 291.8L199 288H180.2Z" fill="#1A3F69"/>
<path id="XMLID 101" d="M173.2 132.2L200 149L151 145.2C151 145.2 148.7 142.7 147.7 139.2C146.7 135.7 148.5 134.2 140.7 134.2C132.9 134.2 124.7 133.2 124.7 122.2C124.7 118.2 140.9 107.4 140.9 107.4C140.9 107.4 160.4 114.9 165.9 119.9C171.4 124.9 174.2 126.4 173.2 132.2Z" fill="#232323"/>
</g>
</g>
</svg>
