<svg width="328" height="433" viewBox="0 0 328 433" fill="none" xmlns="http://www.w3.org/2000/svg">
<g id="car_zoom 1">
<g id="static">
<path id="XMLID 235" d="M240.4 255.2L262.1 215.2L220.1 185.1L109.7 171L66 201.7L72.5 250.1L66 264.1L68.6 269.7L81.5 289L219 290.9L237.4 273L241.8 272.6L240.4 255.2Z" fill="#232323"/>
</g>
<g id="wheel">
<path id="XMLID 134" d="M152.5 356.2C192.817 356.2 225.5 323.517 225.5 283.2C225.5 242.883 192.817 210.2 152.5 210.2C112.183 210.2 79.5 242.883 79.5 283.2C79.5 323.517 112.183 356.2 152.5 356.2Z" fill="black"/>
<path id="XMLID 131" d="M165.6 244.8C165.876 244.8 166.1 244.576 166.1 244.3C166.1 244.024 165.876 243.8 165.6 243.8C165.324 243.8 165.1 244.024 165.1 244.3C165.1 244.576 165.324 244.8 165.6 244.8Z" stroke="#FF0000" stroke-miterlimit="10"/>
<path id="XMLID 129" d="M164.9 249.2C165.176 249.2 165.4 248.976 165.4 248.7C165.4 248.424 165.176 248.2 164.9 248.2C164.624 248.2 164.4 248.424 164.4 248.7C164.4 248.976 164.624 249.2 164.9 249.2Z" stroke="#FF0000" stroke-miterlimit="10"/>
<path id="XMLID 123" d="M152.2 224.4C119.8 224.4 93.5 250.7 93.5 283.1C93.5 315.5 119.8 341.8 152.2 341.8C184.6 341.8 210.9 315.5 210.9 283.1C211 250.7 184.7 224.4 152.2 224.4ZM152.2 336.8C122.6 336.8 98.6 312.7 98.6 283.2C98.6 253.7 122.7 229.6 152.2 229.6C181.7 229.6 205.8 253.7 205.8 283.2C205.8 312.7 181.8 336.8 152.2 336.8Z" fill="#2D2D2D"/>
<path id="XMLID 103" d="M151.4 237.4C126.7 237.4 106.8 257.4 106.8 282C106.8 306.7 126.8 326.6 151.4 326.6C176 326.6 196 306.6 196 282C196 257.3 176.1 237.4 151.4 237.4ZM120.9 264.1C121.2 264.1 121.4 264.3 121.4 264.6C121.4 264.9 121.2 265.1 120.9 265.1C120.6 265.1 120.4 264.9 120.4 264.6C120.4 264.4 120.6 264.1 120.9 264.1ZM111.1 291.8C110.9 292 110.5 292 110.3 291.8C110.1 291.6 110.1 291.2 110.3 291C110.5 290.8 110.9 290.8 111.1 291C111.3 291.2 111.3 291.6 111.1 291.8ZM112.4 298.2C112.2 298.4 111.8 298.4 111.6 298.2C111.4 298 111.4 297.6 111.6 297.4C111.8 297.2 112.2 297.2 112.4 297.4C112.6 297.6 112.6 298 112.4 298.2ZM112.4 286.7C112.2 286.9 111.8 286.9 111.6 286.7C111.4 286.5 111.4 286.1 111.6 285.9C111.8 285.7 112.2 285.7 112.4 285.9C112.6 286.1 112.6 286.5 112.4 286.7ZM113.3 265.8C113 265.8 112.8 265.6 112.8 265.3C112.8 265 113 264.8 113.3 264.8C113.6 264.8 113.8 265 113.8 265.3C113.8 265.6 113.6 265.8 113.3 265.8ZM115.6 292.5C115.4 292.7 115 292.7 114.8 292.5C114.6 292.3 114.6 291.9 114.8 291.7C115 291.5 115.4 291.5 115.6 291.7C115.8 291.9 115.8 292.3 115.6 292.5ZM116.8 286.7C116.6 286.9 116.2 286.9 116 286.7C115.8 286.5 115.8 286.1 116 285.9C116.2 285.7 116.6 285.7 116.8 285.9C117 286.1 117 286.5 116.8 286.7ZM116.5 269.7C116.2 269.7 116 269.5 116 269.2C116 268.9 116.2 268.7 116.5 268.7C116.8 268.7 117 268.9 117 269.2C117 269.4 116.8 269.7 116.5 269.7ZM117.1 262.7C116.8 262.7 116.6 262.5 116.6 262.2C116.6 261.9 116.8 261.7 117.1 261.7C117.4 261.7 117.6 261.9 117.6 262.2C117.6 262.4 117.4 262.7 117.1 262.7ZM119.4 289.9C119.2 290.1 118.8 290.1 118.6 289.9C118.4 289.7 118.4 289.3 118.6 289.1C118.8 288.9 119.2 288.9 119.4 289.1C119.6 289.3 119.6 289.7 119.4 289.9ZM119.1 257C119.1 256.7 119.3 256.5 119.6 256.5C119.9 256.5 120.1 256.7 120.1 257C120.1 257.3 119.9 257.5 119.6 257.5C119.4 257.6 119.1 257.3 119.1 257ZM120.7 285.5C120.5 285.7 120.1 285.7 119.9 285.5C119.7 285.3 119.7 284.9 119.9 284.7C120.1 284.5 120.5 284.5 120.7 284.7C120.9 284.9 120.9 285.3 120.7 285.5ZM120.5 269.5C120.3 269.3 120.3 268.9 120.5 268.7C120.7 268.5 121.1 268.5 121.3 268.7C121.5 268.9 121.5 269.3 121.3 269.5C121.1 269.7 120.7 269.7 120.5 269.5ZM121.9 309.1C121.7 309.3 121.3 309.3 121.1 309.1C120.9 308.9 120.9 308.5 121.1 308.3C121.3 308.1 121.7 308.1 121.9 308.3C122.1 308.5 122.2 308.9 121.9 309.1ZM123.8 314.2C123.6 314.4 123.2 314.4 123 314.2C122.8 314 122.8 313.6 123 313.4C123.2 313.2 123.6 313.2 123.8 313.4C124 313.6 124.1 314 123.8 314.2ZM123.5 259.5C123.2 259.5 123 259.3 123 259C123 258.7 123.2 258.5 123.5 258.5C123.8 258.5 124 258.7 124 259C124 259.2 123.8 259.5 123.5 259.5ZM124.2 266.6C124.2 266.3 124.4 266.1 124.7 266.1C125 266.1 125.2 266.3 125.2 266.6C125.2 266.9 125 267.1 124.7 267.1C124.5 267.1 124.2 266.9 124.2 266.6ZM125.8 306.5C125.6 306.7 125.2 306.7 125 306.5C124.8 306.3 124.8 305.9 125 305.7C125.2 305.5 125.6 305.5 125.8 305.7C126 305.9 126 306.3 125.8 306.5ZM126.7 262.7C126.4 262.7 126.2 262.5 126.2 262.2C126.2 261.9 126.4 261.7 126.7 261.7C127 261.7 127.2 261.9 127.2 262.2C127.2 262.4 127 262.7 126.7 262.7ZM127.6 312.2C127.4 312 127.4 311.6 127.6 311.4C127.8 311.2 128.2 311.2 128.4 311.4C128.6 311.6 128.6 312 128.4 312.2C128.1 312.4 127.8 312.4 127.6 312.2ZM129 319.3C128.8 319.5 128.4 319.5 128.2 319.3C128 319.1 128 318.7 128.2 318.5C128.4 318.3 128.8 318.3 129 318.5C129.2 318.7 129.2 319.1 129 319.3ZM130.2 307.8C130 308 129.6 308 129.4 307.8C129.2 307.6 129.2 307.2 129.4 307C129.6 306.8 130 306.8 130.2 307C130.5 307.2 130.4 307.6 130.2 307.8ZM130.5 246.7C130.2 246.7 130 246.5 130 246.2C130 245.9 130.2 245.7 130.5 245.7C130.8 245.7 131 245.9 131 246.2C131 246.5 130.8 246.7 130.5 246.7ZM133.4 316.7C133.2 316.9 132.8 316.9 132.6 316.7C132.4 316.5 132.4 316.1 132.6 315.9C132.8 315.7 133.2 315.7 133.4 315.9C133.6 316.2 133.6 316.5 133.4 316.7ZM134.3 254.4C134 254.4 133.8 254.2 133.8 253.9C133.8 253.6 134 253.4 134.3 253.4C134.6 253.4 134.8 253.6 134.8 253.9C134.9 254.1 134.6 254.4 134.3 254.4ZM135.6 246.7C135.3 246.7 135.1 246.5 135.1 246.2C135.1 245.9 135.3 245.7 135.6 245.7C135.9 245.7 136.1 245.9 136.1 246.2C136.1 246.5 135.9 246.7 135.6 246.7ZM136.9 250.5C136.6 250.5 136.4 250.3 136.4 250C136.4 249.7 136.6 249.5 136.9 249.5C137.2 249.5 137.4 249.7 137.4 250C137.4 250.3 137.2 250.5 136.9 250.5ZM139.4 254.4C139.1 254.4 138.9 254.2 138.9 253.9C138.9 253.6 139.1 253.4 139.4 253.4C139.7 253.4 139.9 253.6 139.9 253.9C140 254.1 139.7 254.4 139.4 254.4ZM140.7 243.5C140.4 243.5 140.2 243.3 140.2 243C140.2 242.7 140.4 242.5 140.7 242.5C141 242.5 141.2 242.7 141.2 243C141.2 243.3 141 243.5 140.7 243.5ZM142.6 251.8C142.3 251.8 142.1 251.6 142.1 251.3C142.1 251 142.3 250.8 142.6 250.8C142.9 250.8 143.1 251 143.1 251.3C143.1 251.6 142.9 251.8 142.6 251.8ZM142.6 247.4C142.3 247.4 142.1 247.2 142.1 246.9C142.1 246.6 142.3 246.4 142.6 246.4C142.9 246.4 143.1 246.6 143.1 246.9C143.1 247.1 142.9 247.4 142.6 247.4ZM147.4 324.4C147.2 324.6 146.8 324.6 146.6 324.4C146.4 324.2 146.4 323.8 146.6 323.6C146.8 323.4 147.2 323.4 147.4 323.6C147.7 323.8 147.7 324.2 147.4 324.4ZM148.7 316.1C148.5 316.3 148.1 316.3 147.9 316.1C147.7 315.9 147.7 315.5 147.9 315.3C148.1 315.1 148.5 315.1 148.7 315.3C148.9 315.5 148.9 315.9 148.7 316.1ZM150 320.5C149.8 320.7 149.4 320.7 149.2 320.5C149 320.3 149 319.9 149.2 319.7C149.4 319.5 149.8 319.5 150 319.7C150.2 320 150.2 320.3 150 320.5ZM154.5 325.6C154.3 325.8 153.9 325.8 153.7 325.6C153.5 325.4 153.5 325 153.7 324.8C153.9 324.6 154.3 324.6 154.5 324.8C154.7 325.1 154.7 325.4 154.5 325.6ZM155.1 316.7C154.9 316.9 154.5 316.9 154.3 316.7C154.1 316.5 154.1 316.1 154.3 315.9C154.5 315.7 154.9 315.7 155.1 315.9C155.3 316.2 155.3 316.5 155.1 316.7ZM156.4 321.2C156.2 321.4 155.8 321.4 155.6 321.2C155.4 321 155.4 320.6 155.6 320.4C155.8 320.2 156.2 320.2 156.4 320.4C156.6 320.6 156.6 321 156.4 321.2ZM156.4 312.2C156.2 312.4 155.8 312.4 155.6 312.2C155.4 312 155.4 311.6 155.6 311.4C155.8 311.2 156.2 311.2 156.4 311.4C156.6 311.7 156.6 312 156.4 312.2ZM158.6 252.5C158.3 252.5 158.1 252.3 158.1 252C158.1 251.7 158.3 251.5 158.6 251.5C158.9 251.5 159.1 251.7 159.1 252C159.1 252.2 158.9 252.5 158.6 252.5ZM159.2 248.6C158.9 248.6 158.7 248.4 158.7 248.1C158.7 247.8 158.9 247.6 159.2 247.6C159.5 247.6 159.7 247.8 159.7 248.1C159.7 248.4 159.5 248.6 159.2 248.6ZM159.8 244.2C159.5 244.2 159.3 244 159.3 243.7C159.3 243.4 159.5 243.2 159.8 243.2C160.1 243.2 160.3 243.4 160.3 243.7C160.4 243.9 160.1 244.2 159.8 244.2ZM163 253.1C162.7 253.1 162.5 252.9 162.5 252.6C162.5 252.3 162.7 252.1 163 252.1C163.3 252.1 163.5 252.3 163.5 252.6C163.6 252.9 163.3 253.1 163 253.1ZM166.1 255.9C166 256.2 165.7 256.3 165.4 256.2C165.1 256.1 165 255.8 165.1 255.5C165.2 255.2 165.5 255.1 165.8 255.2C166 255.4 166.2 255.7 166.1 255.9ZM169.3 252.8C169.2 253.1 168.9 253.2 168.6 253.1C168.3 253 168.2 252.7 168.3 252.4C168.4 252.1 168.7 252 169 252.1C169.2 252.2 169.4 252.5 169.3 252.8ZM170.5 248.9C170.4 249.2 170.1 249.3 169.8 249.2C169.5 249.1 169.4 248.8 169.5 248.5C169.6 248.2 169.9 248.1 170.2 248.2C170.5 248.4 170.6 248.7 170.5 248.9ZM171.6 314.1C171.4 313.9 171.4 313.5 171.6 313.3C171.8 313.1 172.2 313.1 172.4 313.3C172.6 313.5 172.6 313.9 172.4 314.1C172.1 314.4 171.8 314.4 171.6 314.1ZM172.9 318.6C172.7 318.8 172.3 318.8 172.1 318.6C171.9 318.4 171.9 318 172.1 317.8C172.3 317.6 172.7 317.6 172.9 317.8C173.2 318.1 173.2 318.4 172.9 318.6ZM172.9 304.6C172.7 304.8 172.3 304.8 172.1 304.6C171.9 304.4 171.9 304 172.1 303.8C172.3 303.6 172.7 303.6 172.9 303.8C173.2 304.1 173.2 304.4 172.9 304.6ZM175 246.4C174.9 246.7 174.6 246.8 174.3 246.7C174 246.6 173.9 246.3 174 246C174.1 245.7 174.4 245.6 174.7 245.7C175 245.8 175.1 246.1 175 246.4ZM178 311C177.8 311.2 177.4 311.2 177.2 311C177 310.8 177 310.4 177.2 310.2C177.4 310 177.8 310 178 310.2C178.3 310.4 178.3 310.8 178 311ZM179.3 315.4C179.1 315.6 178.7 315.6 178.5 315.4C178.3 315.2 178.3 314.8 178.5 314.6C178.7 314.4 179.1 314.4 179.3 314.6C179.5 314.8 179.5 315.2 179.3 315.4ZM180 306.5C179.8 306.7 179.4 306.7 179.2 306.5C179 306.3 179 305.9 179.2 305.7C179.4 305.5 179.8 305.5 180 305.7C180.2 306 180.2 306.3 180 306.5ZM183 307.8C182.8 307.6 182.8 307.2 183 307C183.2 306.8 183.6 306.8 183.8 307C184 307.2 184 307.6 183.8 307.8C183.6 308 183.2 308 183 307.8Z" fill="#474747"/>
<path id="XMLID 99" d="M178.4 240C180.6 240 190 247.5 191.8 249.6C193.6 251.7 192.5 252.1 192.8 254C193 255.9 194.6 256.9 194.8 257.3C195 257.7 195.2 264.1 195.2 264.1L197.1 266.9V267.4L201.8 270.2L203.5 274.8C203.5 274.8 199.4 281.4 198.8 282.7C198.2 284 202 290 202 290.9C202.1 291.8 201.2 294 201.6 295.2C202 296.4 203.3 298.1 203.3 298.1L202.6 302L196.7 310.5C196.7 310.5 194 314.2 193.5 314.6C193 315 192.1 315.1 192.1 315.1C190.9 317.1 189.5 315.5 189.5 314.5C189.5 313.5 190.2 313.8 190.2 313.8L188.1 308.5C188.1 308.5 188.5 306.3 188.7 306.2C188.9 306 190.6 300.2 187.3 296.1C184 292 186.7 288.1 186.7 284.9C186.5 275.7 183.2 270.6 181.1 267.2C179 263.9 179.5 263.3 180 260.7C180.5 258.1 178.5 255.1 178.5 255.1L175 246.8L174.7 243.4L175.3 241.2C176.1 240.9 176.3 240 176.3 240H178.4Z" fill="#9B3B3B"/>
<path id="XMLID 98" d="M179.1 247L190.1 257.7C190.1 257.7 195.7 271.1 196.5 276C197.4 280.9 197.9 293.6 197.9 293.6L195.6 300.8L193.8 302.6L188.7 298.8C188.7 298.8 185.2 294.6 185.6 291.5C186.1 288.4 187.8 285.1 185.5 278.5C183.2 271.9 179.1 264.9 179.1 264.9C179.1 264.9 179.8 261.3 179.4 259.1C179 256.9 177.1 249.7 177.1 249.7L178.7 247.1H179.1V247Z" fill="#FF5752"/>
<path id="XMLID 16" d="M152.5 219C117.1 219 88.3 247.7 88.3 283.2C88.3 318.7 117 347.4 152.5 347.4C188 347.4 216.7 318.7 216.7 283.2C216.7 247.7 188 219 152.5 219ZM209 267.6C209 267.6 188.3 270.4 183.6 270.9C178.9 271.5 178.1 270.5 176 268C173.9 265.6 176.2 261.9 176.2 261.9L192.3 239.8C206.3 253 209 267.6 209 267.6ZM147.7 224.6C147.7 224.6 146.6 245.5 146.3 250.2C146 254.9 144.9 255.5 142.1 257.1C139.3 258.7 136.1 255.7 136.1 255.7L117.4 235.8C132.9 224.5 147.7 224.6 147.7 224.6ZM112.3 241.1C112.3 241.1 124.6 258 127.3 261.9C130 265.8 129.5 267 128.4 269.9C127.2 272.9 122.9 272.6 122.9 272.6L95.8 268.9C100.7 250.3 112.3 241.1 112.3 241.1ZM94.4 276.6C94.4 276.6 114.7 281.7 119.2 282.9C123.8 284.1 124.2 285.3 125.2 288.4C126.2 291.4 122.7 294 122.7 294L99.6 308.5C91.5 291.2 94.4 276.6 94.4 276.6ZM103.6 316.1C103.6 316.1 122.2 306.5 126.4 304.4C130.6 302.3 131.7 302.9 134.5 304.5C137.3 306.1 136.4 310.3 136.4 310.3L128.7 336.5C111.1 328.9 103.6 316.1 103.6 316.1ZM136.3 339.4C136.3 339.4 144.5 320.1 146.4 315.8C148.3 311.5 149.6 311.3 152.7 310.7C155.9 310.2 157.9 314 157.9 314L168.7 339.1C150.2 344.6 136.3 339.4 136.3 339.4ZM161 257C157.8 256.5 157.2 252.2 157.2 252.2L155.4 224.9C174.6 225.9 186 235.4 186 235.4C186 235.4 171.9 250.8 168.7 254.3C165.4 257.7 164.2 257.5 161 257ZM177.1 336.5C177.1 336.5 170.8 316.6 169.4 312.1C168 307.6 168.9 306.6 170.9 304.1C172.9 301.6 177 303.3 177 303.3L201.5 315.3C191.1 331.4 177.1 336.5 177.1 336.5ZM183.7 294.1C179.7 291.6 179.7 290.3 179.6 287.1C179.5 283.9 183.7 282.5 183.7 282.5L210.1 275.6C212.7 294.6 205.4 307.6 205.4 307.6C205.4 307.6 187.7 296.6 183.7 294.1Z" fill="#B7B7B7"/>
<path id="XMLID 71" d="M152.2 304.8C164.737 304.8 174.9 294.637 174.9 282.1C174.9 269.563 164.737 259.4 152.2 259.4C139.663 259.4 129.5 269.563 129.5 282.1C129.5 294.637 139.663 304.8 152.2 304.8Z" fill="black"/>
<path id="XMLID 15" d="M152.2 290.3C156.729 290.3 160.4 286.629 160.4 282.1C160.4 277.571 156.729 273.9 152.2 273.9C147.671 273.9 144 277.571 144 282.1C144 286.629 147.671 290.3 152.2 290.3Z" fill="#B7B7B7"/>
</g>
<g id="car-body">
<path id="XMLID 120" d="M12 118.7V145L62.1 148.9C62.1 148.9 39 134.5 12 118.7Z" fill="#D1D9E1"/>
<path id="XMLID 115" d="M311.9 283.9C311.9 283.9 308.4 281.3 310.2 277.2C312 273 319.1 238.2 314.1 222.9C309.8 216.1 304.2 212.9 304.2 212.9L303.5 203.7C303.5 203.7 298.5 187.5 272.2 173.5C245.9 159.5 208.5 143.3 136.9 136.3C65.3 129.3 69.1 132 69.1 132C69.1 132 41 114.9 12 99.2V308.7L65 308.6C65 308.7 65 308.8 65 309H75.6C72.2 299 70.3 289.8 70.3 279.6C70.3 234.3 107 197.4 152.3 197.4C197.6 197.4 234.3 234 234.3 279.3C234.3 285.9 233.5 292.3 232 298.4L232.8 298.3C239.5 298.1 288.7 296.6 304 292.1C320.6 287.3 311.9 283.9 311.9 283.9Z" fill="#768CA5"/>
<path id="XMLID 95" d="M75.6 309C72.2 299 70.3 289.8 70.3 279.6C70.3 234.3 107 197.4 152.3 197.4C197.6 197.4 234.3 234 234.3 279.3C234.3 285.9 233.5 292.3 232 298.4L242.4 297.9C243.6 291.9 244.3 285.6 244.3 279.2C244.3 228.5 203 187.2 152.3 187.2C101.6 187.2 60.3 228.9 60.3 279.6C60.3 289.7 61.9 299 65 309H75.6V309Z" fill="#1A3F69"/>
<path id="XMLID 91" d="M68.6 132.2C68.6 132.2 90.6 154.4 109.4 155.9C128.2 157.4 154.7 159.1 179.1 163.9C203.4 168.7 235.8 177.4 235.8 177.4C235.8 177.4 239.8 175.4 243.3 175.7C246.8 176 186.1 155.2 142.1 154.8C98.1 154.3 91.9 147.3 68.6 132.2Z" fill="#1A3F69"/>
<path id="XMLID 102" d="M304 203.7V212.7L263.5 214.1C263.5 214.1 261.4 215.4 251.8 208.1C242.2 200.8 230.1 190.8 227.5 187.1C224.9 183.4 233 178.3 235.1 177.3C237.2 176.3 240.1 176 240.1 176L304 203.7Z" fill="#232323"/>
<path id="XMLID 100" d="M303.8 203.7C303.8 203.7 301.9 191 282.2 185.4C262.5 179.7 241.2 173.7 238.3 176.9C235.5 180.1 231.4 181.7 235.5 186.4C239.7 191.1 254.1 204.2 254.1 204.2L303.8 203.7Z" fill="#D1D9E1"/>
<path id="XMLID 104" d="M265.8 255H296.8C296.8 255 294.6 267.5 300.5 273.2C306.3 278.9 309.5 278.8 309.5 278.8L312 284.1H282.8C282.8 284.1 269.3 285.6 267.5 277.6C265.6 269.5 264.3 262 265.8 255Z" fill="black"/>
<path id="XMLID 101" d="M42.3 288C42.3 288 50.7 250.1 52.7 222.6C54.7 195.1 43.6 149.6 43.6 149.6L70.2 152.2C70.2 152.2 46 134.8 12 115.2V121.1C37 135.2 54.6 146.3 54.6 146.3L12 142.9V147.2C28 148.5 38.3 149.4 38.3 149.4C38.3 149.4 44.3 167.2 47.5 205.4C50.7 243.6 36.8 286.9 36.8 286.9L12 286.6V291.1L62.1 291.8L61.1 288H42.3Z" fill="#1A3F69"/>
<path id="XMLID 234" d="M35.3 132.2C36.3 126.4 33.5 124.9 28 119.9C25 117.2 18 113.7 12 111.1V143.8C13 144.6 13 145.1 13 145.1L62 148.9L35.3 132.2Z" fill="#232323"/>
</g>
</g>
</svg>
