<svg width="716" height="334" viewBox="0 0 716 334" fill="none" xmlns="http://www.w3.org/2000/svg">
<g id="pendulum-container">
<g id="pendulum-platform">
<path d="M579.4 158.7H138.4V168.7H579.4V158.7Z" fill="#768CA5"/>
</g>
<g id="pendulum-body">
<g id="ball-and-stick">
<path id="XMLID 70" d="M361.1 17.5H356.6V165.5H361.1V17.5Z" fill="#A3B2C3"/>
<path id="XMLID 15" d="M358.9 33.6C367.184 33.6 373.9 26.8843 373.9 18.6C373.9 10.3157 367.184 3.60001 358.9 3.60001C350.616 3.60001 343.9 10.3157 343.9 18.6C343.9 26.8843 350.616 33.6 358.9 33.6Z" fill="#FF5752"/>
</g>
<g id="base">
<path id="XMLID 71" d="M359.4 196.7C377.625 196.7 392.4 181.925 392.4 163.7C392.4 145.475 377.625 130.7 359.4 130.7C341.175 130.7 326.4 145.475 326.4 163.7C326.4 181.925 341.175 196.7 359.4 196.7Z" fill="#1A3F69"/>
</g>
</g>
</g>
</svg>
