<svg xmlns="http://www.w3.org/2000/svg" width="735" height="540" viewBox="0 0 735 540">
  <g id="plane-new">
    <rect id="Rectangle_22" data-name="Rectangle 22" width="735" height="540" fill="#fff" opacity="0"/>
    <g id="plane-container">
      <g id="plane-body">
        <path id="XMLID_9" data-name="XMLID 9" d="M662,131.2c-1,0-20.4-4.4-33.7-7.4C608.1,119.9,500,109.7,500,109.7c-1,0-2,.2-3.1.2-32-.3-237.9.2-237.9.2H150s-89.8-4.4-118.3,20.8S3.8,158.5,7,162s19.5,16.6,88.5,16.3,235.8,2.9,251.5,2.4,116-2.3,138-4.3,113.3-19.8,139.5-28,34.3-10.8,35.3-10.8S663.5,131.2,662,131.2Z" fill="#a3b2c3"/>
        <path id="XMLID_8" data-name="XMLID 8" d="M632.8,129.1a4.416,4.416,0,0,1,1.9-3.7c-1,.1-1.9.2-2.9.3h-.1c-1.8.2-3.5.4-5.2.6h-.3c-27.3,3.4-49.5,7-49.5,7s-12.3-.3-11.8,2.3c.5,2.7,3.8,3.3,11.8,4s18.7-.2,35.2-2c3.2-.4,8.5-1.2,14.9-2.4,3.2-.6,6.8-1.2,10.5-1.9h-.1A4.042,4.042,0,0,1,632.8,129.1Z" fill="#1a3f69"/>
        <path id="XMLID_3" data-name="XMLID 3" d="M660.5,6.4s-28.8.3-37,9-69,70.3-72.8,74-17.3,20.8-42.8,21c0,0,99.7,14.3,107,11.3Z" fill="#1a3f69"/>
        <path id="XMLID_12" data-name="XMLID 12" d="M28.8,137l6.1-6.1s0-.7,3.2-.3,1.7,6.4,1.7,6.4l-3.5,1.5S25.8,139.5,28.8,137Z" fill="#161616"/>
        <path id="XMLID_11" data-name="XMLID 11" d="M31.7,130.5l1.5.4-7.5,7.8s-2.6-.1-2.9-.6S31.7,130.5,31.7,130.5Z" fill="#161616"/>
        <path id="XMLID_16" data-name="XMLID 16" d="M76,132.7v4s.1,1.2-1,1.2-1-1.2-1-1.2v-4s0-.7,1-.7S76,132.7,76,132.7Z" fill="#161616"/>
        <path id="XMLID_17" data-name="XMLID 17" d="M93.5,131.6s-1.5,0-1.5,1.1v2.9a1.515,1.515,0,0,0,3,0v-3.1C95,132.7,95,131.6,93.5,131.6Z"/>
        <path id="XMLID_19" data-name="XMLID 19" d="M101.5,131.6s-1.5,0-1.5,1.1v2.9a1.515,1.515,0,0,0,3,0v-3.1C103,132.7,103,131.6,101.5,131.6Z"/>
        <path id="XMLID_20" data-name="XMLID 20" d="M108.5,131.6s-1.5,0-1.5,1.1v2.9a1.515,1.515,0,0,0,3,0v-3.1C110,132.7,110,131.6,108.5,131.6Z"/>
        <path id="XMLID_21" data-name="XMLID 21" d="M115.5,131.6s-1.5,0-1.5,1.1v2.9a1.515,1.515,0,0,0,3,0v-3.1C117,132.7,117,131.6,115.5,131.6Z"/>
        <path id="XMLID_22" data-name="XMLID 22" d="M122.5,131.6s-1.5,0-1.5,1.1v2.9a1.515,1.515,0,0,0,3,0v-3.1C124,132.7,124,131.6,122.5,131.6Z"/>
        <path id="XMLID_23" data-name="XMLID 23" d="M130.5,131.6s-1.5,0-1.5,1.1v2.9a1.515,1.515,0,0,0,3,0v-3.1C132,132.7,132,131.6,130.5,131.6Z"/>
        <path id="XMLID_24" data-name="XMLID 24" d="M137.5,131.6s-1.5,0-1.5,1.1v2.9a1.515,1.515,0,0,0,3,0v-3.1C139,132.7,139,131.6,137.5,131.6Z"/>
        <path id="XMLID_25" data-name="XMLID 25" d="M144.5,131.6s-1.5,0-1.5,1.1v2.9a1.515,1.515,0,0,0,3,0v-3.1C146,132.7,146,131.6,144.5,131.6Z"/>
        <path id="XMLID_26" data-name="XMLID 26" d="M152.5,131.6s-1.5,0-1.5,1.1v2.9a1.515,1.515,0,0,0,3,0v-3.1C154,132.7,154,131.6,152.5,131.6Z"/>
        <path id="XMLID_27" data-name="XMLID 27" d="M196.5,131.6s-1.5,0-1.5,1.1v2.9a1.515,1.515,0,0,0,3,0v-3.1C198,132.7,198,131.6,196.5,131.6Z"/>
        <path id="XMLID_28" data-name="XMLID 28" d="M203.5,131.6s-1.5,0-1.5,1.1v2.9a1.515,1.515,0,0,0,3,0v-3.1C205,132.7,205,131.6,203.5,131.6Z"/>
        <path id="XMLID_29" data-name="XMLID 29" d="M210.5,131.6s-1.5,0-1.5,1.1v2.9a1.515,1.515,0,0,0,3,0v-3.1C212,132.7,212,131.6,210.5,131.6Z"/>
        <path id="XMLID_30" data-name="XMLID 30" d="M218.5,131.6s-1.5,0-1.5,1.1v2.9a1.515,1.515,0,0,0,3,0v-3.1C220,132.7,220,131.6,218.5,131.6Z"/>
        <path id="XMLID_31" data-name="XMLID 31" d="M225.5,131.6s-1.5,0-1.5,1.1v2.9a1.515,1.515,0,0,0,3,0v-3.1C227,132.7,227,131.6,225.5,131.6Z"/>
        <path id="XMLID_32" data-name="XMLID 32" d="M232.5,131.6s-1.5,0-1.5,1.1v2.9a1.515,1.515,0,0,0,3,0v-3.1C234,132.7,234,131.6,232.5,131.6Z"/>
        <path id="XMLID_33" data-name="XMLID 33" d="M240.5,131.6s-1.5,0-1.5,1.1v2.9a1.515,1.515,0,0,0,3,0v-3.1C242,132.7,242,131.6,240.5,131.6Z"/>
        <path id="XMLID_34" data-name="XMLID 34" d="M247.5,131.6s-1.5,0-1.5,1.1v2.9a1.515,1.515,0,0,0,3,0v-3.1C249,132.7,249,131.6,247.5,131.6Z"/>
        <path id="XMLID_35" data-name="XMLID 35" d="M254.5,131.6s-1.5,0-1.5,1.1v2.9a1.515,1.515,0,0,0,3,0v-3.1C256,132.7,256,131.6,254.5,131.6Z"/>
        <path id="XMLID_36" data-name="XMLID 36" d="M261.5,131.6s-1.5,0-1.5,1.1v2.9a1.515,1.515,0,0,0,3,0v-3.1C263,132.7,263,131.6,261.5,131.6Z"/>
        <path id="XMLID_37" data-name="XMLID 37" d="M269.5,131.6s-1.5,0-1.5,1.1v2.9a1.515,1.515,0,0,0,3,0v-3.1C271,132.7,271,131.6,269.5,131.6Z"/>
        <path id="XMLID_38" data-name="XMLID 38" d="M276.5,131.6s-1.5,0-1.5,1.1v2.9a1.515,1.515,0,0,0,3,0v-3.1C278,132.7,278,131.6,276.5,131.6Z"/>
        <path id="XMLID_39" data-name="XMLID 39" d="M283.5,131.6s-1.5,0-1.5,1.1v2.9a1.515,1.515,0,0,0,3,0v-3.1C285,132.7,285,131.6,283.5,131.6Z"/>
        <path id="XMLID_40" data-name="XMLID 40" d="M291.5,131.6s-1.5,0-1.5,1.1v2.9a1.515,1.515,0,0,0,3,0v-3.1C293,132.7,293,131.6,291.5,131.6Z"/>
        <path id="XMLID_41" data-name="XMLID 41" d="M298.5,131.6s-1.5,0-1.5,1.1v2.9a1.515,1.515,0,0,0,3,0v-3.1C300,132.7,300,131.6,298.5,131.6Z"/>
        <path id="XMLID_42" data-name="XMLID 42" d="M306.5,131.6s-1.5,0-1.5,1.1v2.9a1.515,1.515,0,0,0,3,0v-3.1C308,132.7,308,131.6,306.5,131.6Z"/>
        <path id="XMLID_43" data-name="XMLID 43" d="M313.5,131.6s-1.5,0-1.5,1.1v2.9a1.515,1.515,0,0,0,3,0v-3.1C315,132.7,315,131.6,313.5,131.6Z"/>
        <path id="XMLID_44" data-name="XMLID 44" d="M320.5,131.6s-1.5,0-1.5,1.1v2.9a1.515,1.515,0,0,0,3,0v-3.1C322,132.7,322,131.6,320.5,131.6Z"/>
        <path id="XMLID_45" data-name="XMLID 45" d="M401.5,131.6s-1.5,0-1.5,1.1v2.9a1.515,1.515,0,0,0,3,0v-3.1C403,132.7,403,131.6,401.5,131.6Z"/>
        <path id="XMLID_46" data-name="XMLID 46" d="M408.5,131.6s-1.5,0-1.5,1.1v2.9a1.515,1.515,0,0,0,3,0v-3.1C410,132.7,410,131.6,408.5,131.6Z"/>
        <path id="XMLID_47" data-name="XMLID 47" d="M416.5,131.6s-1.5,0-1.5,1.1v2.9a1.515,1.515,0,0,0,3,0v-3.1C418,132.7,418,131.6,416.5,131.6Z"/>
        <path id="XMLID_48" data-name="XMLID 48" d="M423.5,131.6s-1.5,0-1.5,1.1v2.9a1.515,1.515,0,0,0,3,0v-3.1C425,132.7,425,131.6,423.5,131.6Z"/>
        <path id="XMLID_49" data-name="XMLID 49" d="M431.5,131.6s-1.5,0-1.5,1.1v2.9a1.515,1.515,0,0,0,3,0v-3.1C433,132.7,433,131.6,431.5,131.6Z"/>
        <path id="XMLID_50" data-name="XMLID 50" d="M438.5,131.6s-1.5,0-1.5,1.1v2.9a1.515,1.515,0,0,0,3,0v-3.1C440,132.7,440,131.6,438.5,131.6Z"/>
        <path id="XMLID_51" data-name="XMLID 51" d="M445.5,131.6s-1.5,0-1.5,1.1v2.9a1.515,1.515,0,0,0,3,0v-3.1C447,132.7,447,131.6,445.5,131.6Z"/>
        <path id="XMLID_52" data-name="XMLID 52" d="M453.5,131.6s-1.5,0-1.5,1.1v2.9a1.515,1.515,0,0,0,3,0v-3.1C455,132.7,455,131.6,453.5,131.6Z"/>
        <path id="XMLID_53" data-name="XMLID 53" d="M460.5,131.6s-1.5,0-1.5,1.1v2.9a1.515,1.515,0,0,0,3,0v-3.1C462,132.7,462,131.6,460.5,131.6Z"/>
        <path id="XMLID_54" data-name="XMLID 54" d="M475.5,131.6s-1.5,0-1.5,1.1v2.9a1.515,1.515,0,0,0,3,0v-3.1C477,132.7,477,131.6,475.5,131.6Z"/>
        <path id="XMLID_55" data-name="XMLID 55" d="M483.5,131.6s-1.5,0-1.5,1.1v2.9a1.515,1.515,0,0,0,3,0v-3.1C485,132.7,485,131.6,483.5,131.6Z"/>
        <path id="XMLID_56" data-name="XMLID 56" d="M491.5,131.6s-1.5,0-1.5,1.1v2.9a1.515,1.515,0,0,0,3,0v-3.1C493,132.7,493,131.6,491.5,131.6Z"/>
        <path id="XMLID_57" data-name="XMLID 57" d="M499.5,131.6s-1.5,0-1.5,1.1v2.9a1.515,1.515,0,0,0,3,0v-3.1C501,132.7,501,131.6,499.5,131.6Z"/>
        <path id="XMLID_58" data-name="XMLID 58" d="M76,127.5H67s-2.6-1.4-2.9,3.1c-.3,4.6-.4,18.1-.4,18.1s-.1,1.7,1.1,1.7H77.1a5.318,5.318,0,0,0,.7-3.1c0-2.2.4-19.7.4-19.7S77.9,126.5,76,127.5Z" fill="none" stroke="#768ca5" stroke-miterlimit="10" stroke-width="1"/>
        <path id="XMLID_18" data-name="XMLID 18" d="M76,132.7v4s.1,1.2-1,1.2-1-1.2-1-1.2v-4s0-.7,1-.7S76,132.7,76,132.7Z" fill="#161616"/>
        <path id="XMLID_61" data-name="XMLID 61" d="M183,127.5h-9s-2.6-1.4-2.9,3.1c-.3,4.6-.4,18.1-.4,18.1s-.1,1.7,1.1,1.7h12.3a5.318,5.318,0,0,0,.7-3.1c0-2.2.4-19.7.4-19.7S184.9,126.5,183,127.5Z" fill="none" stroke="#768ca5" stroke-miterlimit="10" stroke-width="1"/>
        <path id="XMLID_60" data-name="XMLID 60" d="M183,132.7v4s.1,1.2-1,1.2-1-1.2-1-1.2v-4s0-.7,1-.7S183,132.7,183,132.7Z" fill="#161616"/>
        <path id="XMLID_63" data-name="XMLID 63" d="M524,127.5h-9s-2.6-1.4-2.9,3.1c-.3,4.6-.4,18.1-.4,18.1s-.1,1.7,1.1,1.7h12.3a5.318,5.318,0,0,0,.7-3.1c0-2.2.4-19.7.4-19.7S525.9,126.5,524,127.5Z" fill="none" stroke="#768ca5" stroke-miterlimit="10" stroke-width="1"/>
        <path id="XMLID_62" data-name="XMLID 62" d="M524,132.7v4s.1,1.2-1,1.2-1-1.2-1-1.2v-4s0-.7,1-.7S524,132.7,524,132.7Z" fill="#161616"/>
        <path id="XMLID_6" data-name="XMLID 6" d="M505.7,54s-9.3,4-34,12.6c-24.7,8.7-91.3,47-142,64.4-23.6,8.1-40.8,12-52.5,14l-15.1,1.5s-40-3.5-53.8,4.7,61.7,20,97.2,18.2c0,0,20.7-13,35.7-17.6,15.8-.3,24.6-1.4,24.6-1.4s0-3.7,31-17.3,67-41.5,72.7-46.5C475,81.5,518,54,518,54Z" fill="#1a3f69"/>
        <path id="XMLID_4" data-name="XMLID 4" d="M423.8,129.8l-8.3-5.3s-33,.1-38.3,2.6C376.3,127.6,403.2,130.8,423.8,129.8Z" fill="#768ca5"/>
        <path id="XMLID_5" data-name="XMLID 5" d="M388.8,137.9c1.4,1.8,8.8,5.5,8.8,5.5s-9.4-.2-28.8,0c-19.3.2-21.9-2.7-21.9-2.7C346.1,140.9,363.2,138.6,388.8,137.9Z" fill="#768ca5"/>
        <path id="XMLID_15" data-name="XMLID 15" d="M291.9,178.8c1.1-.3,2.1-.6,2.9-.8l3.8-1.1a.938.938,0,0,0,.1-1.5c-.8-1-21.2-8.4-21.2-8.4l-5.6-.3.3,18.2C272.3,184.9,284.7,180.9,291.9,178.8Z" fill="#768ca5"/>
        <path id="XMLID_66" data-name="XMLID 66" d="M277.4,183.2l-.1-1.4a4.122,4.122,0,0,1-.1-1.2v.3a140.853,140.853,0,0,1,.8-14.6c-.5-.9-13.6-4.2-13.6-4.2s-10.2,23.4-1.9,23.7,13.4-1.5,15.1-1.7c.8-.1,1-.8,1.1-1.4Z"/>
        <path id="XMLID_10" data-name="XMLID 10" d="M269,157.2s-28.3-9.4-53-7.6-23.3,4.8-23.8,14.1S193,191,196,194s10.1,4.1,37.3,3.4,37-4.8,37-4.8-6.6-1.3-6.6-2.4,4.1-2.4,5.4-2.4c0,0-5.5-1.8-5.5-2.8s4-3.1,4-3.1-4.4-1.4-4.4-3.1,4.4-2.8,4.4-2.8-4-1.9-4.3-3.8,4-2.6,4-2.6-3.4-2-3.3-3.6,4-1.6,4-1.6-3.5-2-3.5-3.4,3.1-1.5,3.1-1.5-1.9-1.1-1.8-1.8S269,157.2,269,157.2Z" fill="#768ca5"/>
      </g>
      <g id="flap">
        <path id="Path_35" data-name="Path 35" d="M700.8,120.7s-35.6,1.1-59.5,4c-.9.1-1.9.2-2.7.3l-4,.5a4.537,4.537,0,0,0-1.9,3.7,4.354,4.354,0,0,0,4.3,4.4l1.5-.3.6-.3a40.022,40.022,0,0,0,4.3-.6C656.8,129.7,700.8,120.7,700.8,120.7Z" fill="#ff5752"/>
      </g>
    </g>
  </g>
</svg>
