<svg width="707" height="430" viewBox="0 0 707 202" fill="none" xmlns="http://www.w3.org/2000/svg">
<g id="plane 1" style="transform-origin: center center;">
<g id="plane-body">
<path id="XMLID 9" d="M662 131.2C661 131.2 641.6 126.8 628.3 123.8C608.1 119.9 500 109.7 500 109.7C499 109.7 498 109.9 496.9 109.9C464.9 109.6 259 110.1 259 110.1H150C150 110.1 60.2 105.7 31.7 130.9C3.2 156.1 3.8 158.5 7 162C10.2 165.5 26.5 178.6 95.5 178.3C164.5 178 331.3 181.2 347 180.7C362.7 180.2 463 178.4 485 176.4C507 174.4 598.3 156.6 624.5 148.4C650.7 140.2 658.8 137.6 659.8 137.6C660.8 137.6 663.5 131.2 662 131.2Z" fill="#A3B2C3"/>
<path id="XMLID 8" d="M632.8 129.1C632.8 127.6 633.5 126.2 634.7 125.4C633.7 125.5 632.8 125.6 631.8 125.7H631.7C629.9 125.9 628.2 126.1 626.5 126.3H626.2C598.9 129.7 576.7 133.3 576.7 133.3C576.7 133.3 564.4 133 564.9 135.6C565.4 138.3 568.7 138.9 576.7 139.6C584.7 140.3 595.4 139.4 611.9 137.6C615.1 137.2 620.4 136.4 626.8 135.2C630 134.6 633.6 134 637.3 133.3H637.2C634.7 133.5 632.8 131.6 632.8 129.1Z" fill="#1A3F69"/>
<path id="XMLID 3" d="M660.5 6.39999C660.5 6.39999 631.7 6.69999 623.5 15.4C615.3 24.1 554.5 85.7 550.7 89.4C546.9 93.1 533.4 110.2 507.9 110.4C507.9 110.4 607.6 124.7 614.9 121.7L660.5 6.39999Z" fill="#1A3F69"/>
<path id="XMLID 12" d="M28.8 137L34.9 130.9C34.9 130.9 34.9 130.2 38.1 130.6C41.3 131 39.8 137 39.8 137L36.3 138.5C36.3 138.5 25.8 139.5 28.8 137Z" fill="#161616"/>
<path id="XMLID 11" d="M31.7 130.5L33.2 130.9L25.7 138.7C25.7 138.7 23.1 138.6 22.8 138.1C22.5 137.6 31.7 130.5 31.7 130.5Z" fill="#161616"/>
<path id="XMLID 16" d="M76 132.7V136.7C76 136.7 76.1 137.9 75 137.9C73.9 137.9 74 136.7 74 136.7V132.7C74 132.7 74 132 75 132C76 132 76 132.7 76 132.7Z" fill="#161616"/>
<path id="XMLID 17" d="M93.5 131.6C93.5 131.6 92 131.6 92 132.7C92 133.8 92 135.6 92 135.6C92 135.6 92.2 136.9 93.5 136.9C94.8 136.9 95 135.6 95 135.6V132.5C95 132.7 95 131.6 93.5 131.6Z" fill="black"/>
<path id="XMLID 19" d="M101.5 131.6C101.5 131.6 100 131.6 100 132.7C100 133.8 100 135.6 100 135.6C100 135.6 100.2 136.9 101.5 136.9C102.8 136.9 103 135.6 103 135.6V132.5C103 132.7 103 131.6 101.5 131.6Z" fill="black"/>
<path id="XMLID 20" d="M108.5 131.6C108.5 131.6 107 131.6 107 132.7C107 133.8 107 135.6 107 135.6C107 135.6 107.2 136.9 108.5 136.9C109.8 136.9 110 135.6 110 135.6V132.5C110 132.7 110 131.6 108.5 131.6Z" fill="black"/>
<path id="XMLID 21" d="M115.5 131.6C115.5 131.6 114 131.6 114 132.7C114 133.8 114 135.6 114 135.6C114 135.6 114.2 136.9 115.5 136.9C116.8 136.9 117 135.6 117 135.6V132.5C117 132.7 117 131.6 115.5 131.6Z" fill="black"/>
<path id="XMLID 22" d="M122.5 131.6C122.5 131.6 121 131.6 121 132.7C121 133.8 121 135.6 121 135.6C121 135.6 121.2 136.9 122.5 136.9C123.8 136.9 124 135.6 124 135.6V132.5C124 132.7 124 131.6 122.5 131.6Z" fill="black"/>
<path id="XMLID 23" d="M130.5 131.6C130.5 131.6 129 131.6 129 132.7C129 133.8 129 135.6 129 135.6C129 135.6 129.2 136.9 130.5 136.9C131.8 136.9 132 135.6 132 135.6V132.5C132 132.7 132 131.6 130.5 131.6Z" fill="black"/>
<path id="XMLID 24" d="M137.5 131.6C137.5 131.6 136 131.6 136 132.7C136 133.8 136 135.6 136 135.6C136 135.6 136.2 136.9 137.5 136.9C138.8 136.9 139 135.6 139 135.6V132.5C139 132.7 139 131.6 137.5 131.6Z" fill="black"/>
<path id="XMLID 25" d="M144.5 131.6C144.5 131.6 143 131.6 143 132.7C143 133.8 143 135.6 143 135.6C143 135.6 143.2 136.9 144.5 136.9C145.8 136.9 146 135.6 146 135.6V132.5C146 132.7 146 131.6 144.5 131.6Z" fill="black"/>
<path id="XMLID 26" d="M152.5 131.6C152.5 131.6 151 131.6 151 132.7C151 133.8 151 135.6 151 135.6C151 135.6 151.2 136.9 152.5 136.9C153.8 136.9 154 135.6 154 135.6V132.5C154 132.7 154 131.6 152.5 131.6Z" fill="black"/>
<path id="XMLID 27" d="M196.5 131.6C196.5 131.6 195 131.6 195 132.7C195 133.8 195 135.6 195 135.6C195 135.6 195.2 136.9 196.5 136.9C197.8 136.9 198 135.6 198 135.6V132.5C198 132.7 198 131.6 196.5 131.6Z" fill="black"/>
<path id="XMLID 28" d="M203.5 131.6C203.5 131.6 202 131.6 202 132.7C202 133.8 202 135.6 202 135.6C202 135.6 202.2 136.9 203.5 136.9C204.8 136.9 205 135.6 205 135.6V132.5C205 132.7 205 131.6 203.5 131.6Z" fill="black"/>
<path id="XMLID 29" d="M210.5 131.6C210.5 131.6 209 131.6 209 132.7C209 133.8 209 135.6 209 135.6C209 135.6 209.2 136.9 210.5 136.9C211.8 136.9 212 135.6 212 135.6V132.5C212 132.7 212 131.6 210.5 131.6Z" fill="black"/>
<path id="XMLID 30" d="M218.5 131.6C218.5 131.6 217 131.6 217 132.7C217 133.8 217 135.6 217 135.6C217 135.6 217.2 136.9 218.5 136.9C219.8 136.9 220 135.6 220 135.6V132.5C220 132.7 220 131.6 218.5 131.6Z" fill="black"/>
<path id="XMLID 31" d="M225.5 131.6C225.5 131.6 224 131.6 224 132.7C224 133.8 224 135.6 224 135.6C224 135.6 224.2 136.9 225.5 136.9C226.8 136.9 227 135.6 227 135.6V132.5C227 132.7 227 131.6 225.5 131.6Z" fill="black"/>
<path id="XMLID 32" d="M232.5 131.6C232.5 131.6 231 131.6 231 132.7C231 133.8 231 135.6 231 135.6C231 135.6 231.2 136.9 232.5 136.9C233.8 136.9 234 135.6 234 135.6V132.5C234 132.7 234 131.6 232.5 131.6Z" fill="black"/>
<path id="XMLID 33" d="M240.5 131.6C240.5 131.6 239 131.6 239 132.7C239 133.8 239 135.6 239 135.6C239 135.6 239.2 136.9 240.5 136.9C241.8 136.9 242 135.6 242 135.6V132.5C242 132.7 242 131.6 240.5 131.6Z" fill="black"/>
<path id="XMLID 34" d="M247.5 131.6C247.5 131.6 246 131.6 246 132.7C246 133.8 246 135.6 246 135.6C246 135.6 246.2 136.9 247.5 136.9C248.8 136.9 249 135.6 249 135.6V132.5C249 132.7 249 131.6 247.5 131.6Z" fill="black"/>
<path id="XMLID 35" d="M254.5 131.6C254.5 131.6 253 131.6 253 132.7C253 133.8 253 135.6 253 135.6C253 135.6 253.2 136.9 254.5 136.9C255.8 136.9 256 135.6 256 135.6V132.5C256 132.7 256 131.6 254.5 131.6Z" fill="black"/>
<path id="XMLID 36" d="M261.5 131.6C261.5 131.6 260 131.6 260 132.7C260 133.8 260 135.6 260 135.6C260 135.6 260.2 136.9 261.5 136.9C262.8 136.9 263 135.6 263 135.6V132.5C263 132.7 263 131.6 261.5 131.6Z" fill="black"/>
<path id="XMLID 37" d="M269.5 131.6C269.5 131.6 268 131.6 268 132.7C268 133.8 268 135.6 268 135.6C268 135.6 268.2 136.9 269.5 136.9C270.8 136.9 271 135.6 271 135.6V132.5C271 132.7 271 131.6 269.5 131.6Z" fill="black"/>
<path id="XMLID 38" d="M276.5 131.6C276.5 131.6 275 131.6 275 132.7C275 133.8 275 135.6 275 135.6C275 135.6 275.2 136.9 276.5 136.9C277.8 136.9 278 135.6 278 135.6V132.5C278 132.7 278 131.6 276.5 131.6Z" fill="black"/>
<path id="XMLID 39" d="M283.5 131.6C283.5 131.6 282 131.6 282 132.7C282 133.8 282 135.6 282 135.6C282 135.6 282.2 136.9 283.5 136.9C284.8 136.9 285 135.6 285 135.6V132.5C285 132.7 285 131.6 283.5 131.6Z" fill="black"/>
<path id="XMLID 40" d="M291.5 131.6C291.5 131.6 290 131.6 290 132.7C290 133.8 290 135.6 290 135.6C290 135.6 290.2 136.9 291.5 136.9C292.8 136.9 293 135.6 293 135.6V132.5C293 132.7 293 131.6 291.5 131.6Z" fill="black"/>
<path id="XMLID 41" d="M298.5 131.6C298.5 131.6 297 131.6 297 132.7C297 133.8 297 135.6 297 135.6C297 135.6 297.2 136.9 298.5 136.9C299.8 136.9 300 135.6 300 135.6V132.5C300 132.7 300 131.6 298.5 131.6Z" fill="black"/>
<path id="XMLID 42" d="M306.5 131.6C306.5 131.6 305 131.6 305 132.7C305 133.8 305 135.6 305 135.6C305 135.6 305.2 136.9 306.5 136.9C307.8 136.9 308 135.6 308 135.6V132.5C308 132.7 308 131.6 306.5 131.6Z" fill="black"/>
<path id="XMLID 43" d="M313.5 131.6C313.5 131.6 312 131.6 312 132.7C312 133.8 312 135.6 312 135.6C312 135.6 312.2 136.9 313.5 136.9C314.8 136.9 315 135.6 315 135.6V132.5C315 132.7 315 131.6 313.5 131.6Z" fill="black"/>
<path id="XMLID 44" d="M320.5 131.6C320.5 131.6 319 131.6 319 132.7C319 133.8 319 135.6 319 135.6C319 135.6 319.2 136.9 320.5 136.9C321.8 136.9 322 135.6 322 135.6V132.5C322 132.7 322 131.6 320.5 131.6Z" fill="black"/>
<path id="XMLID 45" d="M401.5 131.6C401.5 131.6 400 131.6 400 132.7C400 133.8 400 135.6 400 135.6C400 135.6 400.2 136.9 401.5 136.9C402.8 136.9 403 135.6 403 135.6V132.5C403 132.7 403 131.6 401.5 131.6Z" fill="black"/>
<path id="XMLID 46" d="M408.5 131.6C408.5 131.6 407 131.6 407 132.7C407 133.8 407 135.6 407 135.6C407 135.6 407.2 136.9 408.5 136.9C409.8 136.9 410 135.6 410 135.6V132.5C410 132.7 410 131.6 408.5 131.6Z" fill="black"/>
<path id="XMLID 47" d="M416.5 131.6C416.5 131.6 415 131.6 415 132.7C415 133.8 415 135.6 415 135.6C415 135.6 415.2 136.9 416.5 136.9C417.8 136.9 418 135.6 418 135.6V132.5C418 132.7 418 131.6 416.5 131.6Z" fill="black"/>
<path id="XMLID 48" d="M423.5 131.6C423.5 131.6 422 131.6 422 132.7C422 133.8 422 135.6 422 135.6C422 135.6 422.2 136.9 423.5 136.9C424.8 136.9 425 135.6 425 135.6V132.5C425 132.7 425 131.6 423.5 131.6Z" fill="black"/>
<path id="XMLID 49" d="M431.5 131.6C431.5 131.6 430 131.6 430 132.7C430 133.8 430 135.6 430 135.6C430 135.6 430.2 136.9 431.5 136.9C432.8 136.9 433 135.6 433 135.6V132.5C433 132.7 433 131.6 431.5 131.6Z" fill="black"/>
<path id="XMLID 50" d="M438.5 131.6C438.5 131.6 437 131.6 437 132.7C437 133.8 437 135.6 437 135.6C437 135.6 437.2 136.9 438.5 136.9C439.8 136.9 440 135.6 440 135.6V132.5C440 132.7 440 131.6 438.5 131.6Z" fill="black"/>
<path id="XMLID 51" d="M445.5 131.6C445.5 131.6 444 131.6 444 132.7C444 133.8 444 135.6 444 135.6C444 135.6 444.2 136.9 445.5 136.9C446.8 136.9 447 135.6 447 135.6V132.5C447 132.7 447 131.6 445.5 131.6Z" fill="black"/>
<path id="XMLID 52" d="M453.5 131.6C453.5 131.6 452 131.6 452 132.7C452 133.8 452 135.6 452 135.6C452 135.6 452.2 136.9 453.5 136.9C454.8 136.9 455 135.6 455 135.6V132.5C455 132.7 455 131.6 453.5 131.6Z" fill="black"/>
<path id="XMLID 53" d="M460.5 131.6C460.5 131.6 459 131.6 459 132.7C459 133.8 459 135.6 459 135.6C459 135.6 459.2 136.9 460.5 136.9C461.8 136.9 462 135.6 462 135.6V132.5C462 132.7 462 131.6 460.5 131.6Z" fill="black"/>
<path id="XMLID 54" d="M475.5 131.6C475.5 131.6 474 131.6 474 132.7C474 133.8 474 135.6 474 135.6C474 135.6 474.2 136.9 475.5 136.9C476.8 136.9 477 135.6 477 135.6V132.5C477 132.7 477 131.6 475.5 131.6Z" fill="black"/>
<path id="XMLID 55" d="M483.5 131.6C483.5 131.6 482 131.6 482 132.7C482 133.8 482 135.6 482 135.6C482 135.6 482.2 136.9 483.5 136.9C484.8 136.9 485 135.6 485 135.6V132.5C485 132.7 485 131.6 483.5 131.6Z" fill="black"/>
<path id="XMLID 56" d="M491.5 131.6C491.5 131.6 490 131.6 490 132.7C490 133.8 490 135.6 490 135.6C490 135.6 490.2 136.9 491.5 136.9C492.8 136.9 493 135.6 493 135.6V132.5C493 132.7 493 131.6 491.5 131.6Z" fill="black"/>
<path id="XMLID 57" d="M499.5 131.6C499.5 131.6 498 131.6 498 132.7C498 133.8 498 135.6 498 135.6C498 135.6 498.2 136.9 499.5 136.9C500.8 136.9 501 135.6 501 135.6V132.5C501 132.7 501 131.6 499.5 131.6Z" fill="black"/>
<path id="XMLID 58" d="M76 127.5H67C67 127.5 64.4 126.1 64.1 130.6C63.8 135.2 63.7 148.7 63.7 148.7C63.7 148.7 63.6 150.4 64.8 150.4C66 150.4 77.1 150.4 77.1 150.4C77.1 150.4 77.8 149.5 77.8 147.3C77.8 145.1 78.2 127.6 78.2 127.6C78.2 127.6 77.9 126.5 76 127.5Z" stroke="#768CA5" stroke-miterlimit="10"/>
<path id="XMLID 18" d="M76 132.7V136.7C76 136.7 76.1 137.9 75 137.9C73.9 137.9 74 136.7 74 136.7V132.7C74 132.7 74 132 75 132C76 132 76 132.7 76 132.7Z" fill="#161616"/>
<path id="XMLID 61" d="M183 127.5H174C174 127.5 171.4 126.1 171.1 130.6C170.8 135.2 170.7 148.7 170.7 148.7C170.7 148.7 170.6 150.4 171.8 150.4C173 150.4 184.1 150.4 184.1 150.4C184.1 150.4 184.8 149.5 184.8 147.3C184.8 145.1 185.2 127.6 185.2 127.6C185.2 127.6 184.9 126.5 183 127.5Z" stroke="#768CA5" stroke-miterlimit="10"/>
<path id="XMLID 60" d="M183 132.7V136.7C183 136.7 183.1 137.9 182 137.9C180.9 137.9 181 136.7 181 136.7V132.7C181 132.7 181 132 182 132C183 132 183 132.7 183 132.7Z" fill="#161616"/>
<path id="XMLID 63" d="M524 127.5H515C515 127.5 512.4 126.1 512.1 130.6C511.8 135.2 511.7 148.7 511.7 148.7C511.7 148.7 511.6 150.4 512.8 150.4C514 150.4 525.1 150.4 525.1 150.4C525.1 150.4 525.8 149.5 525.8 147.3C525.8 145.1 526.2 127.6 526.2 127.6C526.2 127.6 525.9 126.5 524 127.5Z" stroke="#768CA5" stroke-miterlimit="10"/>
<path id="XMLID 62" d="M524 132.7V136.7C524 136.7 524.1 137.9 523 137.9C521.9 137.9 522 136.7 522 136.7V132.7C522 132.7 522 132 523 132C524 132 524 132.7 524 132.7Z" fill="#161616"/>
<path id="XMLID 6" d="M505.7 54C505.7 54 496.4 58 471.7 66.6C447 75.3 380.4 113.6 329.7 131C306.1 139.1 288.9 143 277.2 145L262.1 146.5C262.1 146.5 222.1 143 208.3 151.2C194.5 159.4 270 171.2 305.5 169.4C305.5 169.4 326.2 156.4 341.2 151.8C357 151.5 365.8 150.4 365.8 150.4C365.8 150.4 365.8 146.7 396.8 133.1C427.8 119.5 463.8 91.6 469.5 86.6C475 81.5 518 54 518 54H505.7Z" fill="#1A3F69"/>
<path id="XMLID 4" d="M423.8 129.8L415.5 124.5C415.5 124.5 382.5 124.6 377.2 127.1C376.3 127.6 403.2 130.8 423.8 129.8Z" fill="#768CA5"/>
<path id="XMLID 5" d="M388.8 137.9C390.2 139.7 397.6 143.4 397.6 143.4C397.6 143.4 388.2 143.2 368.8 143.4C349.5 143.6 346.9 140.7 346.9 140.7C346.1 140.9 363.2 138.6 388.8 137.9Z" fill="#768CA5"/>
<path id="XMLID 15" d="M291.9 178.8C293 178.5 294 178.2 294.8 178L298.6 176.9C299.1 176.5 299.2 175.9 298.7 175.4C297.9 174.4 277.5 167 277.5 167L271.9 166.7L272.2 184.9C272.3 184.9 284.7 180.9 291.9 178.8Z" fill="#768CA5"/>
<path id="XMLID 66" d="M277.4 183.2L277.3 181.8C277.2 181.4 277.2 181.2 277.2 180.6V180.9C277 175.9 278 166.3 278 166.3C277.5 165.4 264.4 162.1 264.4 162.1C264.4 162.1 254.2 185.5 262.5 185.8C270.8 186.1 275.9 184.3 277.6 184.1C278.4 184 278.6 183.3 278.7 182.7L277.4 183.2Z" fill="black"/>
<path id="XMLID 10" d="M269 157.2C269 157.2 240.7 147.8 216 149.6C191.3 151.4 192.7 154.4 192.2 163.7C191.7 173 193 191 196 194C199 197 206.1 198.1 233.3 197.4C260.5 196.7 270.3 192.6 270.3 192.6C270.3 192.6 263.7 191.3 263.7 190.2C263.7 189.1 267.8 187.8 269.1 187.8C269.1 187.8 263.6 186 263.6 185C263.6 184 267.6 181.9 267.6 181.9C267.6 181.9 263.2 180.5 263.2 178.8C263.2 177.1 267.6 176 267.6 176C267.6 176 263.6 174.1 263.3 172.2C263 170.3 267.3 169.6 267.3 169.6C267.3 169.6 263.9 167.6 264 166C264.1 164.4 268 164.4 268 164.4C268 164.4 264.5 162.4 264.5 161C264.5 159.6 267.6 159.5 267.6 159.5C267.6 159.5 265.7 158.4 265.8 157.7C265.9 157 269 157.2 269 157.2Z" fill="#768CA5"/>
</g>
<g id="flap" style="transform-origin: center;">
  <path d="M700.8 120.7C700.8 120.7 665.2 121.8 641.3 124.7C640.4 124.8 639.4 124.9 638.6 125L634.6 125.5C633.5 126.3 632.7 127.6 632.7 129.2C632.7 131.6 634.6 133.6 637 133.6L638.5 133.3C638.7 133.2 638.9 133.1 639.1 133C640.4 132.9 641.8 132.7 643.4 132.4C656.8 129.7 700.8 120.7 700.8 120.7Z" fill="#FF5752"/>
</g>
</g>
</svg>
