<svg width="717" height="521" viewBox="0 0 717 521" fill="none" xmlns="http://www.w3.org/2000/svg">
<g id="plane-container">
<g id="plane-body">
<path id="XMLID 9" d="M667.5 289.4C666.5 289.4 647.2 285.1 633.9 282C613.7 278.1 505.6 267.9 505.6 267.9C504.4 267.8 503.5 268 502.5 268C470.5 267.7 264.6 268.1 264.6 268.1H155.6C155.6 268.1 65.8 263.7 37.3 288.9C8.80001 314.1 9.30001 316.6 12.5 320.1C15.7 323.6 32 336.8 101 336.5C170 336.2 336.7 339.4 352.5 338.9C368.3 338.4 468.5 336.6 490.5 334.6C512.5 332.6 603.7 314.8 630 306.6C656.3 298.4 664.2 295.8 665.2 295.8C666.2 295.8 669 289.4 667.5 289.4Z" fill="#A4B3C4"/>
<path id="XMLID 8" d="M638.4 287.3C638.4 285.8 639.1 284.4 640.3 283.6C639.3 283.7 638.4 283.8 637.4 283.9H637.3C635.5 284.1 633.8 284.3 632.1 284.5H631.8C604.5 287.9 582.3 291.5 582.3 291.5C582.3 291.5 570 291.2 570.5 293.8C571 296.5 574.3 297.1 582.3 297.8C590.3 298.5 601 297.6 617.5 295.8C620.7 295.4 626 294.6 632.4 293.4C635.6 292.8 639.2 292.2 642.9 291.5H642.8C640.3 291.8 638.4 289.8 638.4 287.3Z" fill="#1B4069"/>
<path id="XMLID 3" d="M666 164.6C666 164.6 637.2 164.9 629 173.6C620.8 182.3 560 243.9 556.2 247.6C552.4 251.3 538.9 268.4 513.4 268.6C513.4 268.6 613.1 282.9 620.4 279.9L666 164.6Z" fill="#1B4069"/>
<path id="XMLID 12" d="M34.4 295.2L40.5 289.1C40.5 289.1 40.5 288.4 43.7 288.8C46.9 289.2 45.4 295.2 45.4 295.2L41.9 296.7C41.9 296.8 31.3 297.7 34.4 295.2Z" fill="#171717"/>
<path id="XMLID 11" d="M37.2 288.7L38.7 289.1L31.2 296.9C31.2 296.9 28.6 296.8 28.3 296.3C28 295.8 37.2 288.7 37.2 288.7Z" fill="#171717"/>
<path id="XMLID 16" d="M81.6 290.9V294.9C81.6 294.9 81.7 296.1 80.6 296.1C79.5 296.1 79.6 294.9 79.6 294.9V290.9C79.6 290.9 79.6 290.2 80.6 290.2C81.6 290.2 81.6 290.9 81.6 290.9Z" fill="#171717"/>
<path id="XMLID 17" d="M99.1 289.8C99.1 289.8 97.6 289.8 97.6 290.9C97.6 292 97.6 293.8 97.6 293.8C97.6 293.8 97.8 295.1 99.1 295.1C100.4 295.1 100.6 293.8 100.6 293.8V290.7C100.6 290.9 100.6 289.8 99.1 289.8Z" fill="#010101"/>
<path id="XMLID 19" d="M107.1 289.8C107.1 289.8 105.6 289.8 105.6 290.9C105.6 292 105.6 293.8 105.6 293.8C105.6 293.8 105.8 295.1 107.1 295.1C108.4 295.1 108.6 293.8 108.6 293.8V290.7C108.6 290.9 108.6 289.8 107.1 289.8Z" fill="#010101"/>
<path id="XMLID 20" d="M114.1 289.8C114.1 289.8 112.6 289.8 112.6 290.9C112.6 292 112.6 293.8 112.6 293.8C112.6 293.8 112.8 295.1 114.1 295.1C115.4 295.1 115.6 293.8 115.6 293.8V290.7C115.6 290.9 115.6 289.8 114.1 289.8Z" fill="#010101"/>
<path id="XMLID 21" d="M121.1 289.8C121.1 289.8 119.6 289.8 119.6 290.9C119.6 292 119.6 293.8 119.6 293.8C119.6 293.8 119.8 295.1 121.1 295.1C122.4 295.1 122.6 293.8 122.6 293.8V290.7C122.6 290.9 122.6 289.8 121.1 289.8Z" fill="#010101"/>
<path id="XMLID 22" d="M128.1 289.8C128.1 289.8 126.6 289.8 126.6 290.9C126.6 292 126.6 293.8 126.6 293.8C126.6 293.8 126.8 295.1 128.1 295.1C129.4 295.1 129.6 293.8 129.6 293.8V290.7C129.6 290.9 129.6 289.8 128.1 289.8Z" fill="#010101"/>
<path id="XMLID 23" d="M136.1 289.8C136.1 289.8 134.6 289.8 134.6 290.9C134.6 292 134.6 293.8 134.6 293.8C134.6 293.8 134.8 295.1 136.1 295.1C137.4 295.1 137.6 293.8 137.6 293.8V290.7C137.6 290.9 137.6 289.8 136.1 289.8Z" fill="#010101"/>
<path id="XMLID 24" d="M143.1 289.8C143.1 289.8 141.6 289.8 141.6 290.9C141.6 292 141.6 293.8 141.6 293.8C141.6 293.8 141.8 295.1 143.1 295.1C144.4 295.1 144.6 293.8 144.6 293.8V290.7C144.6 290.9 144.6 289.8 143.1 289.8Z" fill="#010101"/>
<path id="XMLID 25" d="M150.1 289.8C150.1 289.8 148.6 289.8 148.6 290.9C148.6 292 148.6 293.8 148.6 293.8C148.6 293.8 148.8 295.1 150.1 295.1C151.4 295.1 151.6 293.8 151.6 293.8V290.7C151.6 290.9 151.6 289.8 150.1 289.8Z" fill="#010101"/>
<path id="XMLID 26" d="M158.1 289.8C158.1 289.8 156.6 289.8 156.6 290.9C156.6 292 156.6 293.8 156.6 293.8C156.6 293.8 156.8 295.1 158.1 295.1C159.4 295.1 159.6 293.8 159.6 293.8V290.7C159.6 290.9 159.6 289.8 158.1 289.8Z" fill="#010101"/>
<path id="XMLID 27" d="M202.1 289.8C202.1 289.8 200.6 289.8 200.6 290.9C200.6 292 200.6 293.8 200.6 293.8C200.6 293.8 200.8 295.1 202.1 295.1C203.4 295.1 203.6 293.8 203.6 293.8V290.7C203.6 290.9 203.6 289.8 202.1 289.8Z" fill="#010101"/>
<path id="XMLID 28" d="M209.1 289.8C209.1 289.8 207.6 289.8 207.6 290.9C207.6 292 207.6 293.8 207.6 293.8C207.6 293.8 207.8 295.1 209.1 295.1C210.4 295.1 210.6 293.8 210.6 293.8V290.7C210.6 290.9 210.6 289.8 209.1 289.8Z" fill="#010101"/>
<path id="XMLID 29" d="M216.1 289.8C216.1 289.8 214.6 289.8 214.6 290.9C214.6 292 214.6 293.8 214.6 293.8C214.6 293.8 214.8 295.1 216.1 295.1C217.4 295.1 217.6 293.8 217.6 293.8V290.7C217.6 290.9 217.6 289.8 216.1 289.8Z" fill="#010101"/>
<path id="XMLID 30" d="M224.1 289.8C224.1 289.8 222.6 289.8 222.6 290.9C222.6 292 222.6 293.8 222.6 293.8C222.6 293.8 222.8 295.1 224.1 295.1C225.4 295.1 225.6 293.8 225.6 293.8V290.7C225.6 290.9 225.6 289.8 224.1 289.8Z" fill="#010101"/>
<path id="XMLID 31" d="M231.1 289.8C231.1 289.8 229.6 289.8 229.6 290.9C229.6 292 229.6 293.8 229.6 293.8C229.6 293.8 229.8 295.1 231.1 295.1C232.4 295.1 232.6 293.8 232.6 293.8V290.7C232.6 290.9 232.6 289.8 231.1 289.8Z" fill="#010101"/>
<path id="XMLID 32" d="M238.1 289.8C238.1 289.8 236.6 289.8 236.6 290.9C236.6 292 236.6 293.8 236.6 293.8C236.6 293.8 236.8 295.1 238.1 295.1C239.4 295.1 239.6 293.8 239.6 293.8V290.7C239.6 290.9 239.6 289.8 238.1 289.8Z" fill="#010101"/>
<path id="XMLID 33" d="M246.1 289.8C246.1 289.8 244.6 289.8 244.6 290.9C244.6 292 244.6 293.8 244.6 293.8C244.6 293.8 244.8 295.1 246.1 295.1C247.4 295.1 247.6 293.8 247.6 293.8V290.7C247.6 290.9 247.6 289.8 246.1 289.8Z" fill="#010101"/>
<path id="XMLID 34" d="M253.1 289.8C253.1 289.8 251.6 289.8 251.6 290.9C251.6 292 251.6 293.8 251.6 293.8C251.6 293.8 251.8 295.1 253.1 295.1C254.4 295.1 254.6 293.8 254.6 293.8V290.7C254.6 290.9 254.6 289.8 253.1 289.8Z" fill="#010101"/>
<path id="XMLID 35" d="M260.1 289.8C260.1 289.8 258.6 289.8 258.6 290.9C258.6 292 258.6 293.8 258.6 293.8C258.6 293.8 258.8 295.1 260.1 295.1C261.4 295.1 261.6 293.8 261.6 293.8V290.7C261.6 290.9 261.6 289.8 260.1 289.8Z" fill="#010101"/>
<path id="XMLID 36" d="M267.1 289.8C267.1 289.8 265.6 289.8 265.6 290.9C265.6 292 265.6 293.8 265.6 293.8C265.6 293.8 265.8 295.1 267.1 295.1C268.4 295.1 268.6 293.8 268.6 293.8V290.7C268.6 290.9 268.6 289.8 267.1 289.8Z" fill="#010101"/>
<path id="XMLID 37" d="M275.1 289.8C275.1 289.8 273.6 289.8 273.6 290.9C273.6 292 273.6 293.8 273.6 293.8C273.6 293.8 273.8 295.1 275.1 295.1C276.4 295.1 276.6 293.8 276.6 293.8V290.7C276.6 290.9 276.6 289.8 275.1 289.8Z" fill="#010101"/>
<path id="XMLID 38" d="M282.1 289.8C282.1 289.8 280.6 289.8 280.6 290.9C280.6 292 280.6 293.8 280.6 293.8C280.6 293.8 280.8 295.1 282.1 295.1C283.4 295.1 283.6 293.8 283.6 293.8V290.7C283.6 290.9 283.6 289.8 282.1 289.8Z" fill="#010101"/>
<path id="XMLID 39" d="M289.1 289.8C289.1 289.8 287.6 289.8 287.6 290.9C287.6 292 287.6 293.8 287.6 293.8C287.6 293.8 287.8 295.1 289.1 295.1C290.4 295.1 290.6 293.8 290.6 293.8V290.7C290.6 290.9 290.6 289.8 289.1 289.8Z" fill="#010101"/>
<path id="XMLID 40" d="M297.1 289.8C297.1 289.8 295.6 289.8 295.6 290.9C295.6 292 295.6 293.8 295.6 293.8C295.6 293.8 295.8 295.1 297.1 295.1C298.4 295.1 298.6 293.8 298.6 293.8V290.7C298.6 290.9 298.6 289.8 297.1 289.8Z" fill="#010101"/>
<path id="XMLID 41" d="M304.1 289.8C304.1 289.8 302.6 289.8 302.6 290.9C302.6 292 302.6 293.8 302.6 293.8C302.6 293.8 302.8 295.1 304.1 295.1C305.4 295.1 305.6 293.8 305.6 293.8V290.7C305.6 290.9 305.6 289.8 304.1 289.8Z" fill="#010101"/>
<path id="XMLID 42" d="M312.1 289.8C312.1 289.8 310.6 289.8 310.6 290.9C310.6 292 310.6 293.8 310.6 293.8C310.6 293.8 310.8 295.1 312.1 295.1C313.4 295.1 313.6 293.8 313.6 293.8V290.7C313.6 290.9 313.6 289.8 312.1 289.8Z" fill="#010101"/>
<path id="XMLID 43" d="M319.1 289.8C319.1 289.8 317.6 289.8 317.6 290.9C317.6 292 317.6 293.8 317.6 293.8C317.6 293.8 317.8 295.1 319.1 295.1C320.4 295.1 320.6 293.8 320.6 293.8V290.7C320.6 290.9 320.6 289.8 319.1 289.8Z" fill="#010101"/>
<path id="XMLID 44" d="M326.1 289.8C326.1 289.8 324.6 289.8 324.6 290.9C324.6 292 324.6 293.8 324.6 293.8C324.6 293.8 324.8 295.1 326.1 295.1C327.4 295.1 327.6 293.8 327.6 293.8V290.7C327.6 290.9 327.6 289.8 326.1 289.8Z" fill="#010101"/>
<path id="XMLID 45" d="M407.1 289.8C407.1 289.8 405.6 289.8 405.6 290.9C405.6 292 405.6 293.8 405.6 293.8C405.6 293.8 405.8 295.1 407.1 295.1C408.4 295.1 408.6 293.8 408.6 293.8V290.7C408.6 290.9 408.6 289.8 407.1 289.8Z" fill="#010101"/>
<path id="XMLID 46" d="M414.1 289.8C414.1 289.8 412.6 289.8 412.6 290.9C412.6 292 412.6 293.8 412.6 293.8C412.6 293.8 412.8 295.1 414.1 295.1C415.4 295.1 415.6 293.8 415.6 293.8V290.7C415.6 290.9 415.6 289.8 414.1 289.8Z" fill="#010101"/>
<path id="XMLID 47" d="M422.1 289.8C422.1 289.8 420.6 289.8 420.6 290.9C420.6 292 420.6 293.8 420.6 293.8C420.6 293.8 420.8 295.1 422.1 295.1C423.4 295.1 423.6 293.8 423.6 293.8V290.7C423.6 290.9 423.6 289.8 422.1 289.8Z" fill="#010101"/>
<path id="XMLID 48" d="M429.1 289.8C429.1 289.8 427.6 289.8 427.6 290.9C427.6 292 427.6 293.8 427.6 293.8C427.6 293.8 427.8 295.1 429.1 295.1C430.4 295.1 430.6 293.8 430.6 293.8V290.7C430.6 290.9 430.6 289.8 429.1 289.8Z" fill="#010101"/>
<path id="XMLID 49" d="M437.1 289.8C437.1 289.8 435.6 289.8 435.6 290.9C435.6 292 435.6 293.8 435.6 293.8C435.6 293.8 435.8 295.1 437.1 295.1C438.4 295.1 438.6 293.8 438.6 293.8V290.7C438.6 290.9 438.6 289.8 437.1 289.8Z" fill="#010101"/>
<path id="XMLID 50" d="M444.1 289.8C444.1 289.8 442.6 289.8 442.6 290.9C442.6 292 442.6 293.8 442.6 293.8C442.6 293.8 442.8 295.1 444.1 295.1C445.4 295.1 445.6 293.8 445.6 293.8V290.7C445.6 290.9 445.6 289.8 444.1 289.8Z" fill="#010101"/>
<path id="XMLID 51" d="M451.1 289.8C451.1 289.8 449.6 289.8 449.6 290.9C449.6 292 449.6 293.8 449.6 293.8C449.6 293.8 449.8 295.1 451.1 295.1C452.4 295.1 452.6 293.8 452.6 293.8V290.7C452.6 290.9 452.6 289.8 451.1 289.8Z" fill="#010101"/>
<path id="XMLID 52" d="M459.1 289.8C459.1 289.8 457.6 289.8 457.6 290.9C457.6 292 457.6 293.8 457.6 293.8C457.6 293.8 457.8 295.1 459.1 295.1C460.4 295.1 460.6 293.8 460.6 293.8V290.7C460.6 290.9 460.6 289.8 459.1 289.8Z" fill="#010101"/>
<path id="XMLID 53" d="M466.1 289.8C466.1 289.8 464.6 289.8 464.6 290.9C464.6 292 464.6 293.8 464.6 293.8C464.6 293.8 464.8 295.1 466.1 295.1C467.4 295.1 467.6 293.8 467.6 293.8V290.7C467.6 290.9 467.6 289.8 466.1 289.8Z" fill="#010101"/>
<path id="XMLID 54" d="M481.1 289.8C481.1 289.8 479.6 289.8 479.6 290.9C479.6 292 479.6 293.8 479.6 293.8C479.6 293.8 479.8 295.1 481.1 295.1C482.4 295.1 482.6 293.8 482.6 293.8V290.7C482.6 290.9 482.6 289.8 481.1 289.8Z" fill="#010101"/>
<path id="XMLID 55" d="M489.1 289.8C489.1 289.8 487.6 289.8 487.6 290.9C487.6 292 487.6 293.8 487.6 293.8C487.6 293.8 487.8 295.1 489.1 295.1C490.4 295.1 490.6 293.8 490.6 293.8V290.7C490.6 290.9 490.6 289.8 489.1 289.8Z" fill="#010101"/>
<path id="XMLID 56" d="M497.1 289.8C497.1 289.8 495.6 289.8 495.6 290.9C495.6 292 495.6 293.8 495.6 293.8C495.6 293.8 495.8 295.1 497.1 295.1C498.4 295.1 498.6 293.8 498.6 293.8V290.7C498.6 290.9 498.6 289.8 497.1 289.8Z" fill="#010101"/>
<path id="XMLID 57" d="M505.1 289.8C505.1 289.8 503.6 289.8 503.6 290.9C503.6 292 503.6 293.8 503.6 293.8C503.6 293.8 503.8 295.1 505.1 295.1C506.4 295.1 506.6 293.8 506.6 293.8V290.7C506.6 290.9 506.6 289.8 505.1 289.8Z" fill="#010101"/>
<path id="XMLID 58" d="M81.5 285.9H72.5C72.5 285.9 69.9 284.4 69.6 289C69.3 293.6 69.2 307.2 69.2 307.2C69.2 307.2 69.1 309 70.3 309C71.5 309 82.6 309 82.6 309C82.6 309 83.3 308.1 83.3 305.8C83.3 303.5 83.7 286.2 83.7 286.2C83.7 286.2 83.5 284.9 81.5 285.9Z" stroke="#768CA5" stroke-miterlimit="10"/>
<path id="XMLID 18" d="M81.6 290.9V294.9C81.6 294.9 81.7 296.1 80.6 296.1C79.5 296.1 79.6 294.9 79.6 294.9V290.9C79.6 290.9 79.6 290.2 80.6 290.2C81.6 290.2 81.6 290.9 81.6 290.9Z" fill="#171717"/>
<path id="XMLID 61" d="M188.5 285.9H179.5C179.5 285.9 176.9 284.4 176.6 289C176.3 293.6 176.2 307.2 176.2 307.2C176.2 307.2 176.1 309 177.3 309C178.5 309 189.6 309 189.6 309C189.6 309 190.3 308.1 190.3 305.8C190.3 303.5 190.7 286.2 190.7 286.2C190.7 286.2 190.5 284.9 188.5 285.9Z" stroke="#768CA5" stroke-miterlimit="10"/>
<path id="XMLID 60" d="M188.6 290.9V294.9C188.6 294.9 188.7 296.1 187.6 296.1C186.5 296.1 186.6 294.9 186.6 294.9V290.9C186.6 290.9 186.6 290.2 187.6 290.2C188.6 290.2 188.6 290.9 188.6 290.9Z" fill="#171717"/>
<path id="XMLID 63" d="M529.5 285.9H520.5C520.5 285.9 517.9 284.4 517.6 289C517.3 293.6 517.2 307.2 517.2 307.2C517.2 307.2 517.1 309 518.3 309C519.5 309 530.6 309 530.6 309C530.6 309 531.3 308.1 531.3 305.8C531.3 303.5 531.7 286.2 531.7 286.2C531.7 286.2 531.5 284.9 529.5 285.9Z" stroke="#768CA5" stroke-miterlimit="10"/>
<path id="XMLID 62" d="M529.6 290.9V294.9C529.6 294.9 529.7 296.1 528.6 296.1C527.5 296.1 527.6 294.9 527.6 294.9V290.9C527.6 290.9 527.6 290.2 528.6 290.2C529.6 290.2 529.6 290.9 529.6 290.9Z" fill="#171717"/>
<path id="XMLID 6" d="M511.2 212.4C511.2 212.4 501.9 216.3 477.2 224.9C452.5 233.6 385.9 271.9 335.2 289.2C311.6 297.3 294.4 301.2 282.7 303.2L267.6 304.7C267.6 304.7 227.6 301.2 213.8 309.4C200 317.6 275.5 329.4 311 327.6C311 327.6 331.7 314.6 346.7 310C362.5 309.7 371.3 308.6 371.3 308.6C371.3 308.6 371.3 304.9 402.3 291.3C433.3 277.7 469.3 249.9 475 244.9C480.7 239.9 523.7 212.5 523.7 212.5H511.2V212.4Z" fill="#1B4069"/>
<path id="XMLID 4" d="M429.3 288L421 282.7C421 282.7 388 282.8 382.7 285.3C381.8 285.8 408.7 289 429.3 288Z" fill="#768CA5"/>
<path id="XMLID 5" d="M394.4 296.1C395.8 297.9 403.2 301.6 403.2 301.6C403.2 301.6 393.8 301.4 374.4 301.6C355.1 301.8 352.5 298.9 352.5 298.9C351.6 299.1 368.7 296.8 394.4 296.1Z" fill="#768CA5"/>
<path id="XMLID 15" d="M297.4 337C298.5 336.7 299.5 336.4 300.3 336.2L304.1 335.1C304.6 334.7 304.7 334.1 304.2 333.6C303.4 332.6 283 325.2 283 325.2L277.4 324.9L277.7 343.1C277.8 343.1 290.3 339.1 297.4 337Z" fill="#768CA5"/>
<path id="XMLID 66" d="M282.9 341.4L282.8 340C282.7 339.6 282.7 339.5 282.7 338.9V339.3C282.5 334.3 283.5 324.6 283.5 324.6C283 323.7 269.9 320.4 269.9 320.4C269.9 320.4 259.7 343.8 268 344.1C276.3 344.4 281.4 342.6 283.1 342.4C283.9 342.3 284.1 341.6 284.2 341L282.9 341.4Z" fill="#010101"/>
<path id="XMLID 10" d="M274.5 315.4C274.5 315.4 246.2 306 221.5 307.8C196.8 309.6 198.2 312.6 197.7 321.9C197.2 331.2 198.5 349.2 201.5 352.2C204.5 355.2 211.6 356.3 238.8 355.6C266 354.9 275.8 350.8 275.8 350.8C275.8 350.8 269.2 349.5 269.2 348.4C269.2 347.3 273.3 346 274.6 346C274.6 346 269.1 344.2 269.1 343.2C269.1 342.2 273.1 340.1 273.1 340.1C273.1 340.1 268.7 338.7 268.7 337C268.7 335.3 273.1 334.2 273.1 334.2C273.1 334.2 269.1 332.3 268.8 330.4C268.5 328.5 272.8 327.8 272.8 327.8C272.8 327.8 269.4 325.8 269.5 324.2C269.6 322.6 273.5 322.6 273.5 322.6C273.5 322.6 270 320.6 270 319.2C270 317.8 273.1 317.7 273.1 317.7C273.1 317.7 271.2 316.6 271.3 315.9C271.4 315.2 274.5 315.4 274.5 315.4Z" fill="#768CA5"/>
</g>
<g id="flap">
<path id="XMLID 14" d="M706.4 278.9C706.4 278.9 670.8 280 646.9 282.9C646 283 645 283.1 644.2 283.2L640.2 283.7C639.1 284.5 638.3 285.8 638.3 287.4C638.3 289.8 640.2 291.8 642.6 291.8L644.1 291.5C644.3 291.4 644.5 291.3 644.7 291.2C646 291.1 647.4 290.9 649 290.6C662.4 287.9 706.4 278.9 706.4 278.9Z" fill="#F15A55"/>
</g>
</g>
</svg>
