<?xml version="1.0" encoding="utf-8"?>
<!-- Generator: Adobe Illustrator 19.0.0, SVG Export Plug-In . SVG Version: 6.00 Build 0)  -->
<svg version="1.1" id="Layer_1" xmlns="http://www.w3.org/2000/svg" xmlns:xlink="http://www.w3.org/1999/xlink" x="0px" y="0px"
	 viewBox="0 0 720 235.5" style="enable-background:new 0 0 720 235.5;" xml:space="preserve">
<style type="text/css">
	.st0{fill:#A3B2C3;}
	.st1{fill:#161616;}
	.st2{fill:#1A3F69;}
	.st3{fill:none;stroke:#768CA5;stroke-miterlimit:10;}
	.st4{fill:#768CA5;}
	.st5{fill:#FF5752;}
</style>
<g id="XMLID_127_">
	<g id="XMLID_131_">
		<path id="XMLID_9_" class="st0" d="M668.8,146.9c-1,0-20.6-4.4-33.9-7.4c-20.2-3.9-128.6-14.1-128.6-14.1v0c-1,0-1.8,0.2-2.9,0.2
			c-32-0.3-237.7,0.2-237.7,0.2h-109c0,0-89.7-4.5-118.2,20.8s-28,27.6-24.8,31.1s19.5,16.6,88.5,16.3s235.8,2.9,251.5,2.4
			s116-2.3,138-4.3c22-2,113.3-19.8,139.5-28s34.3-10.8,35.3-10.8S670.3,146.9,668.8,146.9z"/>
		<path id="XMLID_7_" class="st1" d="M650.4,148.1c0,0-0.1,0-0.1,0C650.3,148.1,650.3,148.1,650.4,148.1
			C650.3,148.1,650.3,148.1,650.4,148.1z"/>
		<path id="XMLID_8_" class="st2" d="M639.6,144.9c0-1.5,0.7-2.9,1.9-3.7l0,0c-1,0.1-1.9,0.2-2.9,0.3l0,0l-0.1,0
			c-1.8,0.2-3.5,0.4-5.2,0.6l-0.3,0v0c-27.3,3.4-49.5,7-49.5,7s-12.3-0.3-11.8,2.3c0.5,2.7,3.8,3.3,11.8,4c8,0.7,18.7-0.2,35.2-2
			c3.2-0.4,8.5-1.2,14.9-2.4v0l0,0c3.2-0.6,6.8-1.2,10.5-1.9c0,0-0.1,0-0.1,0C641.6,149.3,639.6,147.3,639.6,144.9z"/>
		<path id="XMLID_3_" class="st2" d="M667.3,22.2c0,0-28.8,0.3-37,9s-69,70.3-72.8,74s-17.3,20.8-42.8,21c0,0,99.7,14.3,107,11.3
			L667.3,22.2z"/>
		<path id="XMLID_12_" class="st1" d="M35.7,152.8l6.1-6.1c0,0,0-0.7,3.2-0.3s1.7,6.4,1.7,6.4l-3.5,1.5
			C43.2,154.3,32.6,155.2,35.7,152.8z"/>
		<path id="XMLID_11_" class="st1" d="M38.5,146.3l1.5,0.4l-7.5,7.8c0,0-2.6-0.1-2.9-0.6S38.5,146.3,38.5,146.3z"/>
		<path id="XMLID_16_" class="st1" d="M82.4,148.4v4c0,0,0.1,1.2-1,1.2s-1-1.2-1-1.2v-4c0,0,0-0.7,1-0.7S82.4,148.4,82.4,148.4z"/>
		<path id="XMLID_17_" d="M99.9,147.4c0,0-1.5,0-1.5,1.1c0,1.1,0,2.9,0,2.9s0.2,1.3,1.5,1.3s1.5-1.3,1.5-1.3v-3.1
			C101.4,148.4,101.4,147.4,99.9,147.4z"/>
		<path id="XMLID_19_" d="M107.9,147.4c0,0-1.5,0-1.5,1.1c0,1.1,0,2.9,0,2.9s0.2,1.3,1.5,1.3s1.5-1.3,1.5-1.3v-3.1
			C109.4,148.4,109.4,147.4,107.9,147.4z"/>
		<path id="XMLID_20_" d="M114.9,147.4c0,0-1.5,0-1.5,1.1c0,1.1,0,2.9,0,2.9s0.2,1.3,1.5,1.3s1.5-1.3,1.5-1.3v-3.1
			C116.4,148.4,116.4,147.4,114.9,147.4z"/>
		<path id="XMLID_21_" d="M121.9,147.4c0,0-1.5,0-1.5,1.1c0,1.1,0,2.9,0,2.9s0.2,1.3,1.5,1.3s1.5-1.3,1.5-1.3v-3.1
			C123.4,148.4,123.4,147.4,121.9,147.4z"/>
		<path id="XMLID_22_" d="M128.9,147.4c0,0-1.5,0-1.5,1.1c0,1.1,0,2.9,0,2.9s0.2,1.3,1.5,1.3s1.5-1.3,1.5-1.3v-3.1
			C130.4,148.4,130.4,147.4,128.9,147.4z"/>
		<path id="XMLID_23_" d="M136.9,147.4c0,0-1.5,0-1.5,1.1c0,1.1,0,2.9,0,2.9s0.2,1.3,1.5,1.3s1.5-1.3,1.5-1.3v-3.1
			C138.4,148.4,138.4,147.4,136.9,147.4z"/>
		<path id="XMLID_24_" d="M143.9,147.4c0,0-1.5,0-1.5,1.1c0,1.1,0,2.9,0,2.9s0.2,1.3,1.5,1.3s1.5-1.3,1.5-1.3v-3.1
			C145.4,148.4,145.4,147.4,143.9,147.4z"/>
		<path id="XMLID_25_" d="M150.9,147.4c0,0-1.5,0-1.5,1.1c0,1.1,0,2.9,0,2.9s0.2,1.3,1.5,1.3s1.5-1.3,1.5-1.3v-3.1
			C152.4,148.4,152.4,147.4,150.9,147.4z"/>
		<path id="XMLID_26_" d="M158.9,147.4c0,0-1.5,0-1.5,1.1c0,1.1,0,2.9,0,2.9s0.2,1.3,1.5,1.3s1.5-1.3,1.5-1.3v-3.1
			C160.4,148.4,160.4,147.4,158.9,147.4z"/>
		<path id="XMLID_27_" d="M202.9,147.4c0,0-1.5,0-1.5,1.1c0,1.1,0,2.9,0,2.9s0.2,1.3,1.5,1.3s1.5-1.3,1.5-1.3v-3.1
			C204.4,148.4,204.4,147.4,202.9,147.4z"/>
		<path id="XMLID_28_" d="M209.9,147.4c0,0-1.5,0-1.5,1.1c0,1.1,0,2.9,0,2.9s0.2,1.3,1.5,1.3s1.5-1.3,1.5-1.3v-3.1
			C211.4,148.4,211.4,147.4,209.9,147.4z"/>
		<path id="XMLID_29_" d="M216.9,147.4c0,0-1.5,0-1.5,1.1c0,1.1,0,2.9,0,2.9s0.2,1.3,1.5,1.3s1.5-1.3,1.5-1.3v-3.1
			C218.4,148.4,218.4,147.4,216.9,147.4z"/>
		<path id="XMLID_30_" d="M224.9,147.4c0,0-1.5,0-1.5,1.1c0,1.1,0,2.9,0,2.9s0.2,1.3,1.5,1.3s1.5-1.3,1.5-1.3v-3.1
			C226.4,148.4,226.4,147.4,224.9,147.4z"/>
		<path id="XMLID_31_" d="M231.9,147.4c0,0-1.5,0-1.5,1.1c0,1.1,0,2.9,0,2.9s0.2,1.3,1.5,1.3s1.5-1.3,1.5-1.3v-3.1
			C233.4,148.4,233.4,147.4,231.9,147.4z"/>
		<path id="XMLID_32_" d="M238.9,147.4c0,0-1.5,0-1.5,1.1c0,1.1,0,2.9,0,2.9s0.2,1.3,1.5,1.3s1.5-1.3,1.5-1.3v-3.1
			C240.4,148.4,240.4,147.4,238.9,147.4z"/>
		<path id="XMLID_33_" d="M246.9,147.4c0,0-1.5,0-1.5,1.1c0,1.1,0,2.9,0,2.9s0.2,1.3,1.5,1.3s1.5-1.3,1.5-1.3v-3.1
			C248.4,148.4,248.4,147.4,246.9,147.4z"/>
		<path id="XMLID_34_" d="M253.9,147.4c0,0-1.5,0-1.5,1.1c0,1.1,0,2.9,0,2.9s0.2,1.3,1.5,1.3s1.5-1.3,1.5-1.3v-3.1
			C255.4,148.4,255.4,147.4,253.9,147.4z"/>
		<path id="XMLID_35_" d="M260.9,147.4c0,0-1.5,0-1.5,1.1c0,1.1,0,2.9,0,2.9s0.2,1.3,1.5,1.3s1.5-1.3,1.5-1.3v-3.1
			C262.4,148.4,262.4,147.4,260.9,147.4z"/>
		<path id="XMLID_36_" d="M267.9,147.4c0,0-1.5,0-1.5,1.1c0,1.1,0,2.9,0,2.9s0.2,1.3,1.5,1.3s1.5-1.3,1.5-1.3v-3.1
			C269.4,148.4,269.4,147.4,267.9,147.4z"/>
		<path id="XMLID_37_" d="M275.9,147.4c0,0-1.5,0-1.5,1.1c0,1.1,0,2.9,0,2.9s0.2,1.3,1.5,1.3s1.5-1.3,1.5-1.3v-3.1
			C277.4,148.4,277.4,147.4,275.9,147.4z"/>
		<path id="XMLID_38_" d="M282.9,147.4c0,0-1.5,0-1.5,1.1c0,1.1,0,2.9,0,2.9s0.2,1.3,1.5,1.3s1.5-1.3,1.5-1.3v-3.1
			C284.4,148.4,284.4,147.4,282.9,147.4z"/>
		<path id="XMLID_39_" d="M289.9,147.4c0,0-1.5,0-1.5,1.1c0,1.1,0,2.9,0,2.9s0.2,1.3,1.5,1.3s1.5-1.3,1.5-1.3v-3.1
			C291.4,148.4,291.4,147.4,289.9,147.4z"/>
		<path id="XMLID_40_" d="M297.9,147.4c0,0-1.5,0-1.5,1.1c0,1.1,0,2.9,0,2.9s0.2,1.3,1.5,1.3s1.5-1.3,1.5-1.3v-3.1
			C299.4,148.4,299.4,147.4,297.9,147.4z"/>
		<path id="XMLID_41_" d="M304.9,147.4c0,0-1.5,0-1.5,1.1c0,1.1,0,2.9,0,2.9s0.2,1.3,1.5,1.3s1.5-1.3,1.5-1.3v-3.1
			C306.4,148.4,306.4,147.4,304.9,147.4z"/>
		<path id="XMLID_42_" d="M312.9,147.4c0,0-1.5,0-1.5,1.1c0,1.1,0,2.9,0,2.9s0.2,1.3,1.5,1.3s1.5-1.3,1.5-1.3v-3.1
			C314.4,148.4,314.4,147.4,312.9,147.4z"/>
		<path id="XMLID_43_" d="M319.9,147.4c0,0-1.5,0-1.5,1.1c0,1.1,0,2.9,0,2.9s0.2,1.3,1.5,1.3s1.5-1.3,1.5-1.3v-3.1
			C321.4,148.4,321.4,147.4,319.9,147.4z"/>
		<path id="XMLID_44_" d="M326.9,147.4c0,0-1.5,0-1.5,1.1c0,1.1,0,2.9,0,2.9s0.2,1.3,1.5,1.3s1.5-1.3,1.5-1.3v-3.1
			C328.4,148.4,328.4,147.4,326.9,147.4z"/>
		<path id="XMLID_45_" d="M407.9,147.4c0,0-1.5,0-1.5,1.1c0,1.1,0,2.9,0,2.9s0.2,1.3,1.5,1.3s1.5-1.3,1.5-1.3v-3.1
			C409.4,148.4,409.4,147.4,407.9,147.4z"/>
		<path id="XMLID_46_" d="M414.9,147.4c0,0-1.5,0-1.5,1.1c0,1.1,0,2.9,0,2.9s0.2,1.3,1.5,1.3s1.5-1.3,1.5-1.3v-3.1
			C416.4,148.4,416.4,147.4,414.9,147.4z"/>
		<path id="XMLID_47_" d="M422.9,147.4c0,0-1.5,0-1.5,1.1c0,1.1,0,2.9,0,2.9s0.2,1.3,1.5,1.3s1.5-1.3,1.5-1.3v-3.1
			C424.4,148.4,424.4,147.4,422.9,147.4z"/>
		<path id="XMLID_48_" d="M429.9,147.4c0,0-1.5,0-1.5,1.1c0,1.1,0,2.9,0,2.9s0.2,1.3,1.5,1.3s1.5-1.3,1.5-1.3v-3.1
			C431.4,148.4,431.4,147.4,429.9,147.4z"/>
		<path id="XMLID_49_" d="M437.9,147.4c0,0-1.5,0-1.5,1.1c0,1.1,0,2.9,0,2.9s0.2,1.3,1.5,1.3s1.5-1.3,1.5-1.3v-3.1
			C439.4,148.4,439.4,147.4,437.9,147.4z"/>
		<path id="XMLID_50_" d="M444.9,147.4c0,0-1.5,0-1.5,1.1c0,1.1,0,2.9,0,2.9s0.2,1.3,1.5,1.3s1.5-1.3,1.5-1.3v-3.1
			C446.4,148.4,446.4,147.4,444.9,147.4z"/>
		<path id="XMLID_51_" d="M451.9,147.4c0,0-1.5,0-1.5,1.1c0,1.1,0,2.9,0,2.9s0.2,1.3,1.5,1.3s1.5-1.3,1.5-1.3v-3.1
			C453.4,148.4,453.4,147.4,451.9,147.4z"/>
		<path id="XMLID_52_" d="M459.9,147.4c0,0-1.5,0-1.5,1.1c0,1.1,0,2.9,0,2.9s0.2,1.3,1.5,1.3s1.5-1.3,1.5-1.3v-3.1
			C461.4,148.4,461.4,147.4,459.9,147.4z"/>
		<path id="XMLID_53_" d="M466.9,147.4c0,0-1.5,0-1.5,1.1c0,1.1,0,2.9,0,2.9s0.2,1.3,1.5,1.3s1.5-1.3,1.5-1.3v-3.1
			C468.4,148.4,468.4,147.4,466.9,147.4z"/>
		<path id="XMLID_54_" d="M481.9,147.4c0,0-1.5,0-1.5,1.1c0,1.1,0,2.9,0,2.9s0.2,1.3,1.5,1.3s1.5-1.3,1.5-1.3v-3.1
			C483.4,148.4,483.4,147.4,481.9,147.4z"/>
		<path id="XMLID_55_" d="M489.9,147.4c0,0-1.5,0-1.5,1.1c0,1.1,0,2.9,0,2.9s0.2,1.3,1.5,1.3s1.5-1.3,1.5-1.3v-3.1
			C491.4,148.4,491.4,147.4,489.9,147.4z"/>
		<path id="XMLID_56_" d="M497.9,147.4c0,0-1.5,0-1.5,1.1c0,1.1,0,2.9,0,2.9s0.2,1.3,1.5,1.3s1.5-1.3,1.5-1.3v-3.1
			C499.4,148.4,499.4,147.4,497.9,147.4z"/>
		<path id="XMLID_57_" d="M505.9,147.4c0,0-1.5,0-1.5,1.1c0,1.1,0,2.9,0,2.9s0.2,1.3,1.5,1.3s1.5-1.3,1.5-1.3v-3.1
			C507.4,148.4,507.4,147.4,505.9,147.4z"/>
		<path id="XMLID_58_" class="st3" d="M82.8,143.4h-9c0,0-2.6-1.5-2.9,3.1c-0.3,4.6-0.4,18.1-0.4,18.1s-0.1,1.8,1.1,1.8
			s12.3,0,12.3,0s0.7-0.9,0.7-3.2s0.4-19.6,0.4-19.6S84.8,142.4,82.8,143.4z"/>
		<path id="XMLID_18_" class="st1" d="M82.4,148.4v4c0,0,0.1,1.2-1,1.2s-1-1.2-1-1.2v-4c0,0,0-0.7,1-0.7S82.4,148.4,82.4,148.4z"/>
		<path id="XMLID_61_" class="st3" d="M189.8,143.4h-9c0,0-2.6-1.5-2.9,3.1c-0.3,4.6-0.4,18.1-0.4,18.1s-0.1,1.8,1.1,1.8
			s12.3,0,12.3,0s0.7-0.9,0.7-3.2s0.4-19.6,0.4-19.6S191.8,142.4,189.8,143.4z"/>
		<path id="XMLID_60_" class="st1" d="M189.4,148.4v4c0,0,0.1,1.2-1,1.2s-1-1.2-1-1.2v-4c0,0,0-0.7,1-0.7S189.4,148.4,189.4,148.4z"
			/>
		<path id="XMLID_63_" class="st3" d="M530.8,143.4h-9c0,0-2.6-1.5-2.9,3.1c-0.3,4.6-0.4,18.1-0.4,18.1s-0.1,1.8,1.1,1.8
			s12.3,0,12.3,0s0.7-0.9,0.7-3.2s0.4-19.6,0.4-19.6S532.8,142.4,530.8,143.4z"/>
		<path id="XMLID_62_" class="st1" d="M530.4,148.4v4c0,0,0.1,1.2-1,1.2s-1-1.2-1-1.2v-4c0,0,0-0.7,1-0.7
			C530.4,147.8,530.4,148.4,530.4,148.4z"/>
		<path id="XMLID_6_" class="st2" d="M512.5,69.9c0,0-9.3,3.9-34,12.6c-24.7,8.7-91.3,47-142,64.3c-23.6,8.1-40.8,12-52.5,14
			l-15.1,1.5c0,0-40-3.5-53.8,4.7c-13.8,8.2,61.7,20,97.2,18.2c0,0,20.7-13,35.7-17.6c15.8-0.3,24.6-1.4,24.6-1.4s0-3.7,31-17.3
			s67-41.4,72.7-46.4c5.7-5,48.7-32.4,48.7-32.4H512.5z"/>
		<path id="XMLID_4_" class="st4" d="M430.6,145.6l-8.3-5.3c0,0-33,0.1-38.3,2.6C383.1,143.4,410,146.6,430.6,145.6z"/>
		<path id="XMLID_5_" class="st4" d="M395.7,153.7c1.4,1.8,8.8,5.5,8.8,5.5s-9.4-0.2-28.8,0c-19.3,0.2-21.9-2.7-21.9-2.7
			C352.9,156.7,370,154.4,395.7,153.7z"/>
		<path id="XMLID_15_" class="st4" d="M298.7,194.6L298.7,194.6c1.1-0.3,2.1-0.6,2.9-0.8l3.8-1.1c0.5-0.4,0.6-1,0.1-1.5
			c-0.8-1-21.2-8.4-21.2-8.4l-5.6-0.3l0.3,18.2C279.1,200.7,291.5,196.6,298.7,194.6L298.7,194.6z"/>
		<path id="XMLID_66_" d="M284.2,199l-0.1-1.4l0,0c-0.1-0.4-0.1-0.5-0.1-1.1l0,0.4h0c-0.2-5,0.8-14.7,0.8-14.7
			c-0.5-0.9-13.6-4.2-13.6-4.2s-10.2,23.4-1.9,23.7s13.4-1.5,15.1-1.7c0.8-0.1,1-0.8,1.1-1.4L284.2,199z"/>
		<path id="XMLID_10_" class="st4" d="M275.8,172.9c0,0-28.3-9.4-53-7.6s-23.3,4.8-23.8,14.1s0.8,27.3,3.8,30.3s10.1,4.1,37.3,3.4
			s37-4.8,37-4.8s-6.6-1.3-6.6-2.4s4.1-2.4,5.4-2.4c0,0-5.5-1.8-5.5-2.8s4-3.1,4-3.1s-4.4-1.4-4.4-3.1s4.4-2.8,4.4-2.8
			s-4-1.9-4.3-3.8s4-2.6,4-2.6s-3.4-2-3.3-3.6s4-1.6,4-1.6s-3.5-2-3.5-3.4s3.1-1.5,3.1-1.5s-1.9-1.1-1.8-1.8
			S275.8,172.9,275.8,172.9z"/>
	</g>
	<path id="XMLID_14_" class="st5" d="M707.7,136.5c0,0-35.6,1.1-59.5,4c-0.9,0.1-1.9,0.2-2.7,0.3l-4,0.5c-1.1,0.8-1.9,2.1-1.9,3.7
		c0,2.4,1.9,4.4,4.3,4.4l1.5-0.3c0.2-0.1,0.4-0.2,0.6-0.3c1.3-0.1,2.7-0.3,4.3-0.6C663.7,145.5,707.7,136.5,707.7,136.5z"/>
</g>
</svg>
