<svg xmlns="http://www.w3.org/2000/svg" viewBox="0 0 512.071 467.925">
  <g id="Page-1" transform="translate(0 0)">
    <g id="_002---API" data-name="002---API" transform="translate(0 0)">
      <path id="Shape" d="M333.188,56.486a123.515,123.515,0,0,1-230.785,0L76.534,30,40.513,52.955,9.436,65.757a7.526,7.526,0,0,0-3.973,9.8L28.329,131a7.536,7.536,0,0,0,9.8,4.061l38.494-15.892a171.915,171.915,0,0,0,42.113,42.113L102.844,199.69a7.391,7.391,0,0,0,4.061,9.8l55.357,22.955a7.459,7.459,0,0,0,9.888-4.061l15.892-38.405a168.454,168.454,0,0,0,59.506-.088l15.98,38.494a7.433,7.433,0,0,0,9.8,4.061l55.357-22.955a7.391,7.391,0,0,0,4.061-9.8L316.855,161.2a170.062,170.062,0,0,0,42.113-42.025l38.405,15.892A7.459,7.459,0,0,0,407.262,131l22.955-55.357a7.53,7.53,0,0,0-4.061-9.888l-22.69-9.447h-.088L367.885,30Z" transform="translate(38.24 234.865)" fill="#4d6888"/>
      <path id="Shape-2" data-name="Shape" d="M512.071,216.306a75.1,75.1,0,0,1-75.045,75.045H105.946a105.946,105.946,0,1,1,0-211.891,80.338,80.338,0,0,1,8.034.353,123.587,123.587,0,0,1,231.05-.265c1.236-.088,2.472-.088,3.708-.088a92.693,92.693,0,0,1,87.405,61.8h.883a75.1,75.1,0,0,1,75.045,75.045Z" transform="translate(0 0)" fill="#a3b2c3"/>
      <path id="Shape-3" data-name="Shape" d="M27.461,138.407a8.8,8.8,0,0,1-6.863-3.272A79.23,79.23,0,0,1,48.581,13.618a8.83,8.83,0,0,1,7.544,15.968A62.067,62.067,0,0,0,20.659,85.434a60.679,60.679,0,0,0,13.657,38.587,8.829,8.829,0,0,1-6.855,14.386Z" transform="translate(23.486 99.971)" fill="#ecf0f1"/>
      <g id="Group_30" data-name="Group 30" transform="translate(132.434 123.601)">
        <path id="Shape-4" data-name="Shape" d="M23.827,137.61a8.839,8.839,0,0,1-8.376-11.627L50.766,20.038a8.829,8.829,0,1,1,16.752,5.587L32.2,131.571a8.829,8.829,0,0,1-8.376,6.04Z" transform="translate(-15 -14)" fill="#1a3f69"/>
        <path id="Shape-5" data-name="Shape" d="M63.147,137.61a8.829,8.829,0,0,1-8.376-6.04L19.456,25.625a8.829,8.829,0,1,1,16.752-5.587L71.523,125.984a8.839,8.839,0,0,1-8.376,11.627Z" transform="translate(16.311 -14)" fill="#1a3f69"/>
        <path id="Shape-6" data-name="Shape" d="M66.641,38.658H25.5A8.829,8.829,0,1,1,25.5,21H66.641a8.829,8.829,0,1,1,0,17.658Z" transform="translate(-1.928 40.805)" fill="#1a3f69"/>
        <path id="Shape-7" data-name="Shape" d="M34.829,137.6A8.829,8.829,0,0,1,26,128.774V22.829a8.829,8.829,0,0,1,17.658,0V128.774A8.829,8.829,0,0,1,34.829,137.6Z" transform="translate(71.115 -13.997)" fill="#1a3f69"/>
        <path id="Shape-8" data-name="Shape" d="M70.144,84.63H34.829A8.829,8.829,0,0,1,26,75.8V22.829A8.829,8.829,0,0,1,34.829,14H70.144a35.315,35.315,0,0,1,0,70.63ZM43.658,66.973H70.144a17.658,17.658,0,0,0,0-35.315H43.658Z" transform="translate(71.115 -13.997)" fill="#1a3f69"/>
        <path id="Shape-9" data-name="Shape" d="M46.829,137.6A8.829,8.829,0,0,1,38,128.774V22.829a8.829,8.829,0,1,1,17.658,0V128.774A8.829,8.829,0,0,1,46.829,137.6Z" transform="translate(165.061 -13.997)" fill="#1a3f69"/>
        <path id="Shape-10" data-name="Shape" d="M96.8,31.658H43.829a8.829,8.829,0,1,1,0-17.658H96.8a8.829,8.829,0,0,1,0,17.658Z" transform="translate(141.574 -13.997)" fill="#1a3f69"/>
        <path id="Shape-11" data-name="Shape" d="M96.8,43.658H43.829a8.829,8.829,0,1,1,0-17.658H96.8a8.829,8.829,0,0,1,0,17.658Z" transform="translate(141.574 79.949)" fill="#1a3f69"/>
      </g>
      <path id="Shape-12" data-name="Shape" d="M25.827,73.635a8.839,8.839,0,0,1-8.376-11.627C36.9,3.673,85.568,3,87.629,3a8.829,8.829,0,0,1,.043,17.658c-1.712.026-38.2,1.125-53.469,46.937a8.829,8.829,0,0,1-8.376,6.04Z" transform="translate(133.091 23.487)" fill="#ecf0f1"/>
    </g>
  </g>
</svg>
