<svg xmlns="http://www.w3.org/2000/svg" viewBox="0 0 512 302.415">
  <g id="down-arrow" transform="translate(0 -100.698)">
    <g id="Group_30" data-name="Group 30" transform="translate(0 100.698)">
      <path id="Path_34" data-name="Path 34" d="M503.816,125.974l-16.771-16.888a28.074,28.074,0,0,0-39.616,0L256.114,300.409,64.579,108.873a28.079,28.079,0,0,0-39.612,0L8.192,125.657a28.033,28.033,0,0,0,0,39.607L236.238,394.13c5.27,5.27,12.292,8.983,19.86,8.983h.087c7.505,0,14.528-3.717,19.8-8.983L503.816,165.885A28.288,28.288,0,0,0,512,145.879,28.006,28.006,0,0,0,503.816,125.974Z" transform="translate(0 -100.698)" fill="#1a3f69"/>
    </g>
  </g>
</svg>
