<?xml version="1.0" encoding="utf-8"?>
<!-- Generator: Adobe Illustrator 19.0.0, SVG Export Plug-In . SVG Version: 6.00 Build 0)  -->
<svg version="1.1" id="Layer_1" xmlns="http://www.w3.org/2000/svg" xmlns:xlink="http://www.w3.org/1999/xlink" x="0px" y="0px"
	 viewBox="0 0 512 512" style="enable-background:new 0 0 512 512;" xml:space="preserve">
<style type="text/css">
	.st0{fill:#153351;}
	.st1{fill:#768CA5;}
	.st2{fill:#1A3F69;}
	.st3{fill:#FF5752;}
</style>
<g id="XMLID_68_">
	<rect id="XMLID_111_" x="63.2" y="390.8" class="st0" width="38.4" height="9.1"/>
	<rect id="XMLID_123_" x="409.2" y="390.8" class="st0" width="38.4" height="9.1"/>
	<circle id="XMLID_126_" class="st0" cx="256.1" cy="201.5" r="25.1"/>
	<path id="XMLID_121_" class="st1" d="M298,356.4H214c-2.2,0-4-1.8-4-4V190.2c0-2.2,1.8-4,4-4H298c2.2,0,4,1.8,4,4v162.2
		C302,354.6,300.2,356.4,298,356.4z"/>
	<rect id="XMLID_107_" x="56.7" y="345.7" class="st2" width="398.6" height="45.1"/>
	<circle id="XMLID_129_" class="st3" cx="256.7" cy="139.1" r="26.7"/>
	<polygon id="XMLID_134_" class="st1" points="486.7,160.4 486.1,135.3 475.2,135.6 475.8,160.7 37.2,171.3 36.6,146.2 24.6,146.5 
		25.2,171.6 7.1,172 7.4,185.4 505.1,173.3 504.8,160 	"/>
</g>
</svg>
