<?xml version="1.0" encoding="utf-8"?>
<!-- Generator: Adobe Illustrator 19.0.0, SVG Export Plug-In . SVG Version: 6.00 Build 0)  -->
<svg version="1.1" id="Layer_1" xmlns="http://www.w3.org/2000/svg" xmlns:xlink="http://www.w3.org/1999/xlink" x="0px" y="0px"
	 viewBox="0 0 512 512" style="enable-background:new 0 0 512 512;" xml:space="preserve">
<style type="text/css">
	.st0{fill:#232323;}
	.st1{fill:#768CA5;}
	.st2{fill:none;stroke:#FF0000;stroke-miterlimit:10;}
	.st3{fill:#2D2D2D;}
	.st4{fill:#474747;}
	.st5{fill:#9B3B3B;}
	.st6{fill:#FF5752;}
	.st7{fill:#B7B7B7;}
	.st8{fill:#1A3F69;}
	.st9{fill:#D1D9E1;}
</style>
<g id="XMLID_1_">
	<polygon id="XMLID_235_" class="st0" points="400,312.9 430.3,256.9 371.5,214.8 217.1,195.1 156.1,238 165.2,305.7 156.1,325.4 
		159.7,333.1 177.8,360.1 370,362.8 395.7,337.7 401.8,337.2 	"/>
	<path id="XMLID_3_" class="st1" d="M499.9,353c0,0-4.9-3.6-2.3-9.4c2.6-5.8,12.4-54.5,5.5-76c-6-9.5-13.9-14-13.9-14l-0.9-12.8
		c0,0-7-22.6-43.8-42.2c-36.8-19.6-89-42.2-189.2-52c-100.2-9.8-94.8-6.1-94.8-6.1S94,99.8,43.2,75.8C29.9,69.5,18,63.5,6,58v329.8
		l148.4,0.1c0,0,0.4-0.9,0.4,1.1h14.8c-4.8-15-7.4-27.3-7.4-41.6c0-63.3,51.3-115.2,114.6-115.2s114.6,51.1,114.6,114.4
		c0,9.2-1.1,18.1-3.2,26.7l1.1-0.1c9.4-0.3,78.1-2.3,99.6-8.6C512.1,357.8,499.9,353,499.9,353z"/>
	<circle id="XMLID_70_" cx="277.1" cy="351.9" r="102.1"/>
	<g id="XMLID_69_">
		<circle id="XMLID_108_" class="st2" cx="295.3" cy="297.6" r="0.7"/>
		<circle id="XMLID_109_" class="st2" cx="294.4" cy="303.8" r="0.7"/>
		<path id="XMLID_78_" class="st3" d="M276.6,269.8c-45.4,0-82.1,36.8-82.1,82.1s36.8,82.1,82.1,82.1c45.4,0,82.1-36.8,82.1-82.1
			S322,269.8,276.6,269.8z M276.6,427c-41.3,0-75-33.6-75-75s33.6-75,75-75s75,33.6,75,75S318,427,276.6,427z"/>
		<path id="XMLID_96_" class="st4" d="M275.5,287.9c-34.5,0-62.4,27.9-62.4,62.4c0,34.5,27.9,62.4,62.4,62.4s62.4-27.9,62.4-62.4
			C337.9,315.8,310,287.9,275.5,287.9z M232.9,325.4c0.4,0,0.7,0.3,0.7,0.7c0,0.4-0.3,0.7-0.7,0.7c-0.4,0-0.7-0.3-0.7-0.7
			C232.1,325.7,232.5,325.4,232.9,325.4z M219.1,364.1c-0.3,0.3-0.8,0.3-1.1,0c-0.3-0.3-0.3-0.8,0-1.1c0.3-0.3,0.8-0.3,1.1,0
			C219.4,363.3,219.4,363.8,219.1,364.1z M220.9,373c-0.3,0.3-0.8,0.3-1.1,0c-0.3-0.3-0.3-0.8,0-1.1c0.3-0.3,0.8-0.3,1.1,0
			C221.2,372.2,221.2,372.7,220.9,373z M220.9,356.9c-0.3,0.3-0.8,0.3-1.1,0c-0.3-0.3-0.3-0.8,0-1.1c0.3-0.3,0.8-0.3,1.1,0
			C221.2,356.2,221.2,356.7,220.9,356.9z M222.2,327.7c-0.4,0-0.7-0.3-0.7-0.7c0-0.4,0.3-0.7,0.7-0.7c0.4,0,0.7,0.3,0.7,0.7
			C222.9,327.4,222.6,327.7,222.2,327.7z M225.4,365c-0.3,0.3-0.8,0.3-1.1,0c-0.3-0.3-0.3-0.8,0-1.1c0.3-0.3,0.8-0.3,1.1,0
			C225.7,364.2,225.7,364.7,225.4,365z M227.2,356.9c-0.3,0.3-0.8,0.3-1.1,0c-0.3-0.3-0.3-0.8,0-1.1c0.3-0.3,0.8-0.3,1.1,0
			S227.5,356.7,227.2,356.9z M226.6,333.1c-0.4,0-0.7-0.3-0.7-0.7s0.3-0.7,0.7-0.7c0.4,0,0.7,0.3,0.7,0.7S227.1,333.1,226.6,333.1z
			 M227.5,323.3c-0.4,0-0.7-0.3-0.7-0.7c0-0.4,0.3-0.7,0.7-0.7c0.4,0,0.7,0.3,0.7,0.7C228.3,322.9,228,323.3,227.5,323.3z
			 M230.7,361.4c-0.3,0.3-0.8,0.3-1.1,0c-0.3-0.3-0.3-0.8,0-1.1c0.3-0.3,0.8-0.3,1.1,0C231,360.7,231,361.1,230.7,361.4z
			 M230.4,315.4c0-0.4,0.3-0.7,0.7-0.7c0.4,0,0.7,0.3,0.7,0.7c0,0.4-0.3,0.7-0.7,0.7C230.7,316.1,230.4,315.8,230.4,315.4z
			 M232.5,355.2c-0.3,0.3-0.8,0.3-1.1,0c-0.3-0.3-0.3-0.8,0-1.1c0.3-0.3,0.8-0.3,1.1,0C232.8,354.4,232.8,354.9,232.5,355.2z
			 M232.3,332.8c-0.3-0.3-0.3-0.8,0-1.1c0.3-0.3,0.8-0.3,1.1,0c0.3,0.3,0.3,0.8,0,1.1C233.1,333.2,232.6,333.1,232.3,332.8z
			 M234.3,388.2c-0.3,0.3-0.8,0.3-1.1,0c-0.3-0.3-0.3-0.8,0-1.1s0.8-0.3,1.1,0C234.6,387.4,234.6,387.9,234.3,388.2z M237,395.3
			c-0.3,0.3-0.8,0.3-1.1,0c-0.3-0.3-0.3-0.8,0-1.1s0.8-0.3,1.1,0C237.3,394.5,237.3,395,237,395.3z M236.5,318.8
			c-0.4,0-0.7-0.3-0.7-0.7s0.3-0.7,0.7-0.7c0.4,0,0.7,0.3,0.7,0.7S236.9,318.8,236.5,318.8z M237.5,328.8c0-0.4,0.3-0.7,0.7-0.7
			c0.4,0,0.7,0.3,0.7,0.7c0,0.4-0.3,0.7-0.7,0.7C237.8,329.5,237.5,329.2,237.5,328.8z M239.6,384.6c-0.3,0.3-0.8,0.3-1.1,0
			c-0.3-0.3-0.3-0.8,0-1.1c0.3-0.3,0.8-0.3,1.1,0C240,383.8,239.9,384.3,239.6,384.6z M240.9,323.3c-0.4,0-0.7-0.3-0.7-0.7
			c0-0.4,0.3-0.7,0.7-0.7c0.4,0,0.7,0.3,0.7,0.7C241.7,322.9,241.3,323.3,240.9,323.3z M242.2,392.6c-0.3-0.3-0.3-0.8,0-1.1
			c0.3-0.3,0.8-0.3,1.1,0c0.3,0.3,0.3,0.8,0,1.1C242.9,392.9,242.4,392.9,242.2,392.6z M244.1,402.4c-0.3,0.3-0.8,0.3-1.1,0
			c-0.3-0.3-0.3-0.8,0-1.1s0.8-0.3,1.1,0C244.4,401.7,244.4,402.1,244.1,402.4z M245.9,386.4c-0.3,0.3-0.8,0.3-1.1,0
			c-0.3-0.3-0.3-0.8,0-1.1c0.3-0.3,0.8-0.3,1.1,0C246.2,385.6,246.2,386.1,245.9,386.4z M246.3,301c-0.4,0-0.7-0.3-0.7-0.7
			c0-0.4,0.3-0.7,0.7-0.7c0.4,0,0.7,0.3,0.7,0.7C247,300.7,246.7,301,246.3,301z M250.3,398.9c-0.3,0.3-0.8,0.3-1.1,0
			c-0.3-0.3-0.3-0.8,0-1.1c0.3-0.3,0.8-0.3,1.1,0C250.7,398.1,250.6,398.6,250.3,398.9z M251.6,311.7c-0.4,0-0.7-0.3-0.7-0.7
			s0.3-0.7,0.7-0.7c0.4,0,0.7,0.3,0.7,0.7S252,311.7,251.6,311.7z M253.4,301c-0.4,0-0.7-0.3-0.7-0.7c0-0.4,0.3-0.7,0.7-0.7
			c0.4,0,0.7,0.3,0.7,0.7C254.1,300.7,253.8,301,253.4,301z M255.2,306.3c-0.4,0-0.7-0.3-0.7-0.7c0-0.4,0.3-0.7,0.7-0.7
			c0.4,0,0.7,0.3,0.7,0.7C255.9,306,255.6,306.3,255.2,306.3z M258.7,311.7c-0.4,0-0.7-0.3-0.7-0.7s0.3-0.7,0.7-0.7
			c0.4,0,0.7,0.3,0.7,0.7S259.2,311.7,258.7,311.7z M260.5,296.5c-0.4,0-0.7-0.3-0.7-0.7c0-0.4,0.3-0.7,0.7-0.7
			c0.4,0,0.7,0.3,0.7,0.7C261.3,296.2,260.9,296.5,260.5,296.5z M263.2,308.1c-0.4,0-0.7-0.3-0.7-0.7c0-0.4,0.3-0.7,0.7-0.7
			c0.4,0,0.7,0.3,0.7,0.7C263.9,307.8,263.6,308.1,263.2,308.1z M263.2,301.9c-0.4,0-0.7-0.3-0.7-0.7c0-0.4,0.3-0.7,0.7-0.7
			c0.4,0,0.7,0.3,0.7,0.7C263.9,301.5,263.6,301.9,263.2,301.9z M269.9,409.5c-0.3,0.3-0.8,0.3-1.1,0c-0.3-0.3-0.3-0.8,0-1.1
			c0.3-0.3,0.8-0.3,1.1,0S270.2,409.3,269.9,409.5z M271.7,398c-0.3,0.3-0.8,0.3-1.1,0c-0.3-0.3-0.3-0.8,0-1.1
			c0.3-0.3,0.8-0.3,1.1,0C272,397.2,272,397.7,271.7,398z M273.5,404.2c-0.3,0.3-0.8,0.3-1.1,0c-0.3-0.3-0.3-0.8,0-1.1
			c0.3-0.3,0.8-0.3,1.1,0C273.8,403.4,273.8,403.9,273.5,404.2z M279.8,411.3c-0.3,0.3-0.8,0.3-1.1,0c-0.3-0.3-0.3-0.8,0-1.1
			c0.3-0.3,0.8-0.3,1.1,0S280.1,411.1,279.8,411.3z M280.6,398.9c-0.3,0.3-0.8,0.3-1.1,0c-0.3-0.3-0.3-0.8,0-1.1
			c0.3-0.3,0.8-0.3,1.1,0C281,398.1,280.9,398.6,280.6,398.9z M282.4,405.1c-0.3,0.3-0.8,0.3-1.1,0c-0.3-0.3-0.3-0.8,0-1.1
			c0.3-0.3,0.8-0.3,1.1,0C282.7,404.3,282.7,404.8,282.4,405.1z M282.4,392.6c-0.3,0.3-0.8,0.3-1.1,0c-0.3-0.3-0.3-0.8,0-1.1
			c0.3-0.3,0.8-0.3,1.1,0S282.7,392.3,282.4,392.6z M285.5,309c-0.4,0-0.7-0.3-0.7-0.7c0-0.4,0.3-0.7,0.7-0.7c0.4,0,0.7,0.3,0.7,0.7
			C286.2,308.7,285.9,309,285.5,309z M286.4,303.7c-0.4,0-0.7-0.3-0.7-0.7c0-0.4,0.3-0.7,0.7-0.7c0.4,0,0.7,0.3,0.7,0.7
			C287.1,303.3,286.8,303.7,286.4,303.7z M287.3,297.4c-0.4,0-0.7-0.3-0.7-0.7c0-0.4,0.3-0.7,0.7-0.7c0.4,0,0.7,0.3,0.7,0.7
			C288,297.1,287.7,297.4,287.3,297.4z M291.7,309.9c-0.4,0-0.7-0.3-0.7-0.7c0-0.4,0.3-0.7,0.7-0.7c0.4,0,0.7,0.3,0.7,0.7
			C292.5,309.6,292.1,309.9,291.7,309.9z M296,313.9c-0.2,0.4-0.6,0.6-1,0.4c-0.4-0.2-0.6-0.6-0.4-1s0.6-0.6,1-0.4
			C296,313.1,296.1,313.5,296,313.9z M300.4,309.4c-0.2,0.4-0.6,0.6-1,0.4c-0.4-0.2-0.6-0.6-0.4-1s0.6-0.6,1-0.4
			C300.4,308.6,300.6,309.1,300.4,309.4z M302.2,304.1c-0.2,0.4-0.6,0.6-1,0.4c-0.4-0.2-0.6-0.6-0.4-1s0.6-0.6,1-0.4
			C302.2,303.3,302.4,303.7,302.2,304.1z M303.7,395.2c-0.3-0.3-0.3-0.8,0-1.1c0.3-0.3,0.8-0.3,1.1,0c0.3,0.3,0.3,0.8,0,1.1
			C304.4,395.6,303.9,395.5,303.7,395.2z M305.6,401.5c-0.3,0.3-0.8,0.3-1.1,0c-0.3-0.3-0.3-0.8,0-1.1c0.3-0.3,0.8-0.3,1.1,0
			S305.9,401.2,305.6,401.5z M305.6,381.9c-0.3,0.3-0.8,0.3-1.1,0c-0.3-0.3-0.3-0.8,0-1.1c0.3-0.3,0.8-0.3,1.1,0
			C305.9,381.2,305.9,381.6,305.6,381.9z M308.5,300.5c-0.2,0.4-0.6,0.6-1,0.4c-0.4-0.2-0.6-0.6-0.4-1c0.2-0.4,0.6-0.6,1-0.4
			C308.4,299.7,308.6,300.1,308.5,300.5z M312.7,390.8c-0.3,0.3-0.8,0.3-1.1,0c-0.3-0.3-0.3-0.8,0-1.1c0.3-0.3,0.8-0.3,1.1,0
			C313.1,390.1,313,390.5,312.7,390.8z M314.5,397.1c-0.3,0.3-0.8,0.3-1.1,0c-0.3-0.3-0.3-0.8,0-1.1c0.3-0.3,0.8-0.3,1.1,0
			C314.8,396.3,314.8,396.8,314.5,397.1z M315.4,384.6c-0.3,0.3-0.8,0.3-1.1,0c-0.3-0.3-0.3-0.8,0-1.1c0.3-0.3,0.8-0.3,1.1,0
			S315.7,384.3,315.4,384.6z M319.7,386.3c-0.3-0.3-0.3-0.8,0-1.1c0.3-0.3,0.8-0.3,1.1,0c0.3,0.3,0.3,0.8,0,1.1
			C320.5,386.7,320,386.6,319.7,386.3z"/>
		<g id="XMLID_73_">
			<path id="XMLID_82_" class="st5" d="M313.3,292c3.1,0,16.2,10.3,18.7,13.2s1,3.4,1.3,6c0.3,2.7,2.5,4,2.7,4.6
				c0.3,0.6-0.1,9.4-0.1,9.4l2,3.9v0.7l7.2,3.9l2.7,6.5c0,0-5.6,9.3-6.4,11.1c-0.7,1.8,4.5,10.2,4.6,11.4c0.1,1.2-1,4.4-0.5,6
				s2.5,4.1,2.5,4.1l-1,5.4l-8.2,11.9c0,0-3.7,5.2-4.5,5.8c-0.7,0.6-2,0.7-2,0.7c-1.6,2.7-3.6,0.6-3.6-0.8c0-1.4,1-1,1-1l-2.9-7.4
				c0,0,0.6-3,0.9-3.3s2.7-8.3-1.9-14.1c-4.6-5.8-0.8-11.1-0.8-15.6c-0.2-12.9-4.9-20.1-7.9-24.7c-3-4.7-2.2-5.5-1.6-9.1
				s-2.2-7.8-2.2-7.8l-4.9-11.6l-0.4-4.7l0.8-2.8c1.1-0.4,1.4-1.5,1.4-1.5H313.3z"/>
			<path id="XMLID_86_" class="st6" d="M314.2,301l15.4,15.1c0,0,7.8,18.8,9,25.7c1.2,6.8,2,24.7,2,24.7l-3.2,10l-2.5,2.5l-7.2-5.3
				c0,0-5-5.9-4.3-10.3c0.6-4.4,3.1-8.9-0.2-18.1c-3.3-9.2-9-19-9-19s1-5.1,0.4-8.1c-0.6-3-3.2-13.3-3.2-13.3l2.3-3.9H314.2z"/>
		</g>
		<path id="XMLID_79_" class="st7" d="M277.1,262.2c-49.5,0-89.7,40.2-89.7,89.7s40.2,89.7,89.7,89.7s89.7-40.2,89.7-89.7
			S326.6,262.2,277.1,262.2z M356,330.2c0,0-29,3.9-35.5,4.7c-6.5,0.8-7.7-0.6-10.6-4c-2.9-3.4,0.3-8.6,0.3-8.6l22.5-30.9
			C352.3,309.8,356,330.2,356,330.2z M270.4,270.1c0,0-1.5,29.2-2,35.8c-0.4,6.6-2,7.5-5.9,9.7c-3.9,2.2-8.4-1.9-8.4-1.9l-26.2-27.8
			C249.6,269.9,270.4,270.1,270.4,270.1z M220.8,293.1c0,0,17.2,23.7,20.9,29.1c3.8,5.4,3.1,7.1,1.5,11.3c-1.6,4.2-7.7,3.8-7.7,3.8
			l-37.8-5.2C204.6,306,220.8,293.1,220.8,293.1z M195.8,342.8c0,0,28.3,7.1,34.7,8.8s6.9,3.4,8.4,7.7c1.4,4.3-3.5,7.8-3.5,7.8
			l-32.3,20.3C191.7,363.1,195.8,342.8,195.8,342.8z M208.7,398c0,0,26-13.4,31.9-16.4c5.9-2.9,7.5-2,11.4,0.2
			c3.9,2.2,2.6,8.2,2.6,8.2l-10.8,36.6C219.1,416,208.7,398,208.7,398z M254.3,430.6c0,0,11.4-26.9,14.1-32.9c2.7-6,4.4-6.3,8.9-7.1
			c4.4-0.8,7.2,4.6,7.2,4.6l15.1,35.1C273.8,437.9,254.3,430.6,254.3,430.6z M288.9,315.3c-4.4-0.8-5.3-6.8-5.3-6.8l-2.6-38.1
			c26.8,1.4,42.8,14.7,42.8,14.7s-19.7,21.6-24.2,26.4C295.1,316.4,293.3,316.1,288.9,315.3z M311.4,426.5c0,0-8.9-27.9-10.8-34.2
			c-1.9-6.3-0.8-7.7,2.1-11.2c2.9-3.5,8.5-1.2,8.5-1.2l34.3,16.8C330.9,419.3,311.4,426.5,311.4,426.5z M320.6,367.2
			c-5.6-3.5-5.6-5.3-5.7-9.8c-0.1-4.5,5.7-6.4,5.7-6.4l37-9.6c3.6,26.6-6.5,44.8-6.5,44.8S326.2,370.8,320.6,367.2z"/>
		<circle id="XMLID_71_" cx="276.6" cy="350.4" r="31.8"/>
		<circle id="XMLID_72_" class="st7" cx="276.6" cy="350.4" r="11.4"/>
	</g>
	<path id="XMLID_89_" class="st7" d="M169.1,385.3"/>
	<path id="XMLID_95_" class="st8" d="M169.6,389c-4.8-15-7.4-27.3-7.4-41.6c0-63.3,51.3-115.2,114.6-115.2s114.6,51.1,114.6,114.4
		c0,9.2-1.1,18.1-3.2,26.7l14.5-0.8c1.7-8.4,2.7-17.2,2.7-26.1c0-70.9-57.7-128.6-128.6-128.6s-128.6,58.7-128.6,129.7
		c0,14.2,2.3,26.6,6.6,41.6H169.6z"/>
	<path id="XMLID_91_" class="st8" d="M159.7,140.8c0,0,30.8,31,57.1,33.1s63.4,4.4,97.4,11.2s79.2,18.9,79.2,18.9s5.6-2.8,10.5-2.3
		c4.9,0.5-79.9-28.7-141.4-29.2C201,171.8,192.4,162,159.7,140.8z"/>
	<path id="XMLID_102_" class="st0" d="M488,240.8v12.6l-56.2,1.9c0,0-2.7,1.7-16.1-8.4c-13.5-10.1-30.3-24.1-33.9-29.4
		s7.8-12.2,10.7-13.6c3-1.4,6.6-1.9,6.6-1.9L488,240.8z"/>
	<path id="XMLID_100_" class="st9" d="M488.5,240.8c0,0-2.7-17.7-30.2-25.6S401,198.9,397,203.3c-4,4.4-9.7,6.8-3.9,13.3
		c5.8,6.5,26,24.9,26,24.9L488.5,240.8z"/>
	<path id="XMLID_104_" d="M435.4,312h43.3c0,0-3,17.8,5.1,25.7s12.6,7.9,12.6,7.9l3.5,7.4h-40.8c0,0-18.9,1.9-21.4-9.3
		C435.2,332.5,433.3,322,435.4,312z"/>
	<path id="XMLID_4_" class="st9" d="M6,81.7V153l143.9,11.2C149.9,164.2,62,109,6,81.7z"/>
	<path id="XMLID_5_" class="st8" d="M122.9,358c0,0,11.8-52.7,14.6-91.1c2.8-38.4-12.7-101.8-12.7-101.8l37,3.8
		c0,0-75.8-53.6-155.8-91v9.5c71,33.2,133.2,73.4,133.2,73.4L6,149.8v5.9c56,4.5,110.9,9.3,110.9,9.3s8.6,24.8,13.2,78.3
		c4.5,53.5-15.3,113.9-15.3,113.9L6,355.7v6.1l144.1,1.9l-0.9-5.7H122.9z"/>
	<path id="XMLID_101_" class="st0" d="M113.1,140.8l37.4,23.4L82,159c0,0-3.1-3.5-4.5-8.4c-1.4-4.9,1-7-9.8-7s-22.4-1.4-22.4-16.8
		c0-5.6,22.7-20.6,22.7-20.6s27.3,10.5,35,17.5C110.7,130.7,114.5,132.8,113.1,140.8z"/>
</g>
</svg>
