<svg xmlns="http://www.w3.org/2000/svg" viewBox="0 0 457.918 512">
  <g id="experiment" transform="translate(-27.041)">
    <path id="Path_37" data-name="Path 37" d="M388.286,308.3s-44.4,8.7-72.3,8.7c-33.3,0-65.4,15.9-66.6,16.5-.3.3-27.3,13.5-53.4,13.5s-53.1-13.2-53.4-13.5l-11.7-35.7,50.1-75.3V30h-30V0h210V30h-30V222.5Z" fill="#e6f2f2"/>
    <path id="Path_38" data-name="Path 38" d="M330.987,30h30V0h-101.4V329.07c12.253-4.893,33.933-12.07,56.4-12.07,27.9,0,72.3-8.7,72.3-8.7l-57.3-85.8Z" fill="#cfe6e6"/>
    <path id="Path_39" data-name="Path 39" d="M479.787,488a45.16,45.16,0,0,1-39.9,24H72.087a45.16,45.16,0,0,1-39.9-24,44.326,44.326,0,0,1,2.7-45.9l79.2-119.4h.3l16.5-24.9,11.7,5.7c.3.3,27.3,13.5,53.4,13.5s53.1-13.2,53.4-13.5c.4-.2,4.15-2.06,10.2-4.47,12.3-4.89,34.08-12.03,56.4-12.03,35.59,0,72.3,21.3,72.3,21.3,3.29,4.86-3.46-5.37,29.1,43.8l60,90A44.974,44.974,0,0,1,479.787,488Z" fill="#4d6888"/>
    <path id="Path_40" data-name="Path 40" d="M479.787,488a45.16,45.16,0,0,1-39.9,24h-180.3V299.03c12.3-4.89,34.08-12.03,56.4-12.03,35.59,0,72.3,21.3,72.3,21.3,3.29,4.86-3.46-5.37,29.1,43.8l60,90a44.974,44.974,0,0,1,2.4,45.9Z" fill="#1a3f69"/>
    <g id="Medical_Lab_1_">
      <g id="Group_32" data-name="Group 32">
        <path id="Path_41" data-name="Path 41" d="M300.987,362h30v30h-30Z" fill="#768ca5"/>
      </g>
      <g id="Group_33" data-name="Group 33">
        <path id="Path_42" data-name="Path 42" d="M240.987,422h30v30h-30Z" fill="#a3b2c3"/>
      </g>
      <g id="Group_34" data-name="Group 34">
        <path id="Path_43" data-name="Path 43" d="M180.987,392h30v30h-30Z" fill="#a3b2c3"/>
      </g>
      <g id="Group_35" data-name="Group 35">
        <path id="Path_44" data-name="Path 44" d="M240.987,242h30v30h-30Z" fill="#a3b2c3"/>
      </g>
    </g>
    <g id="Group_36" data-name="Group 36">
      <path id="Path_45" data-name="Path 45" d="M259.587,422h11.4v30h-11.4Z" fill="#768ca5"/>
      <path id="Path_46" data-name="Path 46" d="M259.587,242h11.4v30h-11.4Z" fill="#768ca5"/>
    </g>
  </g>
</svg>
