<svg xmlns="http://www.w3.org/2000/svg" viewBox="0 0 512 424.667">
  <g id="seo-and-web" transform="translate(0 -43.667)">
    <path id="Path_34" data-name="Path 34" d="M0,148.334v265a55.062,55.062,0,0,0,55,55H457a55.062,55.062,0,0,0,55-55v-265ZM165.964,256.749a51.707,51.707,0,0,1,30.65,10.03l55.392-29.708a52.09,52.09,0,1,1,13.059,27.039l-50.214,26.931a51.937,51.937,0,0,1,.1,35.11l49.924,26.476a51.839,51.839,0,1,1-12.911,27.11l-55.089-29.215a51.984,51.984,0,1,1-30.911-93.773Z" fill="#768ca5"/>
    <path id="Path_35" data-name="Path 35" d="M111,43.667H512v74.667H111Z" fill="#768ca5"/>
    <path id="Path_36" data-name="Path 36" d="M0,43.667H81v74.667H0Z" fill="#768ca5"/>
    <path id="Path_37" data-name="Path 37" d="M143.97,308.743a21.994,21.994,0,1,0,21.994-21.994A22.02,22.02,0,0,0,143.97,308.743Z" fill="#768ca5"/>
    <path id="Path_38" data-name="Path 38" d="M281.375,228.994A21.994,21.994,0,1,0,303.369,207,22.018,22.018,0,0,0,281.375,228.994Z" fill="#768ca5"/>
    <path id="Path_39" data-name="Path 39" d="M303.37,409.533a21.994,21.994,0,1,0-21.994-21.994A22.018,22.018,0,0,0,303.37,409.533Z" fill="#768ca5"/>
  </g>
</svg>
