<svg xmlns="http://www.w3.org/2000/svg" viewBox="0 0 512 510">
  <g id="github" transform="translate(-1511 1187)">
    <ellipse id="Ellipse_4" data-name="Ellipse 4" cx="256" cy="255" rx="256" ry="255" transform="translate(1511 -1187)" fill="#fff"/>
    <path id="github-2" data-name="github" d="M256,.5C114.56.5,0,114.679,0,255.5,0,368.187,73.344,463.747,175.04,497.439c12.8,2.4,17.493-5.493,17.493-12.261,0-6.055-.213-22.1-.32-43.358-71.211,15.375-86.229-34.211-86.229-34.211-11.648-29.431-28.48-37.3-28.48-37.3C54.315,354.5,79.3,354.823,79.3,354.823,105,356.6,118.507,381.1,118.507,381.1c22.827,38.99,59.925,27.723,74.56,21.214,2.3-16.5,8.9-27.723,16.213-34.1C152.427,361.829,92.672,339.9,92.672,242.2c0-27.831,9.92-50.58,26.347-68.421-2.88-6.444-11.52-32.372,2.24-67.491,0,0,21.44-6.833,70.4,26.144a242.258,242.258,0,0,1,128,0c48.64-32.978,70.08-26.144,70.08-26.144,13.76,35.119,5.12,61.047,2.56,67.491,16.32,17.84,26.24,40.59,26.24,68.421,0,97.961-59.84,119.52-116.8,125.792,8.96,7.655,17.28,23.29,17.28,47.185,0,34.124-.32,61.544-.32,69.827,0,6.682,4.48,14.662,17.6,12.11C438.72,463.639,512,368.014,512,255.5,512,114.679,397.376.5,256,.5Z" transform="translate(1511 -1187.009)"/>
  </g>
</svg>
