<svg xmlns="http://www.w3.org/2000/svg" viewBox="0 0 512.014 512.091">
  <g id="link" transform="translate(-0.039 0)">
    <g id="Group_31" data-name="Group 31">
      <g id="Group_30" data-name="Group 30">
        <path id="Path_34" data-name="Path 34" d="M312.453,199.6A116.166,116.166,0,0,0,292.4,183.473,119.483,119.483,0,0,0,143.493,199.6L34.949,308.23A119.473,119.473,0,0,0,203.824,477.275l89.6-89.6a8.533,8.533,0,0,0-6.059-14.592h-3.413A143.626,143.626,0,0,1,229.339,362.5a8.533,8.533,0,0,0-9.3,1.877l-64.427,64.512a51.228,51.228,0,0,1-72.448-72.448L192.134,247.558a51.2,51.2,0,0,1,72.363,0,34.987,34.987,0,0,0,47.957,0,33.8,33.8,0,0,0,0-47.957Z" fill="#4d6888"/>
      </g>
    </g>
    <g id="Group_33" data-name="Group 33">
      <g id="Group_32" data-name="Group 32">
        <path id="Path_35" data-name="Path 35" d="M477.061,34.993a119.473,119.473,0,0,0-168.96,0l-89.515,89.429a8.566,8.566,0,0,0,6.229,14.592h3.157A143.357,143.357,0,0,1,282.5,149.681a8.533,8.533,0,0,0,9.3-1.877l64.256-64.171a51.228,51.228,0,0,1,72.448,72.448l-80.043,79.957-.683.768L319.79,264.625a51.2,51.2,0,0,1-72.363,0,34.987,34.987,0,0,0-47.957,0,34.022,34.022,0,0,0,0,48.128A118.447,118.447,0,0,0,233.6,336.646c1.792.853,3.584,1.536,5.376,2.3s3.669,1.365,5.461,2.048,3.669,1.28,5.461,1.792l5.035,1.365c3.413.853,6.827,1.536,10.325,2.133a118.786,118.786,0,0,0,12.715,1.2h6.485l5.12-.6c1.877-.085,3.84-.512,6.059-.512h2.9l5.888-.853,2.731-.512,4.949-1.024h.939a119.456,119.456,0,0,0,55.381-31.4L477.058,203.953A119.47,119.47,0,0,0,477.061,34.993Z" fill="#1a3f69"/>
      </g>
    </g>
  </g>
</svg>
