<svg xmlns="http://www.w3.org/2000/svg" viewBox="0 0 70 69.717">
  <g id="logo" transform="translate(0 -1.034)">
    <path id="Path_1" data-name="Path 1" d="M39.486,94.282c-9.637-9.637-4.043-29.6,11.035-44.678,9.55-9.551,21.163-15.451,31.063-15.784a2.333,2.333,0,0,1,.157,4.664C71.7,38.821,61,45.721,53.82,52.9,40.4,66.319,35.42,83.616,42.786,90.982c9.182,9.182,28.3-1.254,38.079-11.035C95.474,65.338,99.949,46.306,89.878,40.3a2.333,2.333,0,1,1,2.391-4.007,15.043,15.043,0,0,1,2.93,2.279c9.629,9.629,4.057,29.587-11.035,44.678C69.006,98.4,49.083,103.879,39.486,94.282Z" transform="translate(-29.972 -28.307)" fill="#123257"/>
    <g id="Group_1" data-name="Group 1" transform="translate(37.41 5.511)">
      <path id="Path_2" data-name="Path 2" d="M287.738,38.477a2.33,2.33,0,0,0-.157-4.658,36.938,36.938,0,0,0-14.224,3.74v5.214A33.633,33.633,0,0,1,287.738,38.477Z" transform="translate(-273.358 -33.818)" fill="#1a3f69"/>
      <path id="Path_3" data-name="Path 3" d="M301.181,52.088a15.036,15.036,0,0,0-2.926-2.28,2.333,2.333,0,0,0-2.388,4.008c10.059,6.009,5.589,25.044-9,39.655a59.89,59.89,0,0,1-13.506,10v5.339a60.5,60.5,0,0,0,16.8-12.034C305.233,81.679,310.8,61.718,301.181,52.088Z" transform="translate(-273.359 -47.34)" fill="#1a3f69"/>
    </g>
    <path id="Path_4" data-name="Path 4" d="M51.38,83.1C44.1,75.824,38.89,67.306,36.7,59.114a2.333,2.333,0,0,1,4.508-1.206C43.19,65.32,47.975,73.1,54.679,79.8,68.111,93.232,85.4,98.194,92.758,90.835c9.182-9.182-1.253-28.3-11.035-38.079-13.418-13.418-30.715-18.4-38.079-11.035A12,12,0,0,0,40.36,49.1a2.333,2.333,0,0,1-4.638-.517,16.536,16.536,0,0,1,4.623-10.165c9.637-9.637,29.6-4.042,44.678,11.035,15.1,15.1,20.658,35.055,11.035,44.678C86.366,103.826,66.365,98.085,51.38,83.1Z" transform="translate(-30.831 -28.16)" fill="#1a3f69"/>
    <path id="Path_5" data-name="Path 5" d="M290.159,73.332a60.51,60.51,0,0,0-16.8-12.028v5.219a57.11,57.11,0,0,1,13.506,10.109c9.769,9.782,20.192,28.9,11.021,38.082-5.016,5.022-14.65,4.3-24.527-.925V119c10.823,5.087,21.511,5.33,27.823-.989C310.793,108.389,305.241,88.433,290.159,73.332Z" transform="translate(-235.948 -52.039)" fill="#123257"/>
    <path id="Path_6" data-name="Path 6" d="M209.352,218.411a10.123,10.123,0,1,1,10.123-10.124A10.135,10.135,0,0,1,209.352,218.411Z" transform="translate(-171.977 -170.166)" fill="#ffe365"/>
    <path id="Path_7" data-name="Path 7" d="M273.358,198.165h0v20.247h0a10.123,10.123,0,0,0,0-20.247Z" transform="translate(-235.978 -170.167)" fill="#ffc733"/>
    <path id="Path_8" data-name="Path 8" d="M360.992,8.215a6.957,6.957,0,0,1,7.188-7.181,7.207,7.207,0,0,1,6.723,9.782h0C372.143,18.006,360.992,16.507,360.992,8.215Z" transform="translate(-311.614 0)" fill="#84dbff"/>
    <path id="Path_9" data-name="Path 9" d="M0,134.933A7.2,7.2,0,1,1,8.559,142,7.209,7.209,0,0,1,0,134.933Z" transform="translate(0 -110.372)" fill="#ff7976"/>
    <path id="Path_10" data-name="Path 10" d="M52.73,127.732v14.4a7.2,7.2,0,0,0,0-14.4Z" transform="translate(-45.529 -110.372)" fill="#ff5752"/>
    <path id="Path_11" data-name="Path 11" d="M413.7,1.036V15.422a7.059,7.059,0,0,0,6.713-4.605A7.207,7.207,0,0,0,413.7,1.036Z" transform="translate(-357.12 -0.002)" fill="#54c9eb"/>
  </g>
</svg>
