<svg xmlns="http://www.w3.org/2000/svg" viewBox="0 0 512.001 384">
  <g id="mail" transform="translate(0 -64)">
    <g id="Group_38" data-name="Group 38">
      <g id="Group_37" data-name="Group 37">
        <path id="Path_47" data-name="Path 47" d="M10.688,95.156C80.958,154.667,204.26,259.365,240.5,292.01c4.865,4.406,10.083,6.646,15.5,6.646s10.615-2.219,15.469-6.6c36.271-32.677,159.573-137.385,229.844-196.9a10.659,10.659,0,0,0,1.5-14.719A42.36,42.36,0,0,0,469.333,64H42.667A42.356,42.356,0,0,0,9.188,80.438,10.658,10.658,0,0,0,10.688,95.156Z" fill="#4d6888"/>
        <path id="Path_48" data-name="Path 48" d="M505.813,127.406a10.618,10.618,0,0,0-11.375,1.542c-46.021,39.01-106.656,90.552-152.385,129.885a10.658,10.658,0,0,0,.292,16.406c42.49,34.031,106.521,80.844,152.76,114.115A10.667,10.667,0,0,0,512,380.7V137.083A10.663,10.663,0,0,0,505.813,127.406Z" fill="#1a3f69"/>
        <path id="Path_49" data-name="Path 49" d="M16.9,389.354c46.25-33.271,110.292-80.083,152.771-114.115a10.659,10.659,0,0,0,.292-16.406c-45.73-39.333-106.376-90.875-152.4-129.885A10.668,10.668,0,0,0,0,137.083V380.7a10.663,10.663,0,0,0,16.9,8.656Z" fill="#1a3f69"/>
        <path id="Path_50" data-name="Path 50" d="M498.927,418.375c-44.656-31.948-126.917-91.51-176.021-131.365a10.69,10.69,0,0,0-13.729.24c-9.635,8.406-17.7,15.49-23.417,20.635-17.563,15.854-41.938,15.854-59.542-.021-5.7-5.135-13.76-12.24-23.4-20.615a10.624,10.624,0,0,0-13.719-.24C140.165,326.728,57.811,386.363,13.082,418.374a10.665,10.665,0,0,0-1.6,15.937A42.74,42.74,0,0,0,42.667,448H469.334a42.8,42.8,0,0,0,31.2-13.688,10.666,10.666,0,0,0-1.6-15.937Z" fill="#1a3f69"/>
      </g>
    </g>
  </g>
</svg>
