<svg id="menu_1_" xmlns="http://www.w3.org/2000/svg" viewBox="0 0 270 270">
  <g id="Group_31" data-name="Group 31">
    <g id="Group_30" data-name="Group 30">
      <path id="Path_34" data-name="Path 34" d="M114,0H10A10.029,10.029,0,0,0,0,10V114a10.029,10.029,0,0,0,10,10H114a10.029,10.029,0,0,0,10-10V10A10.029,10.029,0,0,0,114,0ZM104,104H20V20h84Z" fill="#fff"/>
    </g>
  </g>
  <g id="Group_33" data-name="Group 33">
    <g id="Group_32" data-name="Group 32">
      <path id="Path_35" data-name="Path 35" d="M260,0H156a10.029,10.029,0,0,0-10,10V114a10.029,10.029,0,0,0,10,10H260a10.029,10.029,0,0,0,10-10V10A10.029,10.029,0,0,0,260,0ZM250,104H166V20h84Z" fill="#fff"/>
    </g>
  </g>
  <g id="Group_35" data-name="Group 35">
    <g id="Group_34" data-name="Group 34">
      <path id="Path_36" data-name="Path 36" d="M114,146H10A10.029,10.029,0,0,0,0,156V260a10.029,10.029,0,0,0,10,10H114a10.029,10.029,0,0,0,10-10V156A10.029,10.029,0,0,0,114,146ZM104,250H20V166h84Z" fill="#fff"/>
    </g>
  </g>
  <g id="Group_37" data-name="Group 37">
    <g id="Group_36" data-name="Group 36">
      <path id="Path_37" data-name="Path 37" d="M260,146H156a10.029,10.029,0,0,0-10,10V260a10.029,10.029,0,0,0,10,10H260a10.029,10.029,0,0,0,10-10V156A10.029,10.029,0,0,0,260,146ZM250,250H166V166h84Z" fill="#fff"/>
    </g>
  </g>
</svg>
