<svg xmlns="http://www.w3.org/2000/svg" viewBox="0 0 448 512">
  <g id="Group_32" data-name="Group 32" transform="translate(-930 1132)">
    <g id="pdf" transform="translate(898 -1132)">
      <path id="Path_34" data-name="Path 34" d="M128,0A32.094,32.094,0,0,0,96,32V480a32.094,32.094,0,0,0,32,32H448a32.094,32.094,0,0,0,32-32V128L352,0Z" fill="#e2e5e7"/>
      <path id="Path_35" data-name="Path 35" d="M384,128h96L352,0V96A32.094,32.094,0,0,0,384,128Z" fill="#b0b7bd"/>
      <path id="Path_36" data-name="Path 36" d="M480,224l-96-96h96Z" fill="#cad1d8"/>
      <path id="Path_37" data-name="Path 37" d="M416,416a16.047,16.047,0,0,1-16,16H48a16.047,16.047,0,0,1-16-16V256a16.047,16.047,0,0,1,16-16H400a16.047,16.047,0,0,1,16,16Z" fill="#f15642"/>
      <path id="Path_41" data-name="Path 41" d="M400,432H96v16H400a16.047,16.047,0,0,0,16-16V416A16.047,16.047,0,0,1,400,432Z" fill="#cad1d8"/>
    </g>
    <text id="PDF-2" data-name="PDF" transform="translate(992 -742)" fill="#fff" font-size="136" font-family="Quicksand-Bold, Quicksand" font-weight="700"><tspan x="0" y="0">PDF</tspan></text>
  </g>
</svg>
