<svg xmlns="http://www.w3.org/2000/svg" viewBox="0 0 464 464">
  <g id="programmer" transform="translate(-24 -24)">
    <path id="Path_34" data-name="Path 34" d="M312,136a24,24,0,0,0-24-24H48a24,24,0,0,0-24,24V304H312Z" fill="#768ca5"/>
    <path id="Path_35" data-name="Path 35" d="M288,112,96,304H312V136A24,24,0,0,0,288,112Z" fill="#768ca5"/>
    <path id="Path_36" data-name="Path 36" d="M24,304v16a24,24,0,0,0,24,24H288a24,24,0,0,0,24-24V304Z" fill="#e0e0de"/>
    <path id="Path_37" data-name="Path 37" d="M208,392H128l16-48h48Z" fill="#c7c7c5"/>
    <rect id="Rectangle_16" data-name="Rectangle 16" width="144" height="32" rx="16" transform="translate(96 392)" fill="#e0e0de"/>
    <g id="Group_30" data-name="Group 30">
      <path id="Path_38" data-name="Path 38" d="M116.919,208h86.163v16H116.919Z" transform="translate(-99.949 284.43) rotate(-68.23)" fill="#1a3f69"/>
      <path id="Path_39" data-name="Path 39" d="M123.2,246.4l-32-24a8,8,0,0,1,0-12.8l32-24,9.6,12.8L109.332,216,132.8,233.6Z" fill="#1a3f69"/>
      <path id="Path_40" data-name="Path 40" d="M196.8,246.4l-9.6-12.8L210.668,216,187.2,198.4l9.6-12.8,32,24a8,8,0,0,1,0,12.8Z" fill="#1a3f69"/>
      <path id="Path_41" data-name="Path 41" d="M48,136H64v16H48Z" fill="#1a3f69"/>
      <path id="Path_42" data-name="Path 42" d="M80,136H96v16H80Z" fill="#1a3f69"/>
      <path id="Path_43" data-name="Path 43" d="M112,136h16v16H112Z" fill="#1a3f69"/>
    </g>
    <circle id="Ellipse_4" data-name="Ellipse 4" cx="24" cy="24" r="24" transform="translate(384 104)" fill="#7a432a"/>
    <circle id="Ellipse_5" data-name="Ellipse 5" cx="24" cy="24" r="24" transform="translate(240 104)" fill="#7a432a"/>
    <path id="Path_44" data-name="Path 44" d="M446.788,282.112,376,272V224H296v48l-74.058,15.869A48,48,0,0,0,184,334.8V400H488V329.63a48,48,0,0,0-41.212-47.518Z" fill="#fec9a3"/>
    <path id="Path_45" data-name="Path 45" d="M342.03,264A63.811,63.811,0,0,0,376,254.19V224H296v30.19A63.811,63.811,0,0,0,329.97,264Z" fill="#feb784"/>
    <path id="Path_46" data-name="Path 46" d="M488,329.63V432H184V334.8a48,48,0,0,1,37.936-46.929L296,272c13.42,37.58,66.58,37.58,80,0l48.41,6.91,22.38,3.2A48,48,0,0,1,488,329.63Z" fill="#f35244"/>
    <path id="Path_47" data-name="Path 47" d="M240,432H432v56H240Z" fill="#ea4a3b"/>
    <path id="Path_48" data-name="Path 48" d="M488,329.63V432H261.59c61.96-33.27,115.95-77.41,162.82-153.09l22.38,3.2A48,48,0,0,1,488,329.63Z" fill="#ea4a3b"/>
    <path id="Path_49" data-name="Path 49" d="M416,128h-8v48h8a24,24,0,0,0,0-48Z" fill="#feb784"/>
    <path id="Path_50" data-name="Path 50" d="M264,128h-8a24,24,0,0,0,0,48h8Z" fill="#feb784"/>
    <path id="Path_51" data-name="Path 51" d="M408,120v56a72,72,0,0,1-69.33,71.95c-.88.03-1.78.05-2.671.05a72,72,0,0,1-72-71.994V120a72,72,0,0,1,62.133-71.319h.017A72,72,0,0,1,408,120Z" fill="#fec9a3"/>
    <path id="Path_52" data-name="Path 52" d="M408,120v56a72,72,0,0,1-69.33,71.95A87.892,87.892,0,0,0,376,176V128a88.141,88.141,0,0,0-49.85-79.32A72,72,0,0,1,408,120Z" fill="#fec093"/>
    <path id="Path_53" data-name="Path 53" d="M416,72c-.14,0-.268.039-.407.041A27.839,27.839,0,0,0,367.278,49.32a31.979,31.979,0,0,0-62.556,0,27.667,27.667,0,0,0-48.315,22.721c-.139,0-.267-.041-.407-.041a24,24,0,0,0,0,48l8,24,11.811-35.432A23.86,23.86,0,0,0,312,88l1.639.545a23.9,23.9,0,0,0,44.722,0L360,88a23.86,23.86,0,0,0,36.189,20.568L408,144l8-24a24,24,0,1,0,0-48Z" fill="#7a432a"/>
    <path id="Path_54" data-name="Path 54" d="M360,199.02l-.516-7.981c-9.875.641-20.156.961-30.55.961H312v16h16.934c10.738,0,21.363-.336,31.582-.992Z" fill="#f7a468"/>
    <path id="Path_55" data-name="Path 55" d="M424,352h16V480H424Z" fill="#cf3b2e"/>
    <path id="Path_56" data-name="Path 56" d="M232,352h16V480H232Z" fill="#cf3b2e"/>
    <path id="Path_57" data-name="Path 57" d="M216,488h24l152-32h32l24-16h40V384H448l-56,24L184,424v32A32,32,0,0,0,216,488Z" fill="#feb784"/>
    <path id="Path_58" data-name="Path 58" d="M456,488H432L280,456H248l-24-16H184V384h40l56,24,208,16v32A32,32,0,0,1,456,488Z" fill="#fec9a3"/>
    <circle id="Ellipse_6" data-name="Ellipse 6" cx="24" cy="24" r="24" transform="translate(272 128)" fill="#e0e0de"/>
    <circle id="Ellipse_7" data-name="Ellipse 7" cx="24" cy="24" r="24" transform="translate(352 128)" fill="#e0e0de"/>
    <path id="Path_59" data-name="Path 59" d="M376,120a31.967,31.967,0,0,0-30.864,24H326.864a32,32,0,1,0,0,16h18.272A31.948,31.948,0,1,0,376,120Zm-80,48a16,16,0,1,1,16-16A16,16,0,0,1,296,168Zm80,0a16,16,0,1,1,16-16A16,16,0,0,1,376,168Z" fill="#7a432a"/>
  </g>
</svg>
