<svg xmlns="http://www.w3.org/2000/svg" viewBox="0 0 44.098 42.261">
  <g id="send" transform="translate(0 0)">
    <path id="Path_32" data-name="Path 32" d="M8.75,17.612v8.522a1.378,1.378,0,0,0,2.488.816l4.985-6.784Z" transform="translate(7.328 14.749)" fill="#4d6888"/>
    <path id="Path_33" data-name="Path 33" d="M43.52.255a1.379,1.379,0,0,0-1.437-.1L.741,21.746a1.379,1.379,0,0,0,.191,2.526L12.425,28.2,36.9,7.273,17.961,30.092l19.262,6.584a1.41,1.41,0,0,0,.445.073,1.377,1.377,0,0,0,1.363-1.174L44.084,1.582A1.38,1.38,0,0,0,43.52.255Z" transform="translate(0 0)" fill="#4d6888"/>
  </g>
</svg>
